<svg width="126" height="126" viewBox="0 0 126 126" version="1.1" xmlns="http://www.w3.org/2000/svg" xmlns:xlink="http://www.w3.org/1999/xlink">
<title>checked</title>
<desc>Created using Figma</desc>
<g id="Canvas" transform="translate(-1750 -9824)">
<clipPath id="clip-0" clip-rule="evenodd">
<path d="M 1750 9824L 1876 9824L 1876 9950L 1750 9950L 1750 9824Z" fill="#FFFFFF"/>
</clipPath>
<g id="checked" clip-path="url(#clip-0)">
<g id="Vector">
<use xlink:href="#path0_fill" transform="translate(1761.81 9839.75)" fill="#E0E0E0"/>
</g>
<g id="Vector">
<use xlink:href="#path1_fill" transform="translate(1845.44 9847.62)" fill="#E0E0E0"/>
</g>
</g>
</g>
<defs>
<path id="path0_fill" d="M 41.1075 69.1425C 40.0641 69.1425 39.06 68.7291 38.3237 67.9888L 20.79 50.4551C 19.2504 48.9156 19.2504 46.4271 20.79 44.8875C 22.3296 43.3479 24.8181 43.3479 26.3576 44.8875L 41.1075 59.6374L 83.6325 17.1124C 74.9661 6.65831 61.8896 0 47.25 0C 21.1562 0 0 21.1562 0 47.25C 0 73.3438 21.1562 94.5 47.25 94.5C 73.3438 94.5 94.5 73.3438 94.5 47.25C 94.5 38.6662 92.1769 30.6416 88.1764 23.7038L 43.8913 67.9888C 43.155 68.7251 42.1549 69.1425 41.1075 69.1425Z"/>
<path id="path1_fill" d="M 13.6513 1.15467C 12.1118 -0.38489 9.62325 -0.38489 8.08368 1.15467L -9.01222e-07 9.23836C 1.701 11.2898 3.20118 13.5105 4.54387 15.8337L 13.6513 6.72623C 15.1909 5.18273 15.1909 2.69424 13.6513 1.15467Z"/>
</defs>
</svg>
