<svg width="8" height="12" viewBox="0 0 8 12" version="1.1" xmlns="http://www.w3.org/2000/svg" xmlns:xlink="http://www.w3.org/1999/xlink">
<title>Vector</title>
<desc>Created using Figma</desc>
<g id="Canvas" transform="translate(1595 -13036)">
<g id="Vector">
<use xlink:href="#path0_fill" transform="translate(-1595 13036)" fill="#FFFFFF"/>
</g>
</g>
<defs>
<path id="path0_fill" d="M 4 0C 1.79092 0 0 1.86 0 4.15385C 0 4.98077 0.234369 5.90569 0.634615 6.55292L 4 12L 7.36538 6.55292C 7.76503 5.90509 8 4.98077 8 4.15385C 8 1.86 6.20908 0 4 0ZM 4 2.15385C 5.01983 2.15385 5.84615 2.98017 5.84615 4C 5.84615 5.01983 5.01983 5.84615 4 5.84615C 2.98017 5.84615 2.15385 5.01983 2.15385 4C 2.15385 2.98017 2.98017 2.15385 4 2.15385Z"/>
</defs>
</svg>
