<svg width="40" height="42" viewBox="0 0 40 42" version="1.1" xmlns="http://www.w3.org/2000/svg" xmlns:xlink="http://www.w3.org/1999/xlink">
<title>Group</title>
<desc>Created using Figma</desc>
<g id="Canvas" transform="translate(-261 -13006)">
<g id="Group">
<g id="Shape">
<use xlink:href="#path0_fill" transform="translate(274.985 13019.5)" fill="#14CC48"/>
</g>
<g id="Shape">
<use xlink:href="#path1_fill" transform="translate(288.977 13011.3)" fill="#14CC48"/>
</g>
<g id="Shape">
<use xlink:href="#path2_fill" transform="translate(271.29 13006.3)" fill="#14CC48"/>
</g>
<g id="Shape">
<use xlink:href="#path3_fill" transform="translate(261.325 13018.6)" fill="#14CC48"/>
</g>
</g>
</g>
<defs>
<path id="path0_fill" fill-rule="evenodd" d="M 21.4056 11.6903L 0.523765 11.6903C 0.234353 11.6903 0 11.4559 0 11.1665L 0 4.04654C 0 3.88606 0.0738824 3.73454 0.198588 3.63524L 4.65694 0.111947C 4.84612 -0.0362884 5.112 -0.0372296 5.30118 0.108653L 12.1948 5.44654L 15.2965 3.18254C 15.4918 3.04136 15.7619 3.05077 15.9468 3.20936L 21.7473 8.20042C 21.8631 8.29971 21.9294 8.44512 21.9294 8.59712L 21.9294 11.1656C 21.9294 11.4559 21.6951 11.6903 21.4056 11.6903ZM 1.04752 10.6426L 20.8819 10.6426L 20.8819 8.83789L 15.5788 4.27412L 12.4946 6.52448C 12.3063 6.66048 12.0494 6.65765 11.8654 6.51506L 4.98399 1.18848L 1.04752 4.30048L 1.04752 10.6426Z"/>
<path id="path1_fill" fill-rule="evenodd" d="M 3.47529 6.95012C 1.55906 6.95012 0 5.39106 0 3.47482C 0 1.55859 1.55906 0 3.47529 0C 5.39153 0 6.95012 1.55906 6.95012 3.47482C 6.95012 5.39106 5.39106 6.95012 3.47529 6.95012ZM 3.47528 1.04785C 2.1374 1.04785 1.04752 2.13726 1.04752 3.47515C 1.04752 4.81303 2.13693 5.90291 3.47528 5.90291C 4.81316 5.90291 5.90257 4.8135 5.90257 3.47515C 5.90257 2.13726 4.81316 1.04785 3.47528 1.04785Z"/>
<path id="path2_fill" fill-rule="evenodd" d="M 24.9543 1.04785C 26.8414 1.04785 28.3765 2.58291 28.3765 4.46997L 28.3765 24.9551C 28.3765 26.8422 26.8414 28.3773 24.9543 28.3773L 4.46963 28.3773C 2.58257 28.3773 1.04752 26.8422 1.04752 24.9551L 1.04752 4.46997C 1.04752 2.58291 2.58257 1.04785 4.46963 1.04785L 24.9543 1.04785ZM 24.9544 0L 4.46965 0C 2.00094 0 0 2.00141 0 4.46965L 0 24.9548C 0 27.4231 2.00094 29.4245 4.46965 29.4245L 24.9548 29.4245C 27.4235 29.4245 29.4245 27.4231 29.4245 24.9548L 29.4245 4.46965C 29.4245 2.00094 27.4231 0 24.9544 0Z"/>
<path id="path3_fill" fill-rule="evenodd" d="M 31.4759 18.1831L 30.3969 18.1831L 30.5023 18.616C 30.7263 19.5336 30.579 20.4838 30.0882 21.2913C 29.5973 22.0984 28.8209 22.6654 27.9032 22.8894L 9.82088 27.2894C 8.89899 27.5115 7.95311 27.3652 7.14699 26.8739C 6.33993 26.3831 5.77193 25.6066 5.54793 24.6889L 1.14935 6.608C 0.925346 5.69035 1.07358 4.74024 1.56488 3.93271C 2.0557 3.12565 2.83217 2.55906 3.74982 2.33459L 8.91735 1.07718L 8.91735 0L 3.50229 1.31671C 2.31264 1.60612 1.30699 2.34165 0.669816 3.38824C 0.0335811 4.43388 -0.157948 5.66541 0.131934 6.85506L 4.53193 24.9365C 4.82135 26.1261 5.55688 27.1327 6.60252 27.7689C 7.33005 28.2108 8.14605 28.4391 8.97664 28.4391C 9.33993 28.4391 9.70699 28.3953 10.0693 28.3059L 28.1517 23.9059C 29.3413 23.6174 30.347 22.8819 30.9832 21.8353C 31.6204 20.7896 31.811 19.5581 31.5225 18.3685L 31.4759 18.1831Z"/>
</defs>
</svg>
