<svg width="160" height="54" viewBox="0 0 160 54" version="1.1" xmlns="http://www.w3.org/2000/svg" xmlns:xlink="http://www.w3.org/1999/xlink">
<title>Download_on_the_App_Store_Badge_US-UK_RGB_blk_092917</title>
<desc>Created using Figma</desc>
<g id="Canvas" transform="translate(3479 7175)">
<g id="Download_on_the_App_Store_Badge_US-UK_RGB_blk_092917">
<g id="Group">
<g id="Group">
<g id="Group">
<g id="Vector">
<use xlink:href="#path0_fill" transform="translate(-3479 -7175)" fill="#A6A6A6"/>
</g>
<g id="Vector">
<use xlink:href="#path1_fill" transform="translate(-3477.83 -7173.82)"/>
</g>
</g>
<g id="&#60;Group&#62;">
<g id="&#60;Group&#62;">
<g id="&#60;Group&#62;">
<g id="&#60;Path&#62;">
<use xlink:href="#path2_fill" transform="translate(-3465.67 -7156.14)" fill="#FFFFFF"/>
</g>
<g id="&#60;Path&#62;">
<use xlink:href="#path3_fill" transform="translate(-3453.87 -7163.23)" fill="#FFFFFF"/>
</g>
</g>
</g>
<g id="Group">
<g id="Vector">
<use xlink:href="#path4_fill" transform="translate(-3432.97 -7150.59)" fill="#FFFFFF"/>
</g>
<g id="Vector">
<use xlink:href="#path5_fill" transform="translate(-3416.65 -7146.18)" fill="#FFFFFF"/>
</g>
<g id="Vector">
<use xlink:href="#path6_fill" transform="translate(-3403.33 -7146.18)" fill="#FFFFFF"/>
</g>
<g id="Vector">
<use xlink:href="#path7_fill" transform="translate(-3385.66 -7150.87)" fill="#FFFFFF"/>
</g>
<g id="Vector">
<use xlink:href="#path8_fill" transform="translate(-3371.82 -7148.95)" fill="#FFFFFF"/>
</g>
<g id="Vector">
<use xlink:href="#path9_fill" transform="translate(-3363.92 -7146.2)" fill="#FFFFFF"/>
</g>
<g id="Vector">
<use xlink:href="#path10_fill" transform="translate(-3350.39 -7146.18)" fill="#FFFFFF"/>
</g>
<g id="Vector">
<use xlink:href="#path11_fill" transform="translate(-3343.66 -7146.2)" fill="#FFFFFF"/>
</g>
</g>
</g>
</g>
<g id="&#60;Group&#62;">
<g id="Group">
<g id="Vector">
<use xlink:href="#path12_fill" transform="translate(-3431.31 -7163.22)" fill="#FFFFFF"/>
</g>
<g id="Vector">
<use xlink:href="#path13_fill" transform="translate(-3423.28 -7161.35)" fill="#FFFFFF"/>
</g>
<g id="Vector">
<use xlink:href="#path14_fill" transform="translate(-3416.73 -7161.24)" fill="#FFFFFF"/>
</g>
<g id="Vector">
<use xlink:href="#path15_fill" transform="translate(-3406.99 -7161.36)" fill="#FFFFFF"/>
</g>
<g id="Vector">
<use xlink:href="#path16_fill" transform="translate(-3399.99 -7163.61)" fill="#FFFFFF"/>
</g>
<g id="Vector">
<use xlink:href="#path17_fill" transform="translate(-3397.16 -7161.35)" fill="#FFFFFF"/>
</g>
<g id="Vector">
<use xlink:href="#path18_fill" transform="translate(-3390.22 -7161.35)" fill="#FFFFFF"/>
</g>
<g id="Vector">
<use xlink:href="#path19_fill" transform="translate(-3383.6 -7163.61)" fill="#FFFFFF"/>
</g>
<g id="Vector">
<use xlink:href="#path20_fill" transform="translate(-3373.08 -7161.35)" fill="#FFFFFF"/>
</g>
<g id="Vector">
<use xlink:href="#path21_fill" transform="translate(-3365.79 -7161.36)" fill="#FFFFFF"/>
</g>
<g id="Vector">
<use xlink:href="#path22_fill" transform="translate(-3356.11 -7162.75)" fill="#FFFFFF"/>
</g>
<g id="Vector">
<use xlink:href="#path23_fill" transform="translate(-3351.04 -7163.61)" fill="#FFFFFF"/>
</g>
<g id="Vector">
<use xlink:href="#path24_fill" transform="translate(-3344.34 -7161.35)" fill="#FFFFFF"/>
</g>
</g>
</g>
</g>
</g>
</g>
<defs>
<path id="path0_fill" d="M 147.259 0.000175499L 12.7486 0.000175499C 12.2583 0.000175499 11.7739 0.0001755 11.2849 0.00287549C 10.8755 0.00557548 10.4694 0.013419 10.0562 0.0200204C 9.15832 0.0306878 8.26261 0.110438 7.37678 0.258578C 6.49221 0.409943 5.63534 0.695309 4.83516 1.10503C 4.03596 1.51821 3.30571 2.05509 2.6709 2.69621C 2.03276 3.33552 1.50082 4.07448 1.09553 4.88468C 0.68913 5.69325 0.407328 6.55972 0.259861 7.45415C 0.110992 8.34745 0.0308843 9.25105 0.0202567 10.1568C 0.00784864 10.5707 0.0065383 10.986 0 11.4L 0 42.6041C 0.0065383 43.0233 0.00784864 43.4294 0.0202567 43.8487C 0.0308876 44.7545 0.110995 45.658 0.259861 46.5513C 0.40692 47.4462 0.688739 48.3132 1.09553 49.1221C 1.50063 49.9296 2.03265 50.6656 2.6709 51.3014C 3.30331 51.9453 4.03403 52.4826 4.83516 52.8926C 5.63533 53.3034 6.49211 53.5905 7.37678 53.7442C 8.26276 53.8911 9.15838 53.9709 10.0562 53.9829C 10.4694 53.992 10.8755 53.9973 11.2849 53.9973C 11.7739 54 12.2583 54 12.7486 54L 147.259 54C 147.739 54 148.227 54 148.708 53.9973C 149.115 53.9973 149.533 53.992 149.941 53.9829C 150.837 53.9715 151.731 53.8918 152.615 53.7442C 153.502 53.5894 154.362 53.3024 155.166 52.8926C 155.967 52.4823 156.697 51.9451 157.329 51.3014C 157.965 50.6631 158.498 49.9277 158.908 49.1221C 159.312 48.3126 159.591 47.4457 159.736 46.5513C 159.885 45.6579 159.968 44.7545 159.984 43.8487C 159.99 43.4294 159.99 43.0233 159.99 42.6041C 160 42.1137 160 41.6259 160 41.1275L 160 12.8739C 160 12.3795 160 11.8891 159.99 11.4C 159.99 10.986 159.99 10.5707 159.984 10.1568C 159.968 9.25092 159.885 8.34752 159.736 7.4541C 159.591 6.56018 159.312 5.69379 158.908 4.88462C 158.083 3.26068 156.774 1.9388 155.166 1.1049C 154.362 0.696189 153.502 0.410899 152.615 0.258457C 151.731 0.109664 150.837 0.0298859 149.941 0.0198314C 149.533 0.0132435 149.115 0.00533248 148.708 0.00269999C 148.227 0 147.739 -4.79477e-13 147.259 -4.79477e-13L 147.259 0.000175499Z"/>
<path id="path1_fill" d="M 10.1241 51.6373C 9.71672 51.6373 9.31918 51.6321 8.915 51.6229C 8.07769 51.6119 7.24235 51.5383 6.41581 51.4027C 5.64511 51.2687 4.89851 51.0194 4.20063 50.663C 3.50915 50.3096 2.87846 49.8463 2.33273 49.2906C 1.7791 48.7416 1.31818 48.1047 0.96823 47.4054C 0.614426 46.7015 0.369572 45.947 0.242198 45.1682C 0.104645 44.3313 0.0302238 43.4851 0.0195748 42.6369C 0.0110978 42.3522 -2.71094e-08 41.4042 -2.71094e-08 41.4042L -2.71094e-08 10.2186C -2.71094e-08 10.2186 0.0118198 9.28518 0.0196417 9.01095C 0.029838 8.16407 0.103827 7.31921 0.240968 6.48366C 0.368577 5.70272 0.61362 4.94604 0.967616 4.23984C 1.31628 3.54096 1.77464 2.90365 2.32493 2.35261C 2.87461 1.79633 3.50731 1.33056 4.19997 0.97228C 4.89625 0.617074 5.64144 0.369538 6.41059 0.237964C 7.23984 0.101028 8.07808 0.0269946 8.91829 0.0164835L 10.1248 0L 147.534 0L 148.755 0.017145C 149.588 0.0271339 150.418 0.100507 151.24 0.236641C 152.017 0.369865 152.77 0.619129 153.474 0.976236C 154.862 1.69828 155.991 2.84061 156.703 4.24313C 157.051 4.94446 157.293 5.69497 157.419 6.46917C 157.557 7.31156 157.635 8.16307 157.651 9.01689C 157.655 9.39921 157.655 9.80988 157.655 10.2186C 157.665 10.7248 157.665 11.2067 157.665 11.6925L 157.665 39.9461C 157.665 40.4366 157.665 40.9151 157.655 41.3976C 157.655 41.8366 157.655 42.2388 157.65 42.6527C 157.634 43.4913 157.558 44.3276 157.421 45.1549C 157.296 45.9394 157.053 46.6997 156.699 47.4094C 156.347 48.1012 155.888 48.7325 155.341 49.2801C 154.795 49.8387 154.163 50.3048 153.47 50.6605C 152.768 51.0196 152.016 51.2698 151.24 51.4027C 150.413 51.539 149.578 51.6126 148.741 51.6229C 148.349 51.6321 147.939 51.6373 147.541 51.6373L 146.091 51.64L 10.1241 51.6373Z"/>
<path id="path2_fill" d="M 19.7851 8.54233C 19.7995 7.41554 20.096 6.31074 20.6469 5.3307C 21.1978 4.35067 21.9853 3.52725 22.936 2.93707C 22.332 2.06611 21.5352 1.34934 20.6088 0.843693C 19.6825 0.338049 18.6521 0.05746 17.5996 0.0242101C 15.3543 -0.21374 13.1776 1.38073 12.0334 1.38073C 10.8671 1.38073 9.10555 0.047835 7.2086 0.0872414C 5.9816 0.127266 4.78579 0.487517 3.73768 1.13289C 2.68958 1.77827 1.82492 2.68676 1.22796 3.76985C -1.35794 8.29021 0.570908 14.9336 3.04799 18.5875C 4.28733 20.3767 5.73575 22.3753 7.63099 22.3045C 9.4856 22.2268 10.1783 21.1104 12.4169 21.1104C 14.6348 21.1104 15.2847 22.3045 17.2184 22.2594C 19.2084 22.2268 20.4623 20.4622 21.6581 18.6561C 22.5486 17.3812 23.2338 15.9722 23.6884 14.4812C 22.5322 13.9875 21.5456 13.161 20.8514 12.1049C 20.1573 11.0488 19.7865 9.8098 19.7851 8.54233Z"/>
<path id="path3_fill" d="M 4.3409 4.71232C 5.42597 3.39715 5.96054 1.70671 5.83109 2.11761e-07C 4.17334 0.175797 2.64204 0.975749 1.54231 2.24047C 1.00462 2.85831 0.592803 3.5771 0.330408 4.35574C 0.0680134 5.13437 -0.0398151 5.95759 0.0130859 6.77833C 0.84226 6.78695 1.66256 6.60549 2.41221 6.24762C 3.16186 5.88976 3.82131 5.36481 4.3409 4.71232Z"/>
<path id="path4_fill" d="M 10.5295 12.2331L 4.20056 12.2331L 2.68068 16.7642L -1.36123e-06 16.7642L 5.99465 2.76031e-07L 8.77978 2.76031e-07L 14.7744 16.7642L 12.048 16.7642L 10.5295 12.2331ZM 4.85604 10.1421L 9.87274 10.1421L 7.39968 2.78835L 7.33047 2.78835L 4.85604 10.1421Z"/>
<path id="path5_fill" d="M 11.4031 6.24204C 11.4031 10.0402 9.38961 12.4805 6.35115 12.4805C 5.58146 12.5211 4.81598 12.3421 4.14237 11.9639C 3.46876 11.5858 2.91425 11.0237 2.54232 10.3421L 2.48482 10.3421L 2.48482 16.396L 3.59078e-08 16.396L 3.59078e-08 0.13014L 2.40521 0.13014L 2.40521 2.16304L 2.45091 2.16304C 2.83994 1.48472 3.40382 0.925562 4.08257 0.545071C 4.76131 0.164581 5.52952 -0.0230112 6.30545 0.00225405C 9.3778 0.00226755 11.4031 2.4544 11.4031 6.24204ZM 8.84903 6.24204C 8.84903 3.7675 7.58245 2.14063 5.64996 2.14063C 3.75142 2.14063 2.47441 3.80176 2.47441 6.24204C 2.47441 8.70473 3.75142 10.354 5.64996 10.354C 7.58247 10.354 8.84903 8.73901 8.84903 6.24204Z"/>
<path id="path6_fill" d="M 11.4031 6.24203C 11.4031 10.0402 9.38961 12.4805 6.35115 12.4805C 5.58146 12.5211 4.81598 12.3421 4.14237 11.9639C 3.46876 11.5857 2.91425 11.0237 2.54232 10.3421L 2.48482 10.3421L 2.48482 16.396L -5.05974e-08 16.396L -5.05974e-08 0.130127L 2.40516 0.130127L 2.40516 2.16303L 2.45086 2.16303C 2.83989 1.48471 3.40378 0.925552 4.08252 0.545064C 4.76126 0.164575 5.52947 -0.023015 6.30541 0.0022541C 9.37785 0.0022541 11.4031 2.45439 11.4031 6.24203ZM 8.84903 6.24203C 8.84903 3.76749 7.58245 2.14062 5.64996 2.14062C 3.75142 2.14062 2.47441 3.80175 2.47441 6.24203C 2.47441 8.70472 3.75142 10.354 5.64996 10.354C 7.58247 10.354 8.84904 8.73899 8.84904 6.24203L 8.84903 6.24203Z"/>
<path id="path7_fill" d="M 2.54362 12.3728C 2.72773 14.0353 4.32728 15.1268 6.51306 15.1268C 8.60747 15.1268 10.1143 14.0352 10.1143 12.5363C 10.1143 11.235 9.20549 10.4559 7.05364 9.92196L 4.90179 9.39856C 1.8529 8.65501 0.43746 7.21536 0.43746 4.87924C 0.43746 1.98676 2.93404 4.6472e-07 6.47911 4.6472e-07C 9.9876 4.6472e-07 12.3928 1.98676 12.4738 4.87924L 9.9654 4.87924C 9.81525 3.20624 8.44552 2.19639 6.44383 2.19639C 4.44213 2.19639 3.07241 3.21812 3.07241 4.70522C 3.07241 5.89042 3.94726 6.58783 6.08736 7.12171L 7.91669 7.57523C 11.3234 8.38866 12.7388 9.77032 12.7388 12.2224C 12.7388 15.3588 10.2644 17.3231 6.32891 17.3231C 2.64672 17.3231 0.160607 15.4049 -2.88895e-06 12.3727L 2.54362 12.3728Z"/>
<path id="path8_fill" d="M 4.2567 1.17828e-06L 4.2567 2.89247L 6.55872 2.89247L 6.55872 4.87924L 4.2567 4.87924L 4.2567 11.6173C 4.2567 12.6641 4.71763 13.1519 5.72957 13.1519C 6.00286 13.1471 6.2757 13.1277 6.54696 13.0939L 6.54696 15.0688C 6.09199 15.1546 5.62956 15.1935 5.1668 15.1848C 2.71594 15.1848 1.76013 14.2553 1.76013 11.8849L 1.76013 4.87924L 7.27949e-07 4.87924L 7.27949e-07 2.89247L 1.7601 2.89247L 1.7601 1.17828e-06L 4.2567 1.17828e-06Z"/>
<path id="path9_fill" d="M 3.26435e-06 6.26219C 3.26435e-06 2.41655 2.24325 5.52885e-07 5.74134 5.52885e-07C 9.25116 5.52885e-07 11.484 2.41649 11.484 6.26219C 11.484 10.1184 9.26291 12.5244 5.74134 12.5244C 2.221 12.5244 3.26435e-06 10.1184 3.26435e-06 6.26219ZM 8.95214 6.26219C 8.95214 3.62416 7.75478 2.06718 5.74133 2.06718C 3.72788 2.06718 2.53182 3.63603 2.53182 6.26219C 2.53182 8.91076 3.72788 10.4559 5.74133 10.4559C 7.75478 10.4559 8.95209 8.91076 8.95209 6.26219L 8.95214 6.26219Z"/>
<path id="path10_fill" d="M 1.0756e-05 0.130024L 2.36993 0.130024L 2.36993 2.21037L 2.42742 2.21037C 2.58776 1.56063 2.96476 0.986436 3.49502 0.584293C 4.02529 0.182149 4.67651 -0.0234263 5.33922 0.00212286C 5.62557 0.00111337 5.91113 0.0325145 6.19056 0.0957338L 6.19056 2.4424C 5.82905 2.33087 5.45194 2.27966 5.0741 2.2908C 4.71312 2.27601 4.35325 2.34027 4.01919 2.47917C 3.68513 2.61807 3.38479 2.82831 3.1388 3.09546C 2.89281 3.36261 2.707 3.68034 2.59412 4.02685C 2.48123 4.37335 2.44394 4.74041 2.48482 5.10284L 2.48482 12.3525L 5.54939e-07 12.3525L 1.0756e-05 0.130024Z"/>
<path id="path11_fill" d="M 10.9199 8.78288C 10.5856 11.0017 8.44551 12.5244 5.70738 12.5244C 2.1858 12.5244 -2.61474e-06 10.1421 -2.61474e-06 6.32019C -2.61474e-06 2.48642 2.19755 1.17828e-06 5.60292 1.17828e-06C 8.95214 1.17828e-06 11.0583 2.32294 11.0583 6.02884L 11.0583 6.88841L 2.50833 6.88841L 2.50833 7.04001C 2.46887 7.48983 2.52464 7.94298 2.67196 8.36936C 2.81927 8.79575 3.05476 9.1856 3.36276 9.51304C 3.67077 9.84048 4.04424 10.098 4.45839 10.2685C 4.87254 10.439 5.31789 10.5186 5.76484 10.502C 6.35203 10.5576 6.9413 10.4202 7.44499 10.1105C 7.94868 9.80076 8.33989 9.33513 8.56043 8.78287L 10.9199 8.78288ZM 2.52007 5.13499L 8.57217 5.13499C 8.59448 4.73054 8.53375 4.3258 8.39379 3.94617C 8.25382 3.56653 8.03765 3.22021 7.75884 2.92893C 7.48003 2.63764 7.1446 2.40769 6.7736 2.2535C 6.4026 2.09931 6.00403 2.0242 5.60292 2.0329C 5.19828 2.03047 4.79717 2.10896 4.42273 2.26386C 4.04829 2.41877 3.70794 2.64701 3.42133 2.93541C 3.13471 3.22381 2.90751 3.56667 2.75282 3.9442C 2.59813 4.32173 2.51903 4.72645 2.52007 5.135L 2.52007 5.13499Z"/>
<path id="path12_fill" d="M 2.88176 0.00914053C 3.40271 -0.0286043 3.92545 0.0508565 4.4123 0.24179C 4.89914 0.432724 5.33795 0.730372 5.69707 1.11326C 6.05619 1.49616 6.32667 1.95475 6.48899 2.45596C 6.65132 2.95718 6.70144 3.48852 6.63576 4.01166C 6.63576 6.58509 5.25821 8.06435 2.88176 8.06435L 1.77254e-06 8.06435L 1.77254e-06 0.00914053L 2.88176 0.00914053ZM 1.23914 6.92517L 2.74335 6.92517C 3.1156 6.94763 3.48812 6.88601 3.83381 6.74478C 4.1795 6.60355 4.48965 6.38627 4.74167 6.10876C 4.9937 5.83125 5.18127 5.50049 5.29073 5.14055C 5.40018 4.78062 5.42877 4.40057 5.37441 4.02808C 5.42482 3.65705 5.39334 3.27936 5.2822 2.92207C 5.17107 2.56477 4.98304 2.23672 4.73158 1.96141C 4.48013 1.68611 4.17147 1.47037 3.82773 1.32965C 3.484 1.18893 3.11369 1.12672 2.74335 1.14747L 1.23914 1.14747L 1.23914 6.92517Z"/>
<path id="path13_fill" d="M 0.0134303 3.1541C -0.0244211 2.75461 0.0208429 2.35155 0.146315 1.97075C 0.271787 1.58996 0.474695 1.23985 0.742032 0.942877C 1.00937 0.645901 1.33524 0.408618 1.69872 0.246247C 2.06221 0.0838754 2.45529 2.87285e-07 2.85276 2.87285e-07C 3.25023 2.87285e-07 3.64332 0.0838754 4.0068 0.246247C 4.37029 0.408618 4.69615 0.645901 4.96349 0.942877C 5.23082 1.23985 5.43374 1.58996 5.55921 1.97075C 5.68468 2.35155 5.72994 2.75461 5.69209 3.1541C 5.73066 3.554 5.68593 3.95762 5.56079 4.33903C 5.43565 4.72044 5.23287 5.07119 4.96546 5.36875C 4.69805 5.66631 4.37195 5.90409 4.0081 6.06681C 3.64425 6.22953 3.2507 6.31359 2.85276 6.31359C 2.45481 6.31359 2.06127 6.22953 1.69742 6.06681C 1.33357 5.90409 1.00746 5.66631 0.740059 5.36875C 0.472653 5.07119 0.269863 4.72044 0.144723 4.33903C 0.0195834 3.95762 -0.0251395 3.554 0.0134303 3.1541ZM 4.46991 3.1541C 4.46991 1.83641 3.88362 1.06583 2.85472 1.06583C 1.82188 1.06583 1.24087 1.83641 1.24087 3.15411C 1.24087 4.48236 1.82192 5.247 2.85472 5.247C 3.88365 5.24699 4.46992 4.47707 4.46992 3.1541L 4.46991 3.1541Z"/>
<path id="path14_fill" d="M 6.6906 6.07894L 5.45799 6.07894L 4.21362 1.6018L 4.11961 1.6018L 2.88046 6.07894L 1.65959 6.07894L -1.57015e-06 5.45469e-07L 1.2052 5.45469e-07L 2.28374 4.63859L 2.37254 4.63859L 3.61038 5.45469e-07L 4.75029 5.45469e-07L 5.98812 4.63859L 6.08213 4.63859L 7.15545 5.45469e-07L 8.34366 5.45469e-07L 6.6906 6.07894Z"/>
<path id="path15_fill" d="M 1.13828e-05 0.123326L 1.14383 0.123326L 1.14383 1.08902L 1.23262 1.08902C 1.38325 0.742176 1.6373 0.451425 1.95936 0.257287C 2.28143 0.0631499 2.65546 -0.0247002 3.02932 0.0059835C 3.32227 -0.0162548 3.61643 0.0283431 3.88999 0.136472C 4.16355 0.244602 4.40951 0.413492 4.60965 0.63063C 4.80979 0.847768 4.95898 1.10759 5.04616 1.39085C 5.13334 1.6741 5.15627 1.97353 5.11327 2.26696L 5.11327 6.20219L 3.92506 6.20219L 3.92506 2.56822C 3.92506 1.59132 3.50461 1.1055 2.62585 1.1055C 2.42695 1.09615 2.22839 1.13033 2.0438 1.2057C 1.85921 1.28107 1.69294 1.39585 1.55639 1.54217C 1.41984 1.68849 1.31624 1.86288 1.25269 2.05341C 1.18915 2.24394 1.16715 2.44608 1.18822 2.64599L 1.18822 6.20226L 1.18169e-06 6.20226L 1.13828e-05 0.123326Z"/>
<path id="path16_fill" d="M -1.23882e-06 3.70787e-07L 1.18822 3.70787e-07L 1.18822 8.45197L -1.23882e-06 8.45197L -1.23882e-06 3.70787e-07Z"/>
<path id="path17_fill" d="M 0.013396 3.15421C -0.0244264 2.7547 0.0208654 2.35161 0.146367 1.9708C 0.271869 1.59 0.474811 1.23988 0.742177 0.942894C 1.00954 0.645911 1.33543 0.408625 1.69894 0.246251C 2.06245 0.0838771 2.45556 5.39034e-07 2.85306 5.39034e-07C 3.25055 5.39034e-07 3.64366 0.0838771 4.00717 0.246251C 4.37068 0.408625 4.69657 0.645911 4.96393 0.942894C 5.2313 1.23988 5.43423 1.59 5.55974 1.9708C 5.68524 2.35161 5.73053 2.7547 5.69271 3.15421C 5.73123 3.55413 5.68646 3.95776 5.56129 4.33916C 5.43611 4.72057 5.23328 5.07131 4.96585 5.36886C 4.69842 5.66641 4.37229 5.90418 4.00843 6.0669C 3.64456 6.22961 3.25101 6.31367 2.85306 6.31367C 2.4551 6.31367 2.06154 6.22961 1.69768 6.0669C 1.33381 5.90418 1.00769 5.66641 0.740254 5.36886C 0.472822 5.07131 0.270001 4.72057 0.144822 4.33916C 0.0196427 3.95776 -0.0251249 3.55413 0.013396 3.15421ZM 4.46987 3.15421C 4.46987 1.83652 3.88359 1.06595 2.85468 1.06595C 1.82185 1.06595 1.24084 1.83652 1.24084 3.15423C 1.24084 4.48248 1.82189 5.24711 2.85468 5.24711C 3.8836 5.2471 4.46988 4.47718 4.46988 3.15421L 4.46987 3.15421Z"/>
<path id="path18_fill" d="M 2.39929e-06 4.47713C 2.39929e-06 3.38289 0.806951 2.75206 2.23933 2.66241L 3.87021 2.56749L 3.87021 2.04279C 3.87021 1.40074 3.44976 1.0382 2.63759 1.0382C 1.97428 1.0382 1.51467 1.28408 1.38278 1.71386L 0.232424 1.71386C 0.353857 0.669719 1.32664 -4.14458e-07 2.69244 -4.14458e-07C 4.20187 -4.14458e-07 5.05321 0.758698 5.05321 2.04279L 5.05321 6.19626L 3.90938 6.19626L 3.90938 5.34197L 3.81537 5.34197C 3.62455 5.64841 3.3566 5.89823 3.03887 6.06591C 2.72115 6.23359 2.36505 6.31314 2.00692 6.29642C 1.75417 6.32296 1.49871 6.29574 1.25702 6.2165C 1.01533 6.13725 0.792768 6.00775 0.603682 5.83634C 0.414596 5.66494 0.263188 5.45543 0.159211 5.22132C 0.0552332 4.98721 0.000998217 4.73369 2.39929e-06 4.47713ZM 3.87021 3.95769L 3.87021 3.44947L 2.39995 3.54439C 1.5708 3.60041 1.19474 3.88518 1.19474 4.42109C 1.19474 4.9682 1.6648 5.28658 2.3112 5.28658C 2.50059 5.30594 2.6919 5.28663 2.87375 5.22981C 3.0556 5.17299 3.22427 5.07981 3.36973 4.95583C 3.51518 4.83184 3.63445 4.67958 3.72043 4.50811C 3.80641 4.33663 3.85735 4.14945 3.87021 3.95769Z"/>
<path id="path19_fill" d="M -2.80734e-07 5.40989C -2.80734e-07 3.48905 0.978005 2.2722 2.49918 2.2722C 2.87546 2.2547 3.2489 2.34569 3.57585 2.53455C 3.9028 2.72341 4.16974 3.00233 4.3455 3.3387L 4.4343 3.3387L 4.4343 3.70787e-07L 5.62251 3.70787e-07L 5.62251 8.45197L 4.48392 8.45197L 4.48392 7.49154L 4.3899 7.49154C 4.20057 7.82566 3.92431 8.1011 3.59104 8.28805C 3.25777 8.475 2.88019 8.56633 2.49919 8.55215C 0.967559 8.55222 -2.80734e-07 7.33535 -2.80734e-07 5.40989ZM 1.22743 5.40989C 1.22743 6.69924 1.82939 7.4751 2.83612 7.4751C 3.83759 7.4751 4.45653 6.68805 4.45653 5.41517C 4.45653 4.14823 3.83109 3.34996 2.83612 3.34996C 1.83587 3.34996 1.22739 4.13108 1.22739 5.40989L 1.22743 5.40989Z"/>
<path id="path20_fill" d="M 0.0134357 3.1541C -0.0244157 2.75461 0.0208432 2.35155 0.146315 1.97075C 0.271787 1.58996 0.4747 1.23985 0.742038 0.942877C 1.00938 0.645901 1.33523 0.408618 1.69872 0.246247C 2.0622 0.0838754 2.45529 2.87285e-07 2.85276 2.87285e-07C 3.25024 2.87285e-07 3.64332 0.0838754 4.0068 0.246247C 4.37029 0.408618 4.69614 0.645901 4.96348 0.942877C 5.23082 1.23985 5.43373 1.58996 5.5592 1.97075C 5.68467 2.35155 5.72994 2.75461 5.69209 3.1541C 5.73066 3.554 5.68593 3.95762 5.56079 4.33903C 5.43565 4.72044 5.23287 5.07119 4.96546 5.36875C 4.69805 5.66631 4.37195 5.90409 4.0081 6.06681C 3.64425 6.22953 3.25071 6.31359 2.85276 6.31359C 2.45482 6.31359 2.06127 6.22953 1.69742 6.06681C 1.33357 5.90409 1.00746 5.66631 0.740059 5.36875C 0.472653 5.07119 0.269864 4.72044 0.144724 4.33903C 0.0195837 3.95762 -0.0251341 3.554 0.0134357 3.1541ZM 4.46991 3.1541C 4.46991 1.83641 3.88363 1.06583 2.85472 1.06583C 1.82188 1.06583 1.24087 1.83641 1.24087 3.15411C 1.24087 4.48236 1.82193 5.247 2.85472 5.247C 3.88364 5.24699 4.46991 4.47707 4.46991 3.1541Z"/>
<path id="path21_fill" d="M -1.53424e-06 0.123326L 1.14383 0.123326L 1.14383 1.08902L 1.23263 1.08902C 1.38325 0.742176 1.6373 0.451425 1.95936 0.257287C 2.28142 0.0631499 2.65546 -0.0247002 3.02932 0.0059835C 3.32227 -0.0162548 3.61642 0.0283431 3.88999 0.136472C 4.16355 0.244602 4.40952 0.413492 4.60965 0.63063C 4.80979 0.847768 4.95898 1.10759 5.04616 1.39085C 5.13334 1.6741 5.15627 1.97353 5.11327 2.26696L 5.11327 6.20219L 3.92506 6.20219L 3.92506 2.56822C 3.92506 1.59132 3.50462 1.1055 2.62585 1.1055C 2.42695 1.09615 2.22839 1.13033 2.0438 1.2057C 1.8592 1.28107 1.69294 1.39585 1.55639 1.54217C 1.41984 1.68849 1.31624 1.86288 1.25269 2.05341C 1.18914 2.24394 1.16715 2.44608 1.18822 2.64599L 1.18822 6.20226L -1.53424e-06 6.20226L -1.53424e-06 0.123326Z"/>
<path id="path22_fill" d="M 2.14532 6.3281e-07L 2.14532 1.54116L 3.44977 1.54116L 3.44977 2.55168L 2.14532 2.55168L 2.14532 5.6775C 2.14532 6.31427 2.40517 6.5931 2.99667 6.5931C 3.1481 6.59261 3.29938 6.58336 3.44977 6.56541L 3.44977 7.56472C 3.23638 7.60326 3.02018 7.62376 2.80342 7.62602C 1.48201 7.62602 0.955797 7.15668 0.955797 5.98467L 0.955797 2.55163L -3.45041e-06 2.55163L -3.45041e-06 1.5411L 0.955797 1.5411L 0.955797 6.3281e-07L 2.14532 6.3281e-07Z"/>
<path id="path23_fill" d="M 3.6528e-06 3.70787e-07L 1.17778 3.70787e-07L 1.17778 3.34995L 1.27178 3.34995C 1.42974 2.99987 1.69076 2.70747 2.01928 2.5126C 2.34779 2.31773 2.72782 2.22987 3.10759 2.26099C 3.39902 2.24497 3.69036 2.2941 3.96082 2.40486C 4.23128 2.51561 4.47421 2.68527 4.67225 2.90173C 4.8703 3.11818 5.0186 3.3761 5.10655 3.65708C 5.19451 3.93806 5.21996 4.23518 5.1811 4.52724L 5.1811 8.45199L 3.9917 8.45199L 3.9917 4.8232C 3.9917 3.85223 3.54378 3.36048 2.70424 3.36048C 2.50001 3.34357 2.2946 3.37191 2.10236 3.44353C 1.91011 3.51516 1.7357 3.62832 1.5913 3.77512C 1.44691 3.92191 1.33602 4.09879 1.26641 4.29338C 1.19679 4.48796 1.17013 4.69555 1.18828 4.90163L 1.18828 8.45196L 5.46582e-05 8.45196L 3.6528e-06 3.70787e-07Z"/>
<path id="path24_fill" d="M 5.41577 4.55501C 5.25433 5.11059 4.90455 5.59117 4.42763 5.91267C 3.95071 6.23417 3.37701 6.37612 2.8069 6.31369C 2.41024 6.32427 2.01605 6.24756 1.65169 6.0889C 1.28734 5.93023 0.961542 5.69342 0.696922 5.39488C 0.432301 5.09635 0.235199 4.74324 0.119286 4.36009C 0.00337253 3.97693 -0.0285655 3.57289 0.0256805 3.17602C -0.0271407 2.77793 0.00535978 2.37302 0.120999 1.98871C 0.236639 1.60441 0.432716 1.24967 0.695943 0.948524C 0.959169 0.647376 1.28341 0.406845 1.6467 0.243215C 2.01 0.0795854 2.40388 -0.00332278 2.80167 0.000102157C 4.47693 0.000102157 5.48758 1.1557 5.48758 3.06459L 5.48758 3.48321L 1.23609 3.48321L 1.23609 3.55044C 1.21748 3.77352 1.24526 3.99807 1.31763 4.20968C 1.38999 4.42129 1.50536 4.6153 1.65632 4.77926C 1.80729 4.94323 1.99053 5.07353 2.19429 5.16182C 2.39805 5.2501 2.61782 5.29442 2.83954 5.29194C 3.12377 5.32639 3.41172 5.27471 3.66678 5.14348C 3.92185 5.01226 4.13249 4.8074 4.27193 4.55497L 5.41577 4.55501ZM 1.23606 2.59594L 4.27712 2.59594C 4.2921 2.39192 4.26464 2.18699 4.19651 1.99432C 4.12837 1.80165 4.02108 1.62551 3.88151 1.4772C 3.74193 1.32889 3.57318 1.2117 3.38608 1.13317C 3.19898 1.05463 2.99768 1.01648 2.79511 1.02117C 2.58961 1.01856 2.38566 1.05752 2.1953 1.13575C 2.00494 1.21397 1.83202 1.32988 1.68672 1.47664C 1.54143 1.62341 1.42671 1.79805 1.34931 1.99029C 1.27192 2.18252 1.23342 2.38845 1.23609 2.59594L 1.23606 2.59594Z"/>
</defs>
</svg>
