<svg width="8" height="13" viewBox="0 0 8 13" version="1.1" xmlns="http://www.w3.org/2000/svg" xmlns:xlink="http://www.w3.org/1999/xlink">
<title>Icon</title>
<desc>Created using Figma</desc>
<g id="Canvas" transform="translate(1421 -1510)">
<rect x="-1421" y="1510" width="8" height="13" fill="#333333"/>
<clipPath id="clip-0" clip-rule="evenodd">
<path d="M -2059 1000L -619 1000L -619 2024L -2059 2024L -2059 1000Z" fill="#FFFFFF"/>
</clipPath>
<g id="2.1 Filters - Filters List" clip-path="url(#clip-0)">
<path d="M -2059 1000L -619 1000L -619 2024L -2059 2024L -2059 1000Z" fill="#FFFFFF"/>
<g id="Contents / Main" filter="url(#filter0_d)">
<g id="Contents / Main Background">
<use xlink:href="#path0_fill" transform="translate(-2059 1052)" fill="#FFFFFF"/>
</g>
</g>
<g id="Group">
<g id="Sets/Cell">
<g id="Rectangle 10" filter="url(#filter1_d)">
<use xlink:href="#path1_fill" transform="translate(-2059 1426)" fill="#FCFCFC"/>
</g>
<g id="Icon" opacity="0.5">
<use xlink:href="#path2_fill" transform="translate(-1421 1510)" fill="#ACACAC"/>
</g>
</g>
</g>
</g>
</g>
<defs>
<filter id="filter0_d" filterUnits="userSpaceOnUse" x="-2061" y="1048" width="680" height="980" color-interpolation-filters="sRGB">
<feFlood flood-opacity="0" result="BackgroundImageFix"/>
<feColorMatrix in="SourceAlpha" type="matrix" values="0 0 0 0 0 0 0 0 0 0 0 0 0 0 0 0 0 0 255 0"/>
<feOffset dx="2" dy="0"/>
<feGaussianBlur stdDeviation="2"/>
<feColorMatrix type="matrix" values="0 0 0 0 0 0 0 0 0 0 0 0 0 0 0 0 0 0 0.09 0"/>
<feBlend mode="normal" in2="BackgroundImageFix" result="effect1_dropShadow"/>
<feBlend mode="normal" in="SourceGraphic" in2="effect1_dropShadow" result="shape"/>
</filter>
<filter id="filter1_d" filterUnits="userSpaceOnUse" x="-2059" y="1426" width="672" height="181" color-interpolation-filters="sRGB">
<feFlood flood-opacity="0" result="BackgroundImageFix"/>
<feColorMatrix in="SourceAlpha" type="matrix" values="0 0 0 0 0 0 0 0 0 0 0 0 0 0 0 0 0 0 255 0"/>
<feOffset dx="0" dy="1"/>
<feColorMatrix type="matrix" values="0 0 0 0 0 0 0 0 0 0 0 0 0 0 0 0 0 0 0.1 0"/>
<feBlend mode="normal" in2="BackgroundImageFix" result="effect1_dropShadow"/>
<feBlend mode="normal" in="SourceGraphic" in2="effect1_dropShadow" result="shape"/>
</filter>
<path id="path0_fill" d="M 0 0L 672 0L 672 972L 0 972L 0 0Z"/>
<path id="path1_fill" d="M 0 0L 672 0L 672 180L 0 180L 0 0Z"/>
<path id="path2_fill" d="M 5.01887 6.50372L 0 11.5507L 1.53561 13L 7.2793 7.22417L 8 6.49944L 7.27923 5.77477L 1.53554 0L 6.77704e-05 1.44947L 5.01887 6.50372Z"/>
</defs>
</svg>
