<svg width="12" height="14" viewBox="0 0 12 14" version="1.1" xmlns="http://www.w3.org/2000/svg" xmlns:xlink="http://www.w3.org/1999/xlink">
<title>Lock Icon</title>
<desc>Created using Figma</desc>
<g id="Canvas" transform="translate(3606 5347)">
<g id="Group">
<g id="Lock">
<use xlink:href="#path0_fill" transform="translate(-3606 -5347)" fill="#14CC48"/>
</g>
</g>
</g>
<defs>
<path id="path0_fill" fill-rule="evenodd" d="M 5 1L 7 1C 8.10449 1 9 1.89551 9 3L 9 5L 3 5L 3 3C 3 1.89551 3.89551 1 5 1ZM 2 5L 2 3C 2 1.34326 3.34326 0 5 0L 7 0C 8.65674 0 10 1.34326 10 3L 10 5C 11.1045 5 12 5.89551 12 7L 12 12C 12 13.1045 11.1045 14 10 14L 2 14C 0.895508 14 0 13.1045 0 12L 0 7C 0 5.89551 0.895508 5 2 5Z"/>
</defs>
</svg>
