<svg width="159" height="54" viewBox="0 0 159 54" version="1.1" xmlns="http://www.w3.org/2000/svg" xmlns:xlink="http://www.w3.org/1999/xlink">
<title>Group 2</title>
<desc>Created using Figma</desc>
<g id="Canvas" transform="translate(1086 7363)">
<g id="Group 2">
<g id="Beacon Me">
<use xlink:href="#path0_fill" transform="translate(-1086 -7363)" fill="#BDBDBD"/>
<use xlink:href="#path1_fill" transform="translate(-1086 -7363)" fill="#BDBDBD"/>
<use xlink:href="#path2_fill" transform="translate(-1086 -7363)" fill="#BDBDBD"/>
<use xlink:href="#path3_fill" transform="translate(-1086 -7363)" fill="#BDBDBD"/>
<use xlink:href="#path4_fill" transform="translate(-1086 -7363)" fill="#BDBDBD"/>
<use xlink:href="#path5_fill" transform="translate(-1086 -7363)" fill="#BDBDBD"/>
<use xlink:href="#path6_fill" transform="translate(-1086 -7363)" fill="#BDBDBD"/>
<use xlink:href="#path7_fill" transform="translate(-1086 -7363)" fill="#BDBDBD"/>
</g>
<g id="FOR BUSINESS">
<use xlink:href="#path8_fill" transform="translate(-1072.72 -7323.09)" fill="#BDBDBD"/>
<use xlink:href="#path9_fill" transform="translate(-1072.72 -7323.09)" fill="#BDBDBD"/>
<use xlink:href="#path10_fill" transform="translate(-1072.72 -7323.09)" fill="#BDBDBD"/>
<use xlink:href="#path11_fill" transform="translate(-1072.72 -7323.09)" fill="#BDBDBD"/>
<use xlink:href="#path12_fill" transform="translate(-1072.72 -7323.09)" fill="#BDBDBD"/>
<use xlink:href="#path13_fill" transform="translate(-1072.72 -7323.09)" fill="#BDBDBD"/>
<use xlink:href="#path14_fill" transform="translate(-1072.72 -7323.09)" fill="#BDBDBD"/>
<use xlink:href="#path15_fill" transform="translate(-1072.72 -7323.09)" fill="#BDBDBD"/>
<use xlink:href="#path16_fill" transform="translate(-1072.72 -7323.09)" fill="#BDBDBD"/>
<use xlink:href="#path17_fill" transform="translate(-1072.72 -7323.09)" fill="#BDBDBD"/>
<use xlink:href="#path18_fill" transform="translate(-1072.72 -7323.09)" fill="#BDBDBD"/>
</g>
</g>
</g>
<defs>
<path id="path0_fill" d="M 0 0L 9.41232 0C 10.6516 0 11.7236 0.137971 12.6284 0.413918C 13.5333 0.670151 14.2709 1.04465 14.8414 1.53741C 15.4118 2.03017 15.8347 2.61162 16.1101 3.28178C 16.3855 3.95193 16.5232 4.70092 16.5232 5.52876L 16.5232 5.64702C 16.5232 6.84935 16.2281 7.83487 15.638 8.60357C 15.0479 9.35257 14.1529 9.88475 12.953 10.2001C 14.2513 10.4169 15.2741 10.9294 16.0216 11.7375C 16.7887 12.5259 17.1723 13.6593 17.1723 15.1376L 17.1723 15.2558C 17.1723 17.148 16.5429 18.6066 15.284 19.6315C 14.0447 20.6368 12.117 21.1394 9.50084 21.1394L 0 21.1394L 0 0ZM 8.40913 17.0889C 9.37298 17.0889 10.0811 16.8819 10.5335 16.468C 10.986 16.0344 11.2122 15.4234 11.2122 14.6349L 11.2122 14.5167C 11.2122 13.7086 10.9761 13.1074 10.504 12.7132C 10.0516 12.2993 9.2943 12.0923 8.23209 12.0923L 5.90114 12.0923L 5.90114 17.0889L 8.40913 17.0889ZM 8.20259 8.39662C 9.14677 8.39662 9.81556 8.22908 10.209 7.894C 10.6024 7.53921 10.7991 6.98732 10.7991 6.23833L 10.7991 6.12007C 10.7991 5.39078 10.5925 4.8586 10.1795 4.52353C 9.78606 4.18845 9.1271 4.02091 8.20259 4.02091L 5.90114 4.02091L 5.90114 8.39662L 8.20259 8.39662Z"/>
<path id="path1_fill" d="M 27.4818 21.4942C 26.2622 21.4942 25.141 21.3266 24.1181 20.9915C 23.0953 20.6368 22.2199 20.1243 21.4921 19.4541C 20.7447 18.784 20.1545 17.9561 19.7218 16.9706C 19.3087 15.9851 19.1022 14.8616 19.1022 13.6002L 19.1022 13.3636C 19.1022 12.1219 19.3186 11.0082 19.7513 10.0227C 20.1841 9.01749 20.7742 8.16009 21.5216 7.45052C 22.2691 6.74094 23.1543 6.19891 24.1772 5.82441C 25.2 5.44992 26.2917 5.26267 27.4523 5.26267C 28.5145 5.26267 29.5177 5.42035 30.4619 5.73572C 31.4061 6.05108 32.242 6.53399 32.9699 7.18443C 33.678 7.83487 34.2386 8.66271 34.6517 9.66793C 35.0844 10.6732 35.3008 11.8656 35.3008 13.2454L 35.3008 14.6349L 24.4427 14.6349C 24.5214 15.6599 24.8361 16.4582 25.3869 17.0298C 25.9573 17.5816 26.7146 17.8576 27.6588 17.8576C 28.544 17.8576 29.1833 17.6802 29.5767 17.3254C 29.9898 16.9706 30.2455 16.537 30.3439 16.0245L 35.3008 16.0245C 35.0648 17.7787 34.2878 19.1289 32.9699 20.075C 31.6519 21.0211 29.8226 21.4942 27.4818 21.4942ZM 30.1668 11.6488C 30.1275 10.7027 29.8816 9.9833 29.4292 9.49054C 28.9767 8.99778 28.3178 8.7514 27.4523 8.7514C 26.6458 8.7514 25.9868 8.99778 25.4754 9.49054C 24.964 9.9833 24.6394 10.7027 24.5017 11.6488L 30.1668 11.6488Z"/>
<path id="path2_fill" d="M 42.3033 21.4942C 41.6149 21.4942 40.9559 21.4055 40.3265 21.2281C 39.697 21.0507 39.1462 20.7747 38.6741 20.4002C 38.1824 20.0257 37.789 19.5527 37.4939 18.9811C 37.2185 18.3898 37.0808 17.6802 37.0808 16.8524C 37.0808 15.039 37.7988 13.748 39.2347 12.9793C 40.6904 12.1909 42.7066 11.7967 45.2834 11.7967L 46.7587 11.7967L 46.7587 11.4419C 46.7587 10.6929 46.6308 10.1016 46.3751 9.66793C 46.1194 9.2146 45.5686 8.98793 44.7228 8.98793C 43.995 8.98793 43.4737 9.17517 43.159 9.54967C 42.8639 9.90446 42.6869 10.3282 42.6279 10.821L 37.6709 10.821C 37.73 9.8946 37.9463 9.08648 38.3201 8.39662C 38.7135 7.68704 39.2347 7.09573 39.8839 6.62268C 40.5133 6.16934 41.2608 5.83427 42.1263 5.61745C 43.0115 5.38093 43.9852 5.26267 45.0474 5.26267C 46.1096 5.26267 47.0636 5.38093 47.9094 5.61745C 48.7749 5.83427 49.5126 6.1792 50.1224 6.65225C 50.7321 7.1253 51.1944 7.73632 51.5091 8.48531C 51.8435 9.2146 52.0107 10.0917 52.0107 11.1166L 52.0107 21.1394L 46.8767 21.1394L 46.8767 19.3359C 46.503 19.9075 45.9522 20.4101 45.2244 20.8437C 44.5163 21.2773 43.5426 21.4942 42.3033 21.4942ZM 44.1327 17.9167C 44.8802 17.9167 45.4998 17.7196 45.9916 17.3254C 46.503 16.9312 46.7587 16.399 46.7587 15.7289L 46.7587 14.7828L 45.3719 14.7828C 44.3097 14.7828 43.5327 14.9109 43.041 15.1671C 42.5492 15.4037 42.3033 15.8373 42.3033 16.468C 42.3033 16.9213 42.4509 17.2761 42.7459 17.5324C 43.041 17.7886 43.5032 17.9167 44.1327 17.9167Z"/>
<path id="path3_fill" d="M 62.5424 21.4942C 61.3818 21.4942 60.3098 21.3266 59.3263 20.9915C 58.3428 20.6565 57.4871 20.1538 56.7593 19.4837C 56.0315 18.8333 55.461 18.0153 55.048 17.0298C 54.6349 16.0442 54.4283 14.901 54.4283 13.6002L 54.4283 13.3636C 54.4283 12.0825 54.6447 10.9393 55.0775 9.93402C 55.5102 8.9288 56.1003 8.08125 56.8478 7.39139C 57.5953 6.70152 58.4608 6.1792 59.4443 5.82441C 60.4475 5.44992 61.5195 5.26267 62.6604 5.26267C 63.6046 5.26267 64.5095 5.37107 65.375 5.58789C 66.2601 5.8047 67.0469 6.15949 67.7354 6.65225C 68.4239 7.16472 68.9845 7.82502 69.4172 8.63314C 69.8697 9.44127 70.1352 10.4366 70.2139 11.6193L 65.2569 11.6193C 65.1389 10.89 64.8832 10.3381 64.4898 9.96359C 64.116 9.56938 63.5456 9.37228 62.7785 9.37228C 61.8343 9.37228 61.1065 9.70736 60.595 10.3775C 60.0836 11.0279 59.8279 12.0036 59.8279 13.3045L 59.8279 13.541C 59.8279 14.901 60.0836 15.926 60.595 16.6158C 61.1065 17.286 61.8638 17.6211 62.867 17.6211C 63.6144 17.6211 64.2242 17.4043 64.6963 16.9706C 65.1684 16.537 65.4536 15.8964 65.552 15.0489L 70.3024 15.0489C 70.2237 17.0002 69.5353 18.5672 68.237 19.7498C 66.9388 20.9127 65.0406 21.4942 62.5424 21.4942Z"/>
<path id="path4_fill" d="M 80.329 17.5619C 81.3322 17.5619 82.0896 17.217 82.601 16.5271C 83.1124 15.8176 83.3681 14.8123 83.3681 13.5115L 83.3681 13.2749C 83.3681 11.974 83.1124 10.9787 82.601 10.2888C 82.0896 9.57924 81.3322 9.22445 80.329 9.22445C 79.3258 9.22445 78.5587 9.56938 78.0276 10.2592C 77.5162 10.9294 77.2605 11.9149 77.2605 13.2158L 77.2605 13.4523C 77.2605 14.7926 77.5162 15.8176 78.0276 16.5271C 78.539 17.217 79.3062 17.5619 80.329 17.5619ZM 80.2995 21.4942C 79.1193 21.4942 78.0079 21.3168 76.9654 20.962C 75.9425 20.6072 75.0574 20.0947 74.3099 19.4246C 73.5427 18.7544 72.9428 17.9266 72.51 16.9411C 72.0773 15.9555 71.8609 14.8419 71.8609 13.6002L 71.8609 13.3636C 71.8609 12.1219 72.0773 11.0082 72.51 10.0227C 72.9428 9.01749 73.5427 8.16009 74.3099 7.45052C 75.0574 6.74094 75.9425 6.19891 76.9654 5.82441C 78.0079 5.44992 79.1291 5.26267 80.329 5.26267C 81.5093 5.26267 82.6108 5.44992 83.6337 5.82441C 84.6762 6.1792 85.5712 6.70152 86.3187 7.39139C 87.0662 8.08125 87.6563 8.91894 88.089 9.90446C 88.5218 10.89 88.7382 11.9938 88.7382 13.2158L 88.7382 13.4523C 88.7382 14.7138 88.5218 15.8471 88.089 16.8524C 87.6563 17.8379 87.0662 18.6756 86.3187 19.3654C 85.5516 20.0553 84.6467 20.5875 83.6042 20.962C 82.5813 21.3168 81.4798 21.4942 80.2995 21.4942Z"/>
<path id="path5_fill" d="M 91.2722 5.67658L 96.5537 5.67658L 96.5537 8.16009C 96.9668 7.35197 97.5864 6.67196 98.4126 6.12007C 99.2584 5.54847 100.33 5.26267 101.629 5.26267C 103.124 5.26267 104.333 5.74557 105.258 6.71138C 106.202 7.65748 106.674 9.11604 106.674 11.0871L 106.674 21.1394L 101.393 21.1394L 101.393 12.1514C 101.393 11.2645 101.216 10.614 100.862 10.2001C 100.507 9.76649 99.9469 9.54967 99.1797 9.54967C 98.3929 9.54967 97.7536 9.7862 97.2619 10.2592C 96.7898 10.7323 96.5537 11.4714 96.5537 12.4767L 96.5537 21.1394L 91.2722 21.1394L 91.2722 5.67658Z"/>
<path id="path6_fill" d="M 116.208 0L 124.086 0L 128.128 11.2645L 132.17 0L 139.901 0L 139.901 21.1394L 133.881 21.1394L 133.881 7.9827L 128.718 21.1394L 126.712 21.1394L 121.607 7.9827L 121.607 21.1394L 116.208 21.1394L 116.208 0Z"/>
<path id="path7_fill" d="M 151.181 21.4942C 149.961 21.4942 148.84 21.3266 147.817 20.9915C 146.794 20.6368 145.919 20.1243 145.191 19.4541C 144.444 18.784 143.854 17.9561 143.421 16.9706C 143.008 15.9851 142.801 14.8616 142.801 13.6002L 142.801 13.3636C 142.801 12.1219 143.018 11.0082 143.45 10.0227C 143.883 9.01749 144.473 8.16009 145.221 7.45052C 145.968 6.74094 146.853 6.19891 147.876 5.82441C 148.899 5.44992 149.991 5.26267 151.151 5.26267C 152.214 5.26267 153.217 5.42035 154.161 5.73572C 155.105 6.05108 155.941 6.53399 156.669 7.18443C 157.377 7.83487 157.938 8.66271 158.351 9.66793C 158.784 10.6732 159 11.8656 159 13.2454L 159 14.6349L 148.142 14.6349C 148.221 15.6599 148.535 16.4582 149.086 17.0298C 149.657 17.5816 150.414 17.8576 151.358 17.8576C 152.243 17.8576 152.882 17.6802 153.276 17.3254C 153.689 16.9706 153.945 16.537 154.043 16.0245L 159 16.0245C 158.764 17.7787 157.987 19.1289 156.669 20.075C 155.351 21.0211 153.522 21.4942 151.181 21.4942ZM 153.866 11.6488C 153.827 10.7027 153.581 9.9833 153.128 9.49054C 152.676 8.99778 152.017 8.7514 151.151 8.7514C 150.345 8.7514 149.686 8.99778 149.175 9.49054C 148.663 9.9833 148.339 10.7027 148.201 11.6488L 153.866 11.6488Z"/>
<path id="path8_fill" d="M 0 0.172959L 8.0167 0.172959L 8.0167 1.53741L 1.66855 1.53741L 1.66855 6.39946L 6.61665 6.39946L 6.61665 7.76391L 1.66855 7.76391L 1.66855 13.9135L 0 13.9135L 0 0.172959Z"/>
<path id="path9_fill" d="M 16.6251 12.7028C 17.3922 12.7028 18.0763 12.5683 18.6772 12.2993C 19.2909 12.0174 19.8088 11.6331 20.2307 11.1462C 20.6526 10.6466 20.9787 10.0508 21.2088 9.35898C 21.4389 8.66714 21.554 7.90484 21.554 7.07208L 21.554 6.91834C 21.554 6.14963 21.4389 5.42577 21.2088 4.74675C 20.9914 4.06773 20.6718 3.47839 20.2499 2.97873C 19.8279 2.47907 19.3101 2.08191 18.6964 1.78724C 18.0827 1.49257 17.3795 1.34523 16.5867 1.34523C 15.794 1.34523 15.0844 1.48616 14.4579 1.76802C 13.8314 2.03707 13.3008 2.42142 12.8661 2.92108C 12.4441 3.42073 12.1181 4.01648 11.888 4.70831C 11.6706 5.38734 11.5619 6.13682 11.5619 6.95677L 11.5619 7.11051C 11.5619 7.94328 11.6898 8.70558 11.9455 9.39741C 12.214 10.0764 12.572 10.6658 13.0195 11.1654C 13.4798 11.6523 14.0168 12.0302 14.6305 12.2993C 15.2442 12.5683 15.9091 12.7028 16.6251 12.7028ZM 16.6251 14.0865C 15.615 14.0865 14.688 13.9071 13.8442 13.5484C 13.0131 13.1769 12.2971 12.6772 11.6962 12.0494C 11.108 11.4217 10.6477 10.685 10.3153 9.83942C 9.99565 8.99384 9.83583 8.09061 9.83583 7.12973L 9.83583 6.97599C 9.83583 6.0023 9.99565 5.09267 10.3153 4.24709C 10.6477 3.3887 11.108 2.64562 11.6962 2.01785C 12.2971 1.39007 13.0067 0.896821 13.825 0.538093C 14.6561 0.179364 15.5767 0 16.5867 0C 17.5968 0 18.511 0.179364 19.3293 0.538093C 20.1476 0.896821 20.8508 1.39007 21.4389 2.01785C 22.0271 2.64562 22.481 3.3823 22.8006 4.22787C 23.1203 5.07345 23.2801 5.97668 23.2801 6.93756L 23.2801 7.0913C 23.2801 8.06499 23.1203 8.97462 22.8006 9.8202C 22.481 10.6658 22.0271 11.4089 21.4389 12.0494C 20.8636 12.6772 20.1668 13.1769 19.3485 13.5484C 18.5302 13.9071 17.6224 14.0865 16.6251 14.0865Z"/>
<path id="path10_fill" d="M 26.2958 0.172959L 30.4192 0.172959C 31.0713 0.172959 31.685 0.243423 32.2604 0.384352C 32.8485 0.525281 33.36 0.749486 33.7947 1.05697C 34.2294 1.36445 34.5746 1.76161 34.8303 2.24846C 35.086 2.72249 35.2139 3.30543 35.2139 3.99726L 35.2139 4.07413C 35.2139 4.63785 35.1244 5.13751 34.9454 5.57311C 34.7664 5.99589 34.5235 6.36103 34.2166 6.66851C 33.9098 6.96318 33.5517 7.2066 33.1426 7.39878C 32.7335 7.59096 32.2923 7.73188 31.8193 7.82157L 36.0194 13.9135L 34.1591 13.9135L 30.074 7.93687L 27.9644 7.93687L 27.9644 13.9135L 26.2958 13.9135L 26.2958 0.172959ZM 30.5343 6.61086C 31.5188 6.61086 32.2668 6.39946 32.7782 5.97668C 33.2896 5.55389 33.5454 4.91971 33.5454 4.07413L 33.5454 3.99726C 33.5454 3.53604 33.475 3.14528 33.3344 2.82499C 33.1937 2.50469 32.9956 2.24846 32.7398 2.05628C 32.4841 1.86411 32.1645 1.72958 31.7809 1.65271C 31.4101 1.56303 30.9946 1.51819 30.5343 1.51819L 27.9644 1.51819L 27.9644 6.61086L 30.5343 6.61086Z"/>
<path id="path11_fill" d="M 43.639 0.172959L 47.7625 0.172959C 48.4018 0.172959 48.9899 0.230611 49.5269 0.345917C 50.0639 0.461222 50.5306 0.659804 50.927 0.941662C 51.3233 1.21071 51.6302 1.57584 51.8475 2.03707C 52.0649 2.48548 52.1736 3.04919 52.1736 3.72822L 52.1736 3.80509C 52.1736 4.43286 52.0201 5.00939 51.7133 5.53467C 51.4192 6.04714 50.8822 6.4379 50.1023 6.70694C 51.0996 6.95037 51.8028 7.33472 52.2119 7.86C 52.6339 8.38528 52.8448 9.09633 52.8448 9.99316L 52.8448 10.07C 52.8448 10.7234 52.7361 11.2935 52.5188 11.7804C 52.3142 12.2544 52.0137 12.6516 51.6174 12.9719C 51.221 13.2794 50.748 13.5164 50.1982 13.6829C 49.6484 13.8367 49.0283 13.9135 48.3378 13.9135L 43.639 13.9135L 43.639 0.172959ZM 48.2995 12.6068C 49.2968 12.6068 50.0319 12.3954 50.505 11.9726C 50.9781 11.537 51.2146 10.8964 51.2146 10.0508L 51.2146 9.97394C 51.2146 9.12836 50.9653 8.50059 50.4667 8.09061C 49.9808 7.68064 49.1817 7.47565 48.0693 7.47565L 45.2692 7.47565L 45.2692 12.6068L 48.2995 12.6068ZM 47.7625 6.16885C 48.7725 6.16885 49.4886 5.97668 49.9105 5.59232C 50.3324 5.20797 50.5434 4.59301 50.5434 3.74743L 50.5434 3.67056C 50.5434 2.88905 50.3132 2.33174 49.8529 1.99863C 49.3927 1.65271 48.683 1.47976 47.7241 1.47976L 45.2692 1.47976L 45.2692 6.16885L 47.7625 6.16885Z"/>
<path id="path12_fill" d="M 60.6082 14.0865C 59.0227 14.0865 57.8017 13.6445 56.945 12.7605C 56.1012 11.8637 55.6792 10.5761 55.6792 8.89775L 55.6792 0.172959L 57.3478 0.172959L 57.3478 8.70558C 57.3478 9.42303 57.4117 10.038 57.5396 10.5505C 57.6674 11.0501 57.8656 11.4601 58.1341 11.7804C 58.4026 12.1007 58.7414 12.3377 59.1506 12.4914C 59.5725 12.6324 60.0711 12.7028 60.6465 12.7028C 61.1963 12.7028 61.6822 12.6388 62.1041 12.5107C 62.5388 12.3825 62.9032 12.1583 63.1973 11.838C 63.5041 11.5178 63.7343 11.0886 63.8877 10.5505C 64.0539 9.99956 64.137 9.30132 64.137 8.45575L 64.137 0.172959L 65.8056 0.172959L 65.8056 8.68636C 65.8056 10.3647 65.3773 11.6843 64.5206 12.6452C 63.6767 13.6061 62.3726 14.0865 60.6082 14.0865Z"/>
<path id="path13_fill" d="M 73.8033 14.0865C 72.8827 14.0865 72.1027 13.9712 71.4635 13.7406C 70.8369 13.4972 70.3191 13.1769 69.91 12.7797C 69.5008 12.3825 69.1876 11.9213 68.9702 11.396C 68.7656 10.8708 68.6314 10.3134 68.5675 9.72411L 70.1785 9.72411C 70.2296 10.1341 70.3191 10.5248 70.447 10.8964C 70.5748 11.2551 70.773 11.5754 71.0415 11.8573C 71.31 12.1263 71.6616 12.3441 72.0964 12.5107C 72.5439 12.6644 73.1128 12.7413 73.8033 12.7413C 74.238 12.7413 74.6471 12.6836 75.0307 12.5683C 75.4143 12.4402 75.7467 12.2608 76.028 12.0302C 76.3093 11.7996 76.5266 11.5242 76.6801 11.2039C 76.8463 10.8836 76.9294 10.5312 76.9294 10.1469C 76.9294 9.76254 76.8782 9.42944 76.776 9.14758C 76.6737 8.85291 76.4947 8.60308 76.2389 8.39809C 75.996 8.19311 75.6572 8.02015 75.2225 7.87922C 74.8005 7.73829 74.2635 7.61658 73.6115 7.51408C 72.8955 7.39878 72.2498 7.25144 71.6744 7.07208C 71.1118 6.89272 70.6324 6.6621 70.236 6.38025C 69.8397 6.08558 69.5392 5.72685 69.3346 5.30406C 69.13 4.86846 69.0278 4.34318 69.0278 3.72822C 69.0278 3.20293 69.1364 2.71609 69.3538 2.26768C 69.5712 1.80645 69.8716 1.40929 70.2552 1.07619C 70.6516 0.743081 71.1182 0.48044 71.6552 0.288264C 72.1922 0.0960879 72.7868 0 73.4389 0C 74.8197 0 75.9129 0.326699 76.7184 0.980098C 77.5367 1.62068 78.0162 2.55594 78.1568 3.78587L 76.6609 3.78587C 76.4947 2.91467 76.1558 2.2933 75.6444 1.92176C 75.133 1.53741 74.3978 1.34523 73.4389 1.34523C 72.4927 1.34523 71.7767 1.55663 71.2908 1.97941C 70.8178 2.38939 70.5812 2.92108 70.5812 3.57447C 70.5812 3.90758 70.6196 4.20866 70.6963 4.4777C 70.7858 4.73394 70.9456 4.95814 71.1758 5.15032C 71.4187 5.34249 71.7511 5.51545 72.1731 5.66919C 72.6078 5.81012 73.1768 5.93183 73.88 6.03433C 74.6471 6.14963 75.3184 6.30338 75.8937 6.49555C 76.4691 6.68773 76.955 6.93756 77.3513 7.24504C 77.7477 7.55252 78.0417 7.93047 78.2335 8.37888C 78.4381 8.82729 78.5404 9.37819 78.5404 10.0316C 78.5404 10.6081 78.4189 11.1462 78.176 11.6459C 77.9459 12.1327 77.6198 12.5619 77.1979 12.9334C 76.776 13.2922 76.2709 13.574 75.6828 13.779C 75.1074 13.984 74.4809 14.0865 73.8033 14.0865Z"/>
<path id="path14_fill" d="M 81.7178 0.172959L 83.3863 0.172959L 83.3863 13.9135L 81.7178 13.9135L 81.7178 0.172959Z"/>
<path id="path15_fill" d="M 87.1657 0.172959L 89.3329 0.172959L 96.0071 11.5306L 96.0071 0.172959L 97.5989 0.172959L 97.5989 13.9135L 95.6811 13.9135L 88.7575 2.13315L 88.7575 13.9135L 87.1657 13.9135L 87.1657 0.172959Z"/>
<path id="path16_fill" d="M 101.288 0.172959L 109.285 0.172959L 109.285 1.53741L 102.956 1.53741L 102.956 6.20729L 108.058 6.20729L 108.058 7.57174L 102.956 7.57174L 102.956 12.5491L 109.63 12.5491L 109.63 13.9135L 101.288 13.9135L 101.288 0.172959Z"/>
<path id="path17_fill" d="M 116.806 14.0865C 115.885 14.0865 115.105 13.9712 114.466 13.7406C 113.839 13.4972 113.321 13.1769 112.912 12.7797C 112.503 12.3825 112.19 11.9213 111.972 11.396C 111.768 10.8708 111.634 10.3134 111.57 9.72411L 113.181 9.72411C 113.232 10.1341 113.321 10.5248 113.449 10.8964C 113.577 11.2551 113.775 11.5754 114.044 11.8573C 114.312 12.1263 114.664 12.3441 115.099 12.5107C 115.546 12.6644 116.115 12.7413 116.806 12.7413C 117.24 12.7413 117.649 12.6836 118.033 12.5683C 118.417 12.4402 118.749 12.2608 119.03 12.0302C 119.312 11.7996 119.529 11.5242 119.682 11.2039C 119.849 10.8836 119.932 10.5312 119.932 10.1469C 119.932 9.76254 119.88 9.42944 119.778 9.14758C 119.676 8.85291 119.497 8.60308 119.241 8.39809C 118.998 8.19311 118.659 8.02015 118.225 7.87922C 117.803 7.73829 117.266 7.61658 116.614 7.51408C 115.898 7.39878 115.252 7.25144 114.677 7.07208C 114.114 6.89272 113.635 6.6621 113.238 6.38025C 112.842 6.08558 112.541 5.72685 112.337 5.30406C 112.132 4.86846 112.03 4.34318 112.03 3.72822C 112.03 3.20293 112.139 2.71609 112.356 2.26768C 112.573 1.80645 112.874 1.40929 113.257 1.07619C 113.654 0.743081 114.12 0.48044 114.657 0.288264C 115.194 0.0960879 115.789 0 116.441 0C 117.822 0 118.915 0.326699 119.721 0.980098C 120.539 1.62068 121.018 2.55594 121.159 3.78587L 119.663 3.78587C 119.497 2.91467 119.158 2.2933 118.647 1.92176C 118.135 1.53741 117.4 1.34523 116.441 1.34523C 115.495 1.34523 114.779 1.55663 114.293 1.97941C 113.82 2.38939 113.583 2.92108 113.583 3.57447C 113.583 3.90758 113.622 4.20866 113.699 4.4777C 113.788 4.73394 113.948 4.95814 114.178 5.15032C 114.421 5.34249 114.753 5.51545 115.175 5.66919C 115.61 5.81012 116.179 5.93183 116.882 6.03433C 117.649 6.14963 118.321 6.30338 118.896 6.49555C 119.471 6.68773 119.957 6.93756 120.354 7.24504C 120.75 7.55252 121.044 7.93047 121.236 8.37888C 121.44 8.82729 121.543 9.37819 121.543 10.0316C 121.543 10.6081 121.421 11.1462 121.178 11.6459C 120.948 12.1327 120.622 12.5619 120.2 12.9334C 119.778 13.2922 119.273 13.574 118.685 13.779C 118.11 13.984 117.483 14.0865 116.806 14.0865Z"/>
<path id="path18_fill" d="M 128.773 14.0865C 127.853 14.0865 127.073 13.9712 126.434 13.7406C 125.807 13.4972 125.289 13.1769 124.88 12.7797C 124.471 12.3825 124.158 11.9213 123.94 11.396C 123.736 10.8708 123.602 10.3134 123.538 9.72411L 125.149 9.72411C 125.2 10.1341 125.289 10.5248 125.417 10.8964C 125.545 11.2551 125.743 11.5754 126.012 11.8573C 126.28 12.1263 126.632 12.3441 127.067 12.5107C 127.514 12.6644 128.083 12.7413 128.773 12.7413C 129.208 12.7413 129.617 12.6836 130.001 12.5683C 130.384 12.4402 130.717 12.2608 130.998 12.0302C 131.279 11.7996 131.497 11.5242 131.65 11.2039C 131.816 10.8836 131.9 10.5312 131.9 10.1469C 131.9 9.76254 131.848 9.42944 131.746 9.14758C 131.644 8.85291 131.465 8.60308 131.209 8.39809C 130.966 8.19311 130.627 8.02015 130.193 7.87922C 129.771 7.73829 129.234 7.61658 128.582 7.51408C 127.866 7.39878 127.22 7.25144 126.645 7.07208C 126.082 6.89272 125.603 6.6621 125.206 6.38025C 124.81 6.08558 124.509 5.72685 124.305 5.30406C 124.1 4.86846 123.998 4.34318 123.998 3.72822C 123.998 3.20293 124.107 2.71609 124.324 2.26768C 124.541 1.80645 124.842 1.40929 125.225 1.07619C 125.622 0.743081 126.088 0.48044 126.625 0.288264C 127.162 0.0960879 127.757 0 128.409 0C 129.79 0 130.883 0.326699 131.689 0.980098C 132.507 1.62068 132.986 2.55594 133.127 3.78587L 131.631 3.78587C 131.465 2.91467 131.126 2.2933 130.615 1.92176C 130.103 1.53741 129.368 1.34523 128.409 1.34523C 127.463 1.34523 126.747 1.55663 126.261 1.97941C 125.788 2.38939 125.551 2.92108 125.551 3.57447C 125.551 3.90758 125.59 4.20866 125.667 4.4777C 125.756 4.73394 125.916 4.95814 126.146 5.15032C 126.389 5.34249 126.721 5.51545 127.143 5.66919C 127.578 5.81012 128.147 5.93183 128.85 6.03433C 129.617 6.14963 130.289 6.30338 130.864 6.49555C 131.439 6.68773 131.925 6.93756 132.322 7.24504C 132.718 7.55252 133.012 7.93047 133.204 8.37888C 133.408 8.82729 133.511 9.37819 133.511 10.0316C 133.511 10.6081 133.389 11.1462 133.146 11.6459C 132.916 12.1327 132.59 12.5619 132.168 12.9334C 131.746 13.2922 131.241 13.574 130.653 13.779C 130.078 13.984 129.451 14.0865 128.773 14.0865Z"/>
</defs>
</svg>
