<svg width="210" height="16" viewBox="0 0 210 16" version="1.1" xmlns="http://www.w3.org/2000/svg" xmlns:xlink="http://www.w3.org/1999/xlink">
<title>Union</title>
<desc>Created using Figma</desc>
<g id="Canvas" transform="translate(-4098 15292)">
<g id="Union">
<use xlink:href="#path0_fill" transform="translate(4098.46 -15291.3)" fill="#BDBDBD"/>
</g>
</g>
<defs>
<path id="path0_fill" fill-rule="evenodd" d="M 6.37988 0L 0 0L 0 14.2998L 6.43994 14.2998C 8.21338 14.2998 9.52002 13.96 10.3599 13.2803C 11.2134 12.5869 11.6401 11.5996 11.6401 10.3203L 11.6401 10.2402C 11.6401 9.24023 11.3799 8.47363 10.8599 7.94043C 10.3535 7.39355 9.66016 7.04688 8.77979 6.90039C 9.59326 6.68652 10.2002 6.32715 10.6001 5.82031C 11 5.2998 11.2002 4.63379 11.2002 3.82031L 11.2002 3.74023C 11.2002 3.17969 11.1064 2.67285 10.9199 2.21973C 10.7334 1.7666 10.4468 1.37305 10.0601 1.04004C 9.67334 0.707031 9.17334 0.453125 8.56006 0.280273C 7.94678 0.09375 7.22021 0 6.37988 0ZM 7.14014 11.1396C 6.8335 11.4199 6.35352 11.5596 5.7002 11.5596L 4 11.5596L 4 8.17969L 5.58008 8.17969C 6.2998 8.17969 6.81348 8.32031 7.12012 8.59961C 7.43994 8.86621 7.6001 9.27344 7.6001 9.82031L 7.6001 9.90039C 7.6001 10.4336 7.44678 10.8467 7.14014 11.1396ZM 6.91992 5.33984C 6.65332 5.56641 6.2002 5.67969 5.56006 5.67969L 4 5.67969L 4 2.71973L 5.56006 2.71973C 6.18652 2.71973 6.6333 2.83301 6.8999 3.05957C 7.18018 3.28711 7.31982 3.64648 7.31982 4.13965L 7.31982 4.21973C 7.31982 4.72656 7.18652 5.09961 6.91992 5.33984ZM 16.3481 14.2002C 17.0415 14.4268 17.8013 14.54 18.6279 14.54C 20.2148 14.54 21.4546 14.2197 22.3481 13.5801C 23.2417 12.9404 23.7681 12.0264 23.9282 10.8398L 20.5684 10.8398C 20.5015 11.1865 20.3281 11.4805 20.0483 11.7197C 19.7812 11.96 19.3481 12.0801 18.748 12.0801C 18.1079 12.0801 17.5947 11.8936 17.208 11.5195C 16.835 11.1338 16.6216 10.5938 16.5684 9.90039L 23.9282 9.90039L 23.9282 8.95996C 23.9282 8.02637 23.7812 7.21973 23.4883 6.54004C 23.208 5.86035 22.8281 5.2998 22.3481 4.86035C 21.855 4.41992 21.2881 4.09375 20.6479 3.87988C 20.0083 3.66699 19.3281 3.55957 18.6079 3.55957C 17.8213 3.55957 17.0815 3.68652 16.3882 3.94043C 15.6948 4.19336 15.0947 4.55957 14.5879 5.04004C 14.0815 5.51953 13.6816 6.09961 13.3882 6.78027C 13.0947 7.44629 12.9482 8.2002 12.9482 9.04004L 12.9482 9.2002C 12.9482 10.0537 13.0879 10.8135 13.3682 11.4805C 13.6616 12.1465 14.0615 12.707 14.5684 13.1602C 15.0615 13.6133 15.6548 13.96 16.3481 14.2002ZM 19.9482 6.41992C 20.2549 6.75293 20.4214 7.24023 20.4482 7.87988L 16.6079 7.87988C 16.7017 7.24023 16.9214 6.75293 17.2681 6.41992C 17.6147 6.08691 18.0615 5.91992 18.6079 5.91992C 19.1948 5.91992 19.6416 6.08691 19.9482 6.41992ZM 28.6748 14.54C 28.208 14.54 27.7612 14.4805 27.3345 14.3604C 26.9082 14.2402 26.5347 14.0537 26.2148 13.7998C 25.8813 13.5469 25.6147 13.2266 25.4146 12.8398C 25.228 12.4404 25.1348 11.96 25.1348 11.4004C 25.1348 10.1729 25.6216 9.2998 26.5947 8.78027C 27.5815 8.24707 28.9482 7.98047 30.6948 7.98047L 31.6948 7.98047L 31.6948 7.74023C 31.6948 7.2334 31.6079 6.83301 31.4346 6.54004C 31.2612 6.2334 30.8882 6.08008 30.3145 6.08008C 29.8213 6.08008 29.4683 6.20703 29.2549 6.45996C 29.0547 6.7002 28.9346 6.98633 28.8945 7.32031L 25.5347 7.32031C 25.5747 6.69336 25.7212 6.14648 25.9746 5.67969C 26.2412 5.2002 26.5947 4.7998 27.0347 4.48047C 27.4614 4.17285 27.9683 3.94629 28.5547 3.7998C 29.1548 3.63965 29.8145 3.55957 30.5347 3.55957C 31.2549 3.55957 31.9014 3.63965 32.4746 3.7998C 33.0615 3.94629 33.5615 4.17969 33.9746 4.5C 34.3882 4.82031 34.7012 5.2334 34.9146 5.74023C 35.1411 6.2334 35.2549 6.82715 35.2549 7.51953L 35.2549 14.2998L 31.7749 14.2998L 31.7749 13.0801C 31.5215 13.4668 31.1479 13.8066 30.6548 14.0996C 30.1748 14.3936 29.5146 14.54 28.6748 14.54ZM 29.9146 12.1201C 30.4214 12.1201 30.8413 11.9863 31.1748 11.7197C 31.5215 11.4531 31.6948 11.0938 31.6948 10.6396L 31.6948 10L 30.7549 10C 30.0347 10 29.5078 10.0869 29.1748 10.2598C 28.8413 10.4199 28.6748 10.7129 28.6748 11.1396C 28.6748 11.4463 28.7749 11.6865 28.9746 11.8604C 29.1748 12.0332 29.4878 12.1201 29.9146 12.1201ZM 40.2134 14.2002C 40.8799 14.4268 41.6069 14.54 42.3936 14.54C 44.0869 14.54 45.3735 14.1465 46.2534 13.3604C 47.1333 12.5596 47.6001 11.5 47.6533 10.1797L 44.4336 10.1797C 44.3667 10.7529 44.1733 11.1865 43.8535 11.4805C 43.5332 11.7734 43.1201 11.9199 42.6133 11.9199C 41.9336 11.9199 41.4199 11.6934 41.0732 11.2402C 40.7266 10.7734 40.5532 10.0801 40.5532 9.16016L 40.5532 9C 40.5532 8.12012 40.7266 7.45996 41.0732 7.01953C 41.4199 6.56641 41.9136 6.33984 42.5532 6.33984C 43.0732 6.33984 43.46 6.47363 43.7134 6.74023C 43.98 6.99316 44.1533 7.36621 44.2334 7.86035L 47.5933 7.86035C 47.54 7.05957 47.3599 6.38672 47.0532 5.83984C 46.7603 5.29297 46.3799 4.84668 45.9136 4.5C 45.4468 4.16699 44.9136 3.92676 44.3135 3.78027C 43.7266 3.63379 43.1133 3.55957 42.4736 3.55957C 41.7002 3.55957 40.9736 3.68652 40.2935 3.94043C 39.627 4.17969 39.04 4.5332 38.5332 5C 38.0269 5.4668 37.627 6.04004 37.3335 6.71973C 37.04 7.40039 36.8936 8.17285 36.8936 9.04004L 36.8936 9.2002C 36.8936 10.0801 37.0332 10.8535 37.3135 11.5195C 37.5933 12.1865 37.98 12.7402 38.4736 13.1797C 38.9668 13.6338 39.5469 13.9736 40.2134 14.2002ZM 54.4497 11.8799C 55.1299 11.8799 55.6431 11.6465 55.9897 11.1797C 56.3364 10.7002 56.5098 10.0195 56.5098 9.13965L 56.5098 8.98047C 56.5098 8.09961 56.3364 7.42676 55.9897 6.95996C 55.6431 6.48047 55.1299 6.24023 54.4497 6.24023C 53.77 6.24023 53.25 6.47363 52.8896 6.94043C 52.543 7.39355 52.3696 8.05957 52.3696 8.94043L 52.3696 9.09961C 52.3696 10.0068 52.543 10.7002 52.8896 11.1797C 53.2363 11.6465 53.7563 11.8799 54.4497 11.8799ZM 54.4297 14.54C 53.6299 14.54 52.8765 14.4199 52.1699 14.1797C 51.4766 13.9404 50.8765 13.5938 50.3696 13.1396C 49.8496 12.6865 49.4434 12.127 49.1499 11.46C 48.8564 10.793 48.71 10.04 48.71 9.2002L 48.71 9.04004C 48.71 8.2002 48.8564 7.44629 49.1499 6.78027C 49.4434 6.09961 49.8496 5.51953 50.3696 5.04004C 50.8765 4.55957 51.4766 4.19336 52.1699 3.94043C 52.8765 3.68652 53.6367 3.55957 54.4497 3.55957C 55.25 3.55957 55.9966 3.68652 56.6899 3.94043C 57.3965 4.17969 58.0034 4.5332 58.5098 5C 59.0166 5.4668 59.4165 6.0332 59.71 6.7002C 60.0034 7.36621 60.1499 8.11328 60.1499 8.94043L 60.1499 9.09961C 60.1499 9.95312 60.0034 10.7197 59.71 11.4004C 59.4165 12.0664 59.0166 12.6338 58.5098 13.0996C 57.9897 13.5664 57.3765 13.9268 56.6699 14.1797C 55.9766 14.4199 55.23 14.54 54.4297 14.54ZM 65.4473 3.83984L 61.8677 3.83984L 61.8677 14.2998L 65.4473 14.2998L 65.4473 8.44043C 65.4473 7.75977 65.6074 7.25977 65.9277 6.94043C 66.2607 6.62012 66.6943 6.45996 67.2275 6.45996C 67.7476 6.45996 68.1274 6.60645 68.3677 6.90039C 68.6074 7.17969 68.7275 7.62012 68.7275 8.21973L 68.7275 14.2998L 72.3076 14.2998L 72.3076 7.5C 72.3076 6.16699 71.9873 5.17969 71.3477 4.54004C 70.7207 3.88672 69.9009 3.55957 68.8877 3.55957C 68.0073 3.55957 67.2808 3.75293 66.7075 4.13965C 66.1475 4.51367 65.7275 4.97363 65.4473 5.51953L 65.4473 3.83984ZM 78.7695 0L 84.1094 0L 86.8496 7.62012L 89.5894 0L 94.8296 0L 94.8296 14.2998L 90.7495 14.2998L 90.7495 5.40039L 87.2495 14.2998L 85.8896 14.2998L 82.4297 5.40039L 82.4297 14.2998L 78.7695 14.2998L 78.7695 0ZM 100.196 14.2002C 100.889 14.4268 101.649 14.54 102.476 14.54C 104.062 14.54 105.302 14.2197 106.196 13.5801C 107.089 12.9404 107.616 12.0264 107.776 10.8398L 104.416 10.8398C 104.349 11.1865 104.176 11.4805 103.896 11.7197C 103.629 11.96 103.196 12.0801 102.596 12.0801C 101.956 12.0801 101.442 11.8936 101.056 11.5195C 100.683 11.1338 100.469 10.5938 100.416 9.90039L 107.776 9.90039L 107.776 8.95996C 107.776 8.02637 107.629 7.21973 107.336 6.54004C 107.056 5.86035 106.676 5.2998 106.196 4.86035C 105.703 4.41992 105.136 4.09375 104.496 3.87988C 103.856 3.66699 103.176 3.55957 102.456 3.55957C 101.669 3.55957 100.929 3.68652 100.236 3.94043C 99.5425 4.19336 98.9424 4.55957 98.4355 5.04004C 97.9292 5.51953 97.5293 6.09961 97.2358 6.78027C 96.9424 7.44629 96.7959 8.2002 96.7959 9.04004L 96.7959 9.2002C 96.7959 10.0537 96.9355 10.8135 97.2158 11.4805C 97.5093 12.1465 97.9092 12.707 98.416 13.1602C 98.9092 13.6133 99.5024 13.96 100.196 14.2002ZM 103.796 6.41992C 104.103 6.75293 104.269 7.24023 104.296 7.87988L 100.456 7.87988C 100.549 7.24023 100.769 6.75293 101.116 6.41992C 101.462 6.08691 101.909 5.91992 102.456 5.91992C 103.042 5.91992 103.489 6.08691 103.796 6.41992ZM 130.057 12.4805C 130.577 12.4805 131.041 12.3896 131.448 12.208C 131.864 12.0166 132.215 11.7568 132.501 11.4277C 132.787 11.0898 133.008 10.6865 133.164 10.2188C 133.32 9.75098 133.398 9.23535 133.398 8.67188L 133.398 8.56738C 133.398 8.04785 133.32 7.55762 133.164 7.09863C 133.017 6.63965 132.8 6.24023 132.514 5.90234C 132.228 5.56445 131.877 5.2959 131.461 5.09668C 131.045 4.89746 130.568 4.79785 130.031 4.79785C 129.494 4.79785 129.013 4.89258 128.588 5.08398C 128.164 5.26562 127.804 5.52539 127.509 5.86328C 127.223 6.20215 127.002 6.60449 126.846 7.07227C 126.699 7.53223 126.625 8.03906 126.625 8.59375L 126.625 8.69727C 126.625 9.26074 126.712 9.77637 126.885 10.2451C 127.067 10.7041 127.31 11.1025 127.613 11.4404C 127.925 11.7705 128.289 12.0254 128.705 12.208C 129.121 12.3896 129.572 12.4805 130.057 12.4805ZM 130.057 13.417C 129.373 13.417 128.744 13.2949 128.172 13.0527C 127.609 12.8018 127.124 12.4629 126.716 12.0391C 126.317 11.6143 126.005 11.1152 125.78 10.5439C 125.563 9.97168 125.455 9.36035 125.455 8.71094L 125.455 8.60645C 125.455 7.94824 125.563 7.33301 125.78 6.76074C 126.005 6.17969 126.317 5.67773 126.716 5.25293C 127.124 4.82812 127.604 4.49414 128.159 4.25195C 128.723 4.00879 129.347 3.8877 130.031 3.8877C 130.716 3.8877 131.335 4.00879 131.89 4.25195C 132.445 4.49414 132.921 4.82812 133.32 5.25293C 133.719 5.67773 134.026 6.17578 134.243 6.74805C 134.46 7.31934 134.568 7.93066 134.568 8.58105L 134.568 8.68457C 134.568 9.34375 134.46 9.95898 134.243 10.5303C 134.026 11.1025 133.719 11.6055 133.32 12.0391C 132.93 12.4629 132.458 12.8018 131.903 13.0527C 131.349 13.2949 130.733 13.417 130.057 13.417ZM 118.788 4.00488L 124.222 4.00488L 124.222 4.92773L 119.919 4.92773L 119.919 8.2168L 123.273 8.2168L 123.273 9.13965L 119.919 9.13965L 119.919 13.2998L 118.788 13.2998L 118.788 4.00488ZM 139.407 4.00488L 136.612 4.00488L 136.612 13.2998L 137.743 13.2998L 137.743 9.25684L 139.173 9.25684L 141.942 13.2998L 143.203 13.2998L 140.356 9.17871C 140.677 9.11816 140.976 9.02246 141.253 8.89258C 141.531 8.7627 141.773 8.59766 141.981 8.39844C 142.189 8.19043 142.354 7.94336 142.475 7.65723C 142.597 7.36328 142.657 7.02539 142.657 6.64355L 142.657 6.5918C 142.657 6.12402 142.571 5.72949 142.397 5.40918C 142.224 5.0791 141.99 4.81055 141.695 4.60254C 141.401 4.39453 141.054 4.24316 140.655 4.14746C 140.265 4.05273 139.849 4.00488 139.407 4.00488ZM 141.006 7.93066C 140.66 8.2168 140.153 8.35938 139.485 8.35938L 137.743 8.35938L 137.743 4.91504L 139.485 4.91504C 139.797 4.91504 140.079 4.94531 140.33 5.00586C 140.59 5.05762 140.807 5.14844 140.98 5.27832C 141.154 5.40918 141.288 5.58203 141.383 5.79883C 141.479 6.01562 141.526 6.2793 141.526 6.5918L 141.526 6.64355C 141.526 7.21582 141.353 7.64453 141.006 7.93066ZM 148.368 4.00488L 151.163 4.00488C 151.597 4.00488 151.995 4.04395 152.359 4.12207C 152.723 4.19922 153.04 4.33398 153.308 4.52441C 153.577 4.70703 153.785 4.9541 153.932 5.26562C 154.08 5.56934 154.153 5.9502 154.153 6.41016L 154.153 6.46191C 154.153 6.88672 154.049 7.27637 153.841 7.63184C 153.642 7.97852 153.278 8.24316 152.749 8.4248C 153.425 8.58984 153.902 8.84961 154.179 9.20508C 154.465 9.55957 154.608 10.041 154.608 10.6475L 154.608 10.6992C 154.608 11.1416 154.535 11.5273 154.387 11.8564C 154.249 12.1777 154.045 12.4463 153.776 12.6631C 153.507 12.8711 153.187 13.0312 152.814 13.1436C 152.441 13.248 152.021 13.2998 151.553 13.2998L 148.368 13.2998L 148.368 4.00488ZM 151.527 12.416C 152.203 12.416 152.702 12.2725 153.022 11.9863C 153.343 11.6924 153.503 11.2588 153.503 10.6865L 153.503 10.6348C 153.503 10.0625 153.334 9.6377 152.996 9.36035C 152.667 9.08301 152.125 8.94434 151.371 8.94434L 149.473 8.94434L 149.473 12.416L 151.527 12.416ZM 151.163 8.06055C 151.848 8.06055 152.333 7.93066 152.619 7.6709C 152.905 7.41113 153.048 6.99512 153.048 6.42285L 153.048 6.37109C 153.048 5.8418 152.892 5.46484 152.58 5.23926C 152.268 5.00586 151.787 4.88867 151.137 4.88867L 149.473 4.88867L 149.473 8.06055L 151.163 8.06055ZM 157.387 12.5195C 157.968 13.1182 158.796 13.417 159.871 13.417C 161.066 13.417 161.95 13.0918 162.522 12.4414C 163.103 11.792 163.394 10.8994 163.394 9.76367L 163.394 4.00488L 162.262 4.00488L 162.262 9.60742C 162.262 10.1797 162.206 10.6523 162.093 11.0244C 161.989 11.3887 161.833 11.6787 161.625 11.8955C 161.426 12.1123 161.179 12.2637 160.884 12.3506C 160.599 12.4375 160.269 12.4805 159.896 12.4805C 159.506 12.4805 159.168 12.4326 158.882 12.3379C 158.605 12.2334 158.375 12.0732 158.193 11.8564C 158.011 11.6396 157.877 11.3623 157.791 11.0244C 157.704 10.6777 157.661 10.2617 157.661 9.77637L 157.661 4.00488L 156.529 4.00488L 156.529 9.90625C 156.529 11.042 156.815 11.9131 157.387 12.5195ZM 168.814 13.417C 168.19 13.417 167.662 13.3389 167.229 13.1826C 166.804 13.0176 166.453 12.8018 166.175 12.5322C 165.898 12.2637 165.686 11.9521 165.539 11.5967C 165.4 11.2412 165.309 10.8643 165.266 10.4658L 166.357 10.4658C 166.392 10.7432 166.453 11.0078 166.54 11.2588C 166.626 11.501 166.761 11.7178 166.942 11.9092C 167.125 12.0908 167.363 12.2383 167.658 12.3506C 167.961 12.4551 168.347 12.5068 168.814 12.5068C 169.109 12.5068 169.387 12.4678 169.646 12.3896C 169.907 12.3027 170.132 12.1816 170.323 12.0254C 170.513 11.8701 170.661 11.6836 170.765 11.4668C 170.877 11.25 170.934 11.0117 170.934 10.752C 170.934 10.4912 170.899 10.2666 170.83 10.0762C 170.76 9.87598 170.639 9.70703 170.465 9.56836C 170.301 9.42969 170.071 9.31348 169.776 9.21777C 169.491 9.12207 169.126 9.04004 168.685 8.9707C 168.199 8.89258 167.762 8.79297 167.372 8.67188C 166.99 8.55078 166.665 8.39453 166.396 8.2041C 166.128 8.00391 165.924 7.76172 165.786 7.47559C 165.647 7.18066 165.578 6.82617 165.578 6.41016C 165.578 6.05469 165.651 5.72461 165.798 5.42188C 165.946 5.10938 166.149 4.84082 166.41 4.61523C 166.678 4.39062 166.995 4.21289 167.358 4.08301C 167.723 3.95312 168.125 3.8877 168.567 3.8877C 169.503 3.8877 170.245 4.1084 170.791 4.55078C 171.345 4.98438 171.67 5.61621 171.766 6.44824L 170.751 6.44824C 170.639 5.85938 170.409 5.43945 170.062 5.1875C 169.716 4.92773 169.217 4.79785 168.567 4.79785C 167.926 4.79785 167.441 4.94043 167.111 5.22656C 166.791 5.50391 166.63 5.86328 166.63 6.30566C 166.63 6.53125 166.657 6.73438 166.708 6.91699C 166.769 7.08984 166.877 7.24121 167.034 7.37207C 167.198 7.50195 167.423 7.61914 167.709 7.72266C 168.004 7.81836 168.39 7.90039 168.867 7.96973C 169.387 8.04785 169.841 8.15137 170.231 8.28125C 170.622 8.41211 170.951 8.58105 171.22 8.78906C 171.488 8.99707 171.688 9.25195 171.817 9.55566C 171.956 9.85938 172.025 10.2314 172.025 10.6738C 172.025 11.0635 171.943 11.4277 171.778 11.7656C 171.623 12.0947 171.401 12.3857 171.116 12.6367C 170.83 12.8789 170.487 13.0703 170.088 13.209C 169.699 13.3477 169.274 13.417 168.814 13.417ZM 175.31 4.00488L 174.179 4.00488L 174.179 13.2998L 175.31 13.2998L 175.31 4.00488ZM 177.872 4.00488L 179.341 4.00488L 183.865 11.6875L 183.865 4.00488L 184.944 4.00488L 184.944 13.2998L 183.644 13.2998L 178.951 5.33105L 178.951 13.2998L 177.872 13.2998L 177.872 4.00488ZM 192.865 4.00488L 187.444 4.00488L 187.444 13.2998L 193.099 13.2998L 193.099 12.377L 188.575 12.377L 188.575 9.00977L 192.033 9.00977L 192.033 8.08691L 188.575 8.08691L 188.575 4.92773L 192.865 4.92773L 192.865 4.00488ZM 197.963 13.417C 197.339 13.417 196.81 13.3389 196.377 13.1826C 195.952 13.0176 195.601 12.8018 195.324 12.5322C 195.046 12.2637 194.834 11.9521 194.687 11.5967C 194.548 11.2412 194.458 10.8643 194.414 10.4658L 195.506 10.4658C 195.541 10.7432 195.601 11.0078 195.688 11.2588C 195.774 11.501 195.909 11.7178 196.091 11.9092C 196.273 12.0908 196.511 12.2383 196.806 12.3506C 197.109 12.4551 197.495 12.5068 197.963 12.5068C 198.258 12.5068 198.535 12.4678 198.795 12.3896C 199.055 12.3027 199.28 12.1816 199.471 12.0254C 199.662 11.8701 199.809 11.6836 199.913 11.4668C 200.025 11.25 200.082 11.0117 200.082 10.752C 200.082 10.4912 200.047 10.2666 199.978 10.0762C 199.909 9.87598 199.787 9.70703 199.614 9.56836C 199.449 9.42969 199.22 9.31348 198.925 9.21777C 198.639 9.12207 198.275 9.04004 197.833 8.9707C 197.348 8.89258 196.91 8.79297 196.52 8.67188C 196.139 8.55078 195.813 8.39453 195.545 8.2041C 195.276 8.00391 195.073 7.76172 194.934 7.47559C 194.795 7.18066 194.726 6.82617 194.726 6.41016C 194.726 6.05469 194.8 5.72461 194.947 5.42188C 195.094 5.10938 195.298 4.84082 195.558 4.61523C 195.827 4.39062 196.143 4.21289 196.507 4.08301C 196.871 3.95312 197.274 3.8877 197.716 3.8877C 198.652 3.8877 199.393 4.1084 199.939 4.55078C 200.494 4.98438 200.819 5.61621 200.914 6.44824L 199.9 6.44824C 199.787 5.85938 199.558 5.43945 199.211 5.1875C 198.864 4.92773 198.366 4.79785 197.716 4.79785C 197.075 4.79785 196.589 4.94043 196.26 5.22656C 195.939 5.50391 195.779 5.86328 195.779 6.30566C 195.779 6.53125 195.805 6.73438 195.857 6.91699C 195.917 7.08984 196.026 7.24121 196.182 7.37207C 196.347 7.50195 196.572 7.61914 196.858 7.72266C 197.153 7.81836 197.538 7.90039 198.015 7.96973C 198.535 8.04785 198.99 8.15137 199.38 8.28125C 199.77 8.41211 200.099 8.58105 200.368 8.78906C 200.637 8.99707 200.836 9.25195 200.966 9.55566C 201.104 9.85938 201.174 10.2314 201.174 10.6738C 201.174 11.0635 201.092 11.4277 200.927 11.7656C 200.771 12.0947 200.55 12.3857 200.264 12.6367C 199.978 12.8789 199.636 13.0703 199.237 13.209C 198.847 13.3477 198.422 13.417 197.963 13.417ZM 204.489 13.1826C 204.922 13.3389 205.451 13.417 206.075 13.417C 206.535 13.417 206.959 13.3477 207.349 13.209C 207.748 13.0703 208.09 12.8789 208.376 12.6367C 208.662 12.3857 208.883 12.0947 209.039 11.7656C 209.204 11.4277 209.286 11.0635 209.286 10.6738C 209.286 10.2314 209.217 9.85938 209.078 9.55566C 208.948 9.25195 208.749 8.99707 208.48 8.78906C 208.211 8.58105 207.882 8.41211 207.492 8.28125C 207.102 8.15137 206.647 8.04785 206.127 7.96973C 205.65 7.90039 205.265 7.81836 204.97 7.72266C 204.684 7.61914 204.459 7.50195 204.294 7.37207C 204.138 7.24121 204.03 7.08984 203.969 6.91699C 203.917 6.73438 203.891 6.53125 203.891 6.30566C 203.891 5.86328 204.052 5.50391 204.372 5.22656C 204.702 4.94043 205.187 4.79785 205.828 4.79785C 206.478 4.79785 206.977 4.92773 207.323 5.1875C 207.67 5.43945 207.899 5.85938 208.012 6.44824L 209.026 6.44824C 208.931 5.61621 208.606 4.98438 208.051 4.55078C 207.505 4.1084 206.764 3.8877 205.828 3.8877C 205.386 3.8877 204.983 3.95312 204.619 4.08301C 204.255 4.21289 203.939 4.39062 203.67 4.61523C 203.41 4.84082 203.207 5.10938 203.059 5.42188C 202.912 5.72461 202.838 6.05469 202.838 6.41016C 202.838 6.82617 202.908 7.18066 203.046 7.47559C 203.185 7.76172 203.389 8.00391 203.657 8.2041C 203.926 8.39453 204.251 8.55078 204.632 8.67188C 205.022 8.79297 205.46 8.89258 205.945 8.9707C 206.387 9.04004 206.751 9.12207 207.037 9.21777C 207.332 9.31348 207.562 9.42969 207.726 9.56836C 207.899 9.70703 208.021 9.87598 208.09 10.0762C 208.16 10.2666 208.194 10.4912 208.194 10.752C 208.194 11.0117 208.138 11.25 208.025 11.4668C 207.921 11.6836 207.774 11.8701 207.583 12.0254C 207.393 12.1816 207.167 12.3027 206.907 12.3896C 206.647 12.4678 206.37 12.5068 206.075 12.5068C 205.607 12.5068 205.222 12.4551 204.918 12.3506C 204.624 12.2383 204.385 12.0908 204.203 11.9092C 204.021 11.7178 203.887 11.501 203.8 11.2588C 203.713 11.0078 203.653 10.7432 203.618 10.4658L 202.526 10.4658C 202.57 10.8643 202.661 11.2412 202.799 11.5967C 202.947 11.9521 203.159 12.2637 203.436 12.5322C 203.713 12.8018 204.064 13.0176 204.489 13.1826Z"/>
</defs>
</svg>
