<svg width="162" height="53" viewBox="0 0 162 53" version="1.1" xmlns="http://www.w3.org/2000/svg" xmlns:xlink="http://www.w3.org/1999/xlink">
<title>Logo</title>
<desc>Created using Figma</desc>
<g id="Canvas" transform="translate(3480 7735)">
<g id="Logo">
<g id="Beacon Me">
<use xlink:href="#path0_fill" transform="translate(-3482 -7738)" fill="#BDBDBD"/>
</g>
<g id="FOR BUSINESS">
<use xlink:href="#path1_fill" transform="translate(-3464 -7698)" fill="#BDBDBD"/>
</g>
</g>
</g>
<defs>
<path id="path0_fill" d="M 2.19 3.55L 11.76 3.55C 13.02 3.55 14.11 3.69 15.03 3.97C 15.95 4.23 16.7 4.61 17.28 5.11C 17.86 5.61 18.29 6.2 18.57 6.88C 18.85 7.56 18.99 8.32 18.99 9.16L 18.99 9.28C 18.99 10.5 18.69 11.5 18.09 12.28C 17.49 13.04 16.58 13.58 15.36 13.9C 16.68 14.12 17.72 14.64 18.48 15.46C 19.26 16.26 19.65 17.41 19.65 18.91L 19.65 19.03C 19.65 20.95 19.01 22.43 17.73 23.47C 16.47 24.49 14.51 25 11.85 25L 2.19 25L 2.19 3.55ZM 10.74 20.89C 11.72 20.89 12.44 20.68 12.9 20.26C 13.36 19.82 13.59 19.2 13.59 18.4L 13.59 18.28C 13.59 17.46 13.35 16.85 12.87 16.45C 12.41 16.03 11.64 15.82 10.56 15.82L 8.19 15.82L 8.19 20.89L 10.74 20.89ZM 10.53 12.07C 11.49 12.07 12.17 11.9 12.57 11.56C 12.97 11.2 13.17 10.64 13.17 9.88L 13.17 9.76C 13.17 9.02 12.96 8.48 12.54 8.14C 12.14 7.8 11.47 7.63 10.53 7.63L 8.19 7.63L 8.19 12.07L 10.53 12.07ZM 30.1322 25.36C 28.8922 25.36 27.7522 25.19 26.7122 24.85C 25.6722 24.49 24.7822 23.97 24.0422 23.29C 23.2822 22.61 22.6822 21.77 22.2422 20.77C 21.8222 19.77 21.6122 18.63 21.6122 17.35L 21.6122 17.11C 21.6122 15.85 21.8322 14.72 22.2722 13.72C 22.7122 12.7 23.3122 11.83 24.0722 11.11C 24.8322 10.39 25.7322 9.84 26.7722 9.46C 27.8122 9.08 28.9222 8.89 30.1022 8.89C 31.1822 8.89 32.2022 9.05 33.1622 9.37C 34.1222 9.69 34.9722 10.18 35.7122 10.84C 36.4322 11.5 37.0022 12.34 37.4222 13.36C 37.8622 14.38 38.0822 15.59 38.0822 16.99L 38.0822 18.4L 27.0422 18.4C 27.1222 19.44 27.4422 20.25 28.0022 20.83C 28.5822 21.39 29.3522 21.67 30.3122 21.67C 31.2122 21.67 31.8622 21.49 32.2622 21.13C 32.6822 20.77 32.9422 20.33 33.0422 19.81L 38.0822 19.81C 37.8422 21.59 37.0522 22.96 35.7122 23.92C 34.3722 24.88 32.5122 25.36 30.1322 25.36ZM 32.8622 15.37C 32.8222 14.41 32.5722 13.68 32.1122 13.18C 31.6522 12.68 30.9822 12.43 30.1022 12.43C 29.2822 12.43 28.6122 12.68 28.0922 13.18C 27.5722 13.68 27.2422 14.41 27.1022 15.37L 32.8622 15.37ZM 45.202 25.36C 44.502 25.36 43.832 25.27 43.192 25.09C 42.552 24.91 41.992 24.63 41.512 24.25C 41.012 23.87 40.612 23.39 40.312 22.81C 40.032 22.21 39.892 21.49 39.892 20.65C 39.892 18.81 40.622 17.5 42.082 16.72C 43.562 15.92 45.612 15.52 48.232 15.52L 49.732 15.52L 49.732 15.16C 49.732 14.4 49.602 13.8 49.342 13.36C 49.082 12.9 48.522 12.67 47.662 12.67C 46.922 12.67 46.392 12.86 46.072 13.24C 45.772 13.6 45.592 14.03 45.532 14.53L 40.492 14.53C 40.552 13.59 40.772 12.77 41.152 12.07C 41.552 11.35 42.082 10.75 42.742 10.27C 43.382 9.81 44.142 9.47 45.022 9.25C 45.922 9.01 46.912 8.89 47.992 8.89C 49.072 8.89 50.042 9.01 50.902 9.25C 51.782 9.47 52.532 9.82 53.152 10.3C 53.772 10.78 54.242 11.4 54.562 12.16C 54.902 12.9 55.072 13.79 55.072 14.83L 55.072 25L 49.852 25L 49.852 23.17C 49.472 23.75 48.912 24.26 48.172 24.7C 47.452 25.14 46.462 25.36 45.202 25.36ZM 47.062 21.73C 47.822 21.73 48.452 21.53 48.952 21.13C 49.472 20.73 49.732 20.19 49.732 19.51L 49.732 18.55L 48.322 18.55C 47.242 18.55 46.452 18.68 45.952 18.94C 45.452 19.18 45.202 19.62 45.202 20.26C 45.202 20.72 45.352 21.08 45.652 21.34C 45.952 21.6 46.422 21.73 47.062 21.73ZM 65.7802 25.36C 64.6002 25.36 63.5102 25.19 62.5102 24.85C 61.5102 24.51 60.6402 24 59.9002 23.32C 59.1602 22.66 58.5802 21.83 58.1602 20.83C 57.7402 19.83 57.5302 18.67 57.5302 17.35L 57.5302 17.11C 57.5302 15.81 57.7502 14.65 58.1902 13.63C 58.6302 12.61 59.2302 11.75 59.9902 11.05C 60.7502 10.35 61.6302 9.82 62.6302 9.46C 63.6502 9.08 64.7402 8.89 65.9002 8.89C 66.8602 8.89 67.7802 9 68.6602 9.22C 69.5602 9.44 70.3602 9.8 71.0602 10.3C 71.7602 10.82 72.3302 11.49 72.7702 12.31C 73.2302 13.13 73.5002 14.14 73.5802 15.34L 68.5402 15.34C 68.4202 14.6 68.1602 14.04 67.7602 13.66C 67.3802 13.26 66.8002 13.06 66.0202 13.06C 65.0602 13.06 64.3202 13.4 63.8002 14.08C 63.2802 14.74 63.0202 15.73 63.0202 17.05L 63.0202 17.29C 63.0202 18.67 63.2802 19.71 63.8002 20.41C 64.3202 21.09 65.0902 21.43 66.1102 21.43C 66.8702 21.43 67.4902 21.21 67.9702 20.77C 68.4502 20.33 68.7402 19.68 68.8402 18.82L 73.6702 18.82C 73.5902 20.8 72.8902 22.39 71.5702 23.59C 70.2502 24.77 68.3202 25.36 65.7802 25.36ZM 83.8648 21.37C 84.8848 21.37 85.6548 21.02 86.1748 20.32C 86.6948 19.6 86.9548 18.58 86.9548 17.26L 86.9548 17.02C 86.9548 15.7 86.6948 14.69 86.1748 13.99C 85.6548 13.27 84.8848 12.91 83.8648 12.91C 82.8448 12.91 82.0648 13.26 81.5248 13.96C 81.0048 14.64 80.7448 15.64 80.7448 16.96L 80.7448 17.2C 80.7448 18.56 81.0048 19.6 81.5248 20.32C 82.0448 21.02 82.8248 21.37 83.8648 21.37ZM 83.8348 25.36C 82.6348 25.36 81.5048 25.18 80.4448 24.82C 79.4048 24.46 78.5048 23.94 77.7448 23.26C 76.9648 22.58 76.3548 21.74 75.9148 20.74C 75.4748 19.74 75.2548 18.61 75.2548 17.35L 75.2548 17.11C 75.2548 15.85 75.4748 14.72 75.9148 13.72C 76.3548 12.7 76.9648 11.83 77.7448 11.11C 78.5048 10.39 79.4048 9.84 80.4448 9.46C 81.5048 9.08 82.6448 8.89 83.8648 8.89C 85.0648 8.89 86.1848 9.08 87.2248 9.46C 88.2848 9.82 89.1948 10.35 89.9548 11.05C 90.7148 11.75 91.3148 12.6 91.7548 13.6C 92.1948 14.6 92.4148 15.72 92.4148 16.96L 92.4148 17.2C 92.4148 18.48 92.1948 19.63 91.7548 20.65C 91.3148 21.65 90.7148 22.5 89.9548 23.2C 89.1748 23.9 88.2548 24.44 87.1948 24.82C 86.1548 25.18 85.0348 25.36 83.8348 25.36ZM 94.9913 9.31L 100.361 9.31L 100.361 11.83C 100.781 11.01 101.411 10.32 102.251 9.76C 103.111 9.18 104.201 8.89 105.521 8.89C 107.041 8.89 108.271 9.38 109.211 10.36C 110.171 11.32 110.651 12.8 110.651 14.8L 110.651 25L 105.281 25L 105.281 15.88C 105.281 14.98 105.101 14.32 104.741 13.9C 104.381 13.46 103.811 13.24 103.031 13.24C 102.231 13.24 101.581 13.48 101.081 13.96C 100.601 14.44 100.361 15.19 100.361 16.21L 100.361 25L 94.9913 25L 94.9913 9.31ZM 120.344 3.55L 128.354 3.55L 132.464 14.98L 136.574 3.55L 144.434 3.55L 144.434 25L 138.314 25L 138.314 11.65L 133.064 25L 131.024 25L 125.834 11.65L 125.834 25L 120.344 25L 120.344 3.55ZM 155.904 25.36C 154.664 25.36 153.524 25.19 152.484 24.85C 151.444 24.49 150.554 23.97 149.814 23.29C 149.054 22.61 148.454 21.77 148.014 20.77C 147.594 19.77 147.384 18.63 147.384 17.35L 147.384 17.11C 147.384 15.85 147.604 14.72 148.044 13.72C 148.484 12.7 149.084 11.83 149.844 11.11C 150.604 10.39 151.504 9.84 152.544 9.46C 153.584 9.08 154.694 8.89 155.874 8.89C 156.954 8.89 157.974 9.05 158.934 9.37C 159.894 9.69 160.744 10.18 161.484 10.84C 162.204 11.5 162.774 12.34 163.194 13.36C 163.634 14.38 163.854 15.59 163.854 16.99L 163.854 18.4L 152.814 18.4C 152.894 19.44 153.214 20.25 153.774 20.83C 154.354 21.39 155.124 21.67 156.084 21.67C 156.984 21.67 157.634 21.49 158.034 21.13C 158.454 20.77 158.714 20.33 158.814 19.81L 163.854 19.81C 163.614 21.59 162.824 22.96 161.484 23.92C 160.144 24.88 158.284 25.36 155.904 25.36ZM 158.634 15.37C 158.594 14.41 158.344 13.68 157.884 13.18C 157.424 12.68 156.754 12.43 155.874 12.43C 155.054 12.43 154.384 12.68 153.864 13.18C 153.344 13.68 153.014 14.41 152.874 15.37L 158.634 15.37Z"/>
<path id="path1_fill" d="M 1.728 2.13L 9.252 2.13L 9.252 3.408L 3.294 3.408L 3.294 7.962L 7.938 7.962L 7.938 9.24L 3.294 9.24L 3.294 15L 1.728 15L 1.728 2.13ZM 17.3313 13.866C 18.0513 13.866 18.6933 13.74 19.2573 13.488C 19.8333 13.224 20.3193 12.864 20.7153 12.408C 21.1113 11.94 21.4173 11.382 21.6333 10.734C 21.8493 10.086 21.9573 9.372 21.9573 8.592L 21.9573 8.448C 21.9573 7.728 21.8493 7.05 21.6333 6.414C 21.4293 5.778 21.1293 5.226 20.7333 4.758C 20.3373 4.29 19.8513 3.918 19.2753 3.642C 18.6993 3.366 18.0393 3.228 17.2953 3.228C 16.5513 3.228 15.8853 3.36 15.2973 3.624C 14.7093 3.876 14.2113 4.236 13.8033 4.704C 13.4073 5.172 13.1013 5.73 12.8853 6.378C 12.6813 7.014 12.5793 7.716 12.5793 8.484L 12.5793 8.628C 12.5793 9.408 12.6993 10.122 12.9393 10.77C 13.1913 11.406 13.5273 11.958 13.9473 12.426C 14.3793 12.882 14.8833 13.236 15.4593 13.488C 16.0353 13.74 16.6593 13.866 17.3313 13.866ZM 17.3313 15.162C 16.3833 15.162 15.5133 14.994 14.7213 14.658C 13.9413 14.31 13.2693 13.842 12.7053 13.254C 12.1533 12.666 11.7213 11.976 11.4093 11.184C 11.1093 10.392 10.9593 9.546 10.9593 8.646L 10.9593 8.502C 10.9593 7.59 11.1093 6.738 11.4093 5.946C 11.7213 5.142 12.1533 4.446 12.7053 3.858C 13.2693 3.27 13.9353 2.808 14.7033 2.472C 15.4833 2.136 16.3473 1.968 17.2953 1.968C 18.2433 1.968 19.1013 2.136 19.8693 2.472C 20.6373 2.808 21.2973 3.27 21.8493 3.858C 22.4013 4.446 22.8273 5.136 23.1273 5.928C 23.4273 6.72 23.5773 7.566 23.5773 8.466L 23.5773 8.61C 23.5773 9.522 23.4273 10.374 23.1273 11.166C 22.8273 11.958 22.4013 12.654 21.8493 13.254C 21.3093 13.842 20.6553 14.31 19.8873 14.658C 19.1193 14.994 18.2673 15.162 17.3313 15.162ZM 26.4077 2.13L 30.2777 2.13C 30.8897 2.13 31.4657 2.196 32.0057 2.328C 32.5577 2.46 33.0377 2.67 33.4457 2.958C 33.8537 3.246 34.1777 3.618 34.4177 4.074C 34.6577 4.518 34.7777 5.064 34.7777 5.712L 34.7777 5.784C 34.7777 6.312 34.6937 6.78 34.5257 7.188C 34.3577 7.584 34.1297 7.926 33.8417 8.214C 33.5537 8.49 33.2177 8.718 32.8337 8.898C 32.4497 9.078 32.0357 9.21 31.5917 9.294L 35.5337 15L 33.7877 15L 29.9537 9.402L 27.9737 9.402L 27.9737 15L 26.4077 15L 26.4077 2.13ZM 30.3857 8.16C 31.3097 8.16 32.0117 7.962 32.4917 7.566C 32.9717 7.17 33.2117 6.576 33.2117 5.784L 33.2117 5.712C 33.2117 5.28 33.1457 4.914 33.0137 4.614C 32.8817 4.314 32.6957 4.074 32.4557 3.894C 32.2157 3.714 31.9157 3.588 31.5557 3.516C 31.2077 3.432 30.8177 3.39 30.3857 3.39L 27.9737 3.39L 27.9737 8.16L 30.3857 8.16ZM 42.685 2.13L 46.555 2.13C 47.155 2.13 47.707 2.184 48.211 2.292C 48.715 2.4 49.153 2.586 49.525 2.85C 49.897 3.102 50.185 3.444 50.389 3.876C 50.593 4.296 50.695 4.824 50.695 5.46L 50.695 5.532C 50.695 6.12 50.551 6.66 50.263 7.152C 49.987 7.632 49.483 7.998 48.751 8.25C 49.687 8.478 50.347 8.838 50.731 9.33C 51.127 9.822 51.325 10.488 51.325 11.328L 51.325 11.4C 51.325 12.012 51.223 12.546 51.019 13.002C 50.827 13.446 50.545 13.818 50.173 14.118C 49.801 14.406 49.357 14.628 48.841 14.784C 48.325 14.928 47.743 15 47.095 15L 42.685 15L 42.685 2.13ZM 47.059 13.776C 47.995 13.776 48.685 13.578 49.129 13.182C 49.573 12.774 49.795 12.174 49.795 11.382L 49.795 11.31C 49.795 10.518 49.561 9.93 49.093 9.546C 48.637 9.162 47.887 8.97 46.843 8.97L 44.215 8.97L 44.215 13.776L 47.059 13.776ZM 46.555 7.746C 47.503 7.746 48.175 7.566 48.571 7.206C 48.967 6.846 49.165 6.27 49.165 5.478L 49.165 5.406C 49.165 4.674 48.949 4.152 48.517 3.84C 48.085 3.516 47.419 3.354 46.519 3.354L 44.215 3.354L 44.215 7.746L 46.555 7.746ZM 58.6112 15.162C 57.1232 15.162 55.9772 14.748 55.1732 13.92C 54.3812 13.08 53.9852 11.874 53.9852 10.302L 53.9852 2.13L 55.5512 2.13L 55.5512 10.122C 55.5512 10.794 55.6112 11.37 55.7312 11.85C 55.8512 12.318 56.0372 12.702 56.2892 13.002C 56.5412 13.302 56.8592 13.524 57.2432 13.668C 57.6392 13.8 58.1072 13.866 58.6472 13.866C 59.1632 13.866 59.6192 13.806 60.0152 13.686C 60.4232 13.566 60.7652 13.356 61.0412 13.056C 61.3292 12.756 61.5452 12.354 61.6892 11.85C 61.8452 11.334 61.9232 10.68 61.9232 9.888L 61.9232 2.13L 63.4892 2.13L 63.4892 10.104C 63.4892 11.676 63.0872 12.912 62.2832 13.812C 61.4912 14.712 60.2672 15.162 58.6112 15.162ZM 70.9954 15.162C 70.1314 15.162 69.3994 15.054 68.7994 14.838C 68.2114 14.61 67.7254 14.31 67.3414 13.938C 66.9574 13.566 66.6634 13.134 66.4594 12.642C 66.2674 12.15 66.1414 11.628 66.0814 11.076L 67.5934 11.076C 67.6414 11.46 67.7254 11.826 67.8454 12.174C 67.9654 12.51 68.1514 12.81 68.4034 13.074C 68.6554 13.326 68.9854 13.53 69.3934 13.686C 69.8134 13.83 70.3474 13.902 70.9954 13.902C 71.4034 13.902 71.7874 13.848 72.1474 13.74C 72.5074 13.62 72.8194 13.452 73.0834 13.236C 73.3474 13.02 73.5514 12.762 73.6954 12.462C 73.8514 12.162 73.9294 11.832 73.9294 11.472C 73.9294 11.112 73.8814 10.8 73.7854 10.536C 73.6894 10.26 73.5214 10.026 73.2814 9.834C 73.0534 9.642 72.7354 9.48 72.3274 9.348C 71.9314 9.216 71.4274 9.102 70.8154 9.006C 70.1434 8.898 69.5374 8.76 68.9974 8.592C 68.4694 8.424 68.0194 8.208 67.6474 7.944C 67.2754 7.668 66.9934 7.332 66.8014 6.936C 66.6094 6.528 66.5134 6.036 66.5134 5.46C 66.5134 4.968 66.6154 4.512 66.8194 4.092C 67.0234 3.66 67.3054 3.288 67.6654 2.976C 68.0374 2.664 68.4754 2.418 68.9794 2.238C 69.4834 2.058 70.0414 1.968 70.6534 1.968C 71.9494 1.968 72.9754 2.274 73.7314 2.886C 74.4994 3.486 74.9494 4.362 75.0814 5.514L 73.6774 5.514C 73.5214 4.698 73.2034 4.116 72.7234 3.768C 72.2434 3.408 71.5534 3.228 70.6534 3.228C 69.7654 3.228 69.0934 3.426 68.6374 3.822C 68.1934 4.206 67.9714 4.704 67.9714 5.316C 67.9714 5.628 68.0074 5.91 68.0794 6.162C 68.1634 6.402 68.3134 6.612 68.5294 6.792C 68.7574 6.972 69.0694 7.134 69.4654 7.278C 69.8734 7.41 70.4074 7.524 71.0674 7.62C 71.7874 7.728 72.4174 7.872 72.9574 8.052C 73.4974 8.232 73.9534 8.466 74.3254 8.754C 74.6974 9.042 74.9734 9.396 75.1534 9.816C 75.3454 10.236 75.4414 10.752 75.4414 11.364C 75.4414 11.904 75.3274 12.408 75.0994 12.876C 74.8834 13.332 74.5774 13.734 74.1814 14.082C 73.7854 14.418 73.3114 14.682 72.7594 14.874C 72.2194 15.066 71.6314 15.162 70.9954 15.162ZM 78.4235 2.13L 79.9895 2.13L 79.9895 15L 78.4235 15L 78.4235 2.13ZM 83.5366 2.13L 85.5706 2.13L 91.8346 12.768L 91.8346 2.13L 93.3286 2.13L 93.3286 15L 91.5286 15L 85.0306 3.966L 85.0306 15L 83.5366 15L 83.5366 2.13ZM 96.7905 2.13L 104.297 2.13L 104.297 3.408L 98.3565 3.408L 98.3565 7.782L 103.145 7.782L 103.145 9.06L 98.3565 9.06L 98.3565 13.722L 104.621 13.722L 104.621 15L 96.7905 15L 96.7905 2.13ZM 111.355 15.162C 110.491 15.162 109.759 15.054 109.159 14.838C 108.571 14.61 108.085 14.31 107.701 13.938C 107.317 13.566 107.023 13.134 106.819 12.642C 106.627 12.15 106.501 11.628 106.441 11.076L 107.953 11.076C 108.001 11.46 108.085 11.826 108.205 12.174C 108.325 12.51 108.511 12.81 108.763 13.074C 109.015 13.326 109.345 13.53 109.753 13.686C 110.173 13.83 110.707 13.902 111.355 13.902C 111.763 13.902 112.147 13.848 112.507 13.74C 112.867 13.62 113.179 13.452 113.443 13.236C 113.707 13.02 113.911 12.762 114.055 12.462C 114.211 12.162 114.289 11.832 114.289 11.472C 114.289 11.112 114.241 10.8 114.145 10.536C 114.049 10.26 113.881 10.026 113.641 9.834C 113.413 9.642 113.095 9.48 112.687 9.348C 112.291 9.216 111.787 9.102 111.175 9.006C 110.503 8.898 109.897 8.76 109.357 8.592C 108.829 8.424 108.379 8.208 108.007 7.944C 107.635 7.668 107.353 7.332 107.161 6.936C 106.969 6.528 106.873 6.036 106.873 5.46C 106.873 4.968 106.975 4.512 107.179 4.092C 107.383 3.66 107.665 3.288 108.025 2.976C 108.397 2.664 108.835 2.418 109.339 2.238C 109.843 2.058 110.401 1.968 111.013 1.968C 112.309 1.968 113.335 2.274 114.091 2.886C 114.859 3.486 115.309 4.362 115.441 5.514L 114.037 5.514C 113.881 4.698 113.563 4.116 113.083 3.768C 112.603 3.408 111.913 3.228 111.013 3.228C 110.125 3.228 109.453 3.426 108.997 3.822C 108.553 4.206 108.331 4.704 108.331 5.316C 108.331 5.628 108.367 5.91 108.439 6.162C 108.523 6.402 108.673 6.612 108.889 6.792C 109.117 6.972 109.429 7.134 109.825 7.278C 110.233 7.41 110.767 7.524 111.427 7.62C 112.147 7.728 112.777 7.872 113.317 8.052C 113.857 8.232 114.313 8.466 114.685 8.754C 115.057 9.042 115.333 9.396 115.513 9.816C 115.705 10.236 115.801 10.752 115.801 11.364C 115.801 11.904 115.687 12.408 115.459 12.876C 115.243 13.332 114.937 13.734 114.541 14.082C 114.145 14.418 113.671 14.682 113.119 14.874C 112.579 15.066 111.991 15.162 111.355 15.162ZM 122.587 15.162C 121.723 15.162 120.991 15.054 120.391 14.838C 119.803 14.61 119.317 14.31 118.933 13.938C 118.549 13.566 118.255 13.134 118.051 12.642C 117.859 12.15 117.733 11.628 117.673 11.076L 119.185 11.076C 119.233 11.46 119.317 11.826 119.437 12.174C 119.557 12.51 119.743 12.81 119.995 13.074C 120.247 13.326 120.577 13.53 120.985 13.686C 121.405 13.83 121.939 13.902 122.587 13.902C 122.995 13.902 123.379 13.848 123.739 13.74C 124.099 13.62 124.411 13.452 124.675 13.236C 124.939 13.02 125.143 12.762 125.287 12.462C 125.443 12.162 125.521 11.832 125.521 11.472C 125.521 11.112 125.473 10.8 125.377 10.536C 125.281 10.26 125.113 10.026 124.873 9.834C 124.645 9.642 124.327 9.48 123.919 9.348C 123.523 9.216 123.019 9.102 122.407 9.006C 121.735 8.898 121.129 8.76 120.589 8.592C 120.061 8.424 119.611 8.208 119.239 7.944C 118.867 7.668 118.585 7.332 118.393 6.936C 118.201 6.528 118.105 6.036 118.105 5.46C 118.105 4.968 118.207 4.512 118.411 4.092C 118.615 3.66 118.897 3.288 119.257 2.976C 119.629 2.664 120.067 2.418 120.571 2.238C 121.075 2.058 121.633 1.968 122.245 1.968C 123.541 1.968 124.567 2.274 125.323 2.886C 126.091 3.486 126.541 4.362 126.673 5.514L 125.269 5.514C 125.113 4.698 124.795 4.116 124.315 3.768C 123.835 3.408 123.145 3.228 122.245 3.228C 121.357 3.228 120.685 3.426 120.229 3.822C 119.785 4.206 119.563 4.704 119.563 5.316C 119.563 5.628 119.599 5.91 119.671 6.162C 119.755 6.402 119.905 6.612 120.121 6.792C 120.349 6.972 120.661 7.134 121.057 7.278C 121.465 7.41 121.999 7.524 122.659 7.62C 123.379 7.728 124.009 7.872 124.549 8.052C 125.089 8.232 125.545 8.466 125.917 8.754C 126.289 9.042 126.565 9.396 126.745 9.816C 126.937 10.236 127.033 10.752 127.033 11.364C 127.033 11.904 126.919 12.408 126.691 12.876C 126.475 13.332 126.169 13.734 125.773 14.082C 125.377 14.418 124.903 14.682 124.351 14.874C 123.811 15.066 123.223 15.162 122.587 15.162Z"/>
</defs>
</svg>
