<svg width="32" height="32" viewBox="0 0 32 32" version="1.1" xmlns="http://www.w3.org/2000/svg" xmlns:xlink="http://www.w3.org/1999/xlink">
<title>Menu Item - 3 ON</title>
<desc>Created using Figma</desc>
<g id="Canvas" transform="translate(-4828 15300)">
<g id="Menu Item - 3 ON">
<clipPath id="clip-0" clip-rule="evenodd">
<path d="M 4828 -15300L 4860 -15300L 4860 -15268L 4828 -15268L 4828 -15300Z" fill="#FFFFFF"/>
</clipPath>
<g id="speech_buble" clip-path="url(#clip-0)">
<g id="Vector">
<use xlink:href="#path0_fill" transform="translate(4831 -15297)" fill="#14CC48"/>
</g>
<g id="Vector">
<use xlink:href="#path1_fill" transform="translate(4833 -15273)" fill="#14CC48"/>
</g>
</g>
</g>
</g>
<defs>
<path id="path0_fill" d="M 13 0C 5.82 0 0 4.925 0 11C 0 14.368 1.794 17.379 4.612 19.397C 4.684 20.934 4.445 23.057 2.322 24.034L 2.5 25C 4.953 25 7.035 23.676 8.469 22.278C 8.921 21.837 9.551 21.619 10.172 21.736C 11.082 21.909 12.028 22 13 22C 20.18 22 26 17.075 26 11C 26 4.925 20.18 0 13 0Z"/>
<path id="path1_fill" d="M 0.5 1C 0.776142 1 1 0.776142 1 0.5C 1 0.223858 0.776142 0 0.5 0C 0.223858 0 0 0.223858 0 0.5C 0 0.776142 0.223858 1 0.5 1Z"/>
</defs>
</svg>
