<svg width="140" height="140" viewBox="0 0 140 140" version="1.1" xmlns="http://www.w3.org/2000/svg" xmlns:xlink="http://www.w3.org/1999/xlink">
<title>no-photo</title>
<desc>Created using Figma</desc>
<g id="Canvas" transform="translate(-1259 1116)">
<g id="no-photo">
<g id="Rectangle">
<use xlink:href="#path0_fill" transform="translate(1259 -1116)" fill="#F8F8F8"/>
</g>
<g id="Group">
<g id="Canvas">
<g id="Union">
<g id="Vector">
<use xlink:href="#path1_fill" transform="translate(1301 -1078)" fill="#999999"/>
</g>
</g>
</g>
</g>
</g>
</g>
<defs>
<path id="path0_fill" d="M 0 8C 0 3.58172 3.58172 0 8 0L 132 0C 136.418 0 140 3.58172 140 8L 140 132C 140 136.418 136.418 140 132 140L 8 140C 3.58172 140 0 136.418 0 132L 0 8Z"/>
<path id="path1_fill" fill-rule="evenodd" d="M 50.6831 4.19515L 50.6831 20.8528L 53.3149 37.2929C 53.3477 37.4983 53.2988 37.7118 53.1772 37.8802C 53.0552 38.0486 52.8726 38.1635 52.6694 38.1964L 50.6792 38.525L 50.6792 41.3053C 50.6792 41.7406 50.3301 42.0938 49.8994 42.0938L 28.9141 42.0938L 8.20508 45.4902C 8.16064 45.4984 8.12012 45.5025 8.0791 45.5025C 7.70557 45.5025 7.37256 45.2274 7.31152 44.8413L 6.87305 42.0979L 4.85449 42.0979C 4.42432 42.0979 4.07471 41.7447 4.07471 41.3094L 4.07471 24.6518L 1.43896 8.20748C 1.40674 8.00216 1.45508 7.7886 1.57715 7.62026C 1.69873 7.45187 1.88184 7.33688 2.08496 7.30398L 4.07471 6.97549L 4.07471 4.19515C 4.07471 3.75985 4.42432 3.40664 4.85449 3.40664L 25.8359 3.40664L 46.5488 0.0102172C 46.9795 -0.0596071 47.3735 0.236108 47.4424 0.663232L 47.8853 3.40664L 49.9033 3.40664C 50.334 3.40664 50.6831 3.75985 50.6831 4.19515ZM 46.3091 3.40652L 46.0332 1.69399L 35.5835 3.40652L 46.3091 3.40652ZM 4.07959 8.57296L 3.10889 8.72903L 4.07959 14.7948L 4.07959 8.57296ZM 8.45752 42.0928L 8.73389 43.8053L 19.1792 42.0928L 8.45752 42.0928ZM 50.6841 30.7003L 50.6841 36.9263L 51.6587 36.7661L 50.6841 30.7003ZM 49.228 4.82583L 5.52637 4.82583L 5.52637 40.6763L 49.228 40.6763L 49.228 4.82583ZM 23.2803 18.9594L 24.6724 18.9594C 24.8115 17.1834 26 16.0594 27.7134 16.0594C 29.4375 16.0594 30.6475 17.2171 30.6475 18.8133C 30.6475 20.0498 30.144 20.8254 28.7949 21.7472C 27.2852 22.7588 26.6641 23.703 26.6748 25.1981L 26.6748 26.2547L 28.0986 26.2547L 28.0986 25.4116C 28.0986 24.1639 28.4951 23.5232 29.8979 22.579C 31.3647 21.5898 32.1572 20.4095 32.1572 18.7459C 32.1572 16.4528 30.3477 14.7217 27.7671 14.7217C 25.0044 14.7217 23.3979 16.5764 23.2803 18.9594ZM 27.5205 31.2681C 28.2383 31.2681 28.7627 30.706 28.7627 29.9529C 28.7627 29.1885 28.2383 28.6265 27.5205 28.6265C 26.7925 28.6265 26.2676 29.1885 26.2676 29.9529C 26.2676 30.706 26.7925 31.2681 27.5205 31.2681ZM 29.1279 63.8783L 30.2178 63.8783L 30.2178 59.7893C 30.2178 58.6229 30.8892 57.841 32.1118 57.841C 33.1445 57.841 33.6895 58.4499 33.6895 59.674L 33.6895 63.8783L 34.7788 63.8783L 34.7788 59.4048C 34.7788 57.7833 33.8667 56.8476 32.4224 56.8476C 31.377 56.8476 30.6611 57.2962 30.3188 58.0589L 30.2178 58.0589L 30.2178 54.2263L 29.1279 54.2263L 29.1279 63.8783ZM 1.12744 63.8783L 1.12744 56.7066L 1.229 56.7066L 6.18945 63.8783L 7.29785 63.8783L 7.29785 54.63L 6.17041 54.63L 6.17041 61.8274L 6.06885 61.8274L 1.1084 54.63L 0 54.63L 0 63.8783L 1.12744 63.8783ZM 12.2959 63.0067C 11.0039 63.0067 10.2754 62.0581 10.2754 60.4239C 10.2754 58.7831 11.0039 57.841 12.2959 57.841C 13.5884 57.841 14.3169 58.7831 14.3169 60.4239C 14.3169 62.0581 13.5884 63.0067 12.2959 63.0067ZM 12.2959 64.0001C 14.2407 64.0001 15.4448 62.6414 15.4448 60.4239C 15.4448 58.1999 14.2407 56.8476 12.2959 56.8476C 10.3511 56.8476 9.14746 58.1999 9.14746 60.4239C 9.14746 62.6414 10.3511 64.0001 12.2959 64.0001ZM 20.9561 63.8783L 20.9561 54.63L 24.4087 54.63C 26.1382 54.63 27.3354 55.8606 27.3354 57.6231C 27.3354 59.3535 26.1128 60.5777 24.396 60.5777L 22.0962 60.5777L 22.0962 63.8783L 20.9561 63.8783ZM 24.1108 55.6555L 22.0962 55.6555L 22.0962 59.5522L 24.1108 59.5522C 25.4097 59.5522 26.1631 58.8472 26.1631 57.6231C 26.1631 56.3541 25.4346 55.6555 24.1108 55.6555ZM 37.5537 60.4239C 37.5537 62.0581 38.2822 63.0067 39.5742 63.0067C 40.8667 63.0067 41.5952 62.0581 41.5952 60.4239C 41.5952 58.7831 40.8667 57.841 39.5742 57.841C 38.2822 57.841 37.5537 58.7831 37.5537 60.4239ZM 42.7227 60.4239C 42.7227 62.6414 41.519 64.0001 39.5742 64.0001C 37.6294 64.0001 36.4258 62.6414 36.4258 60.4239C 36.4258 58.1999 37.6294 56.8476 39.5742 56.8476C 41.519 56.8476 42.7227 58.1999 42.7227 60.4239ZM 44.8896 55.1812L 44.8896 56.9693L 43.7871 56.9693L 43.7871 57.8922L 44.8896 57.8922L 44.8896 62.0838C 44.8896 63.404 45.4531 63.9296 46.8594 63.9296C 47.0752 63.9296 47.2842 63.904 47.4995 63.8655L 47.4995 62.9362C 47.2969 62.9554 47.189 62.9618 46.9927 62.9618C 46.2832 62.9618 45.979 62.6157 45.979 61.8018L 45.979 57.8922L 47.4995 57.8922L 47.4995 56.9693L 45.979 56.9693L 45.979 55.1812L 44.8896 55.1812ZM 49.8306 60.4239C 49.8306 62.0581 50.5591 63.0067 51.8516 63.0067C 53.144 63.0067 53.8726 62.0581 53.8726 60.4239C 53.8726 58.7831 53.144 57.841 51.8516 57.841C 50.5591 57.841 49.8306 58.7831 49.8306 60.4239ZM 55 60.4239C 55 62.6414 53.7964 64.0001 51.8516 64.0001C 49.9067 64.0001 48.7031 62.6414 48.7031 60.4239C 48.7031 58.1999 49.9067 56.8476 51.8516 56.8476C 53.7964 56.8476 55 58.1999 55 60.4239Z"/>
</defs>
</svg>
