<svg width="40" height="40" viewBox="0 0 40 40" version="1.1" xmlns="http://www.w3.org/2000/svg" xmlns:xlink="http://www.w3.org/1999/xlink">
<title>np_copy_541275_000000</title>
<desc>Created using Figma</desc>
<g id="Canvas" transform="translate(-15220 -7800)">
<g id="np_copy_541275_000000">
<g id="Group">
<g id="Vector">
<use xlink:href="#path0_fill" transform="translate(15220 7807.27)" fill="#DBDBDB"/>
</g>
<g id="Vector">
<use xlink:href="#path1_fill" transform="translate(15227.3 7800)" fill="#DBDBDB"/>
</g>
<g id="Vector">
<use xlink:href="#path2_fill" transform="translate(15229.1 7816.36)" fill="#DBDBDB"/>
</g>
</g>
</g>
</g>
<defs>
<path id="path0_fill" fill-rule="evenodd" d="M 1.82222 30.9128L 30.9127 30.9111L 30.9093 1.82234L 1.82056 1.82405L 1.82222 30.9128ZM 1.81541 3.1961e-07L 30.9111 3.1961e-07C 31.9151 3.1961e-07 32.7282 0.797736 32.7282 1.81711L 32.7282 30.9128C 32.7282 31.9151 31.9305 32.7282 30.9111 32.7282L 1.81541 32.7282C 0.813097 32.7282 -2.23061e-08 31.9305 -2.23061e-08 30.9128L -2.23061e-08 1.81711C -2.23061e-08 0.813097 0.797736 3.1961e-07 1.81541 3.1961e-07Z"/>
<path id="path1_fill" fill-rule="evenodd" d="M 32.7282 30.9111L 32.7282 1.81541C 32.7282 0.813097 31.9305 -2.19732e-08 30.9128 -2.19732e-08L 1.81711 -2.19732e-08C 0.813097 -2.19732e-08 -2.74332e-07 0.797737 -2.74332e-07 1.81541L -2.74332e-07 9.09064L 1.82221 9.09064L 1.82221 1.81541L 30.9127 1.81711L 30.911 30.9058L 23.6375 30.9058L 23.6375 32.7281L 30.9127 32.7281C 31.915 32.7281 32.7281 31.9303 32.7281 30.9109L 32.7282 30.9111Z"/>
<path id="path2_fill" fill-rule="evenodd" d="M 9.09056 5.45468L 9.09056 -3.1961e-07L 5.45468 -3.1961e-07L 5.45468 5.45468L 0 5.45468L 0 9.09056L 5.45468 9.09056L 5.45468 14.5452L 9.09056 14.5452L 9.09056 9.09056L 14.5452 9.09056L 14.5452 5.45468L 9.09056 5.45468Z"/>
</defs>
</svg>
