<svg width="42" height="43" viewBox="0 0 42 43" version="1.1" xmlns="http://www.w3.org/2000/svg" xmlns:xlink="http://www.w3.org/1999/xlink">
<title>np_find_1446375_000000</title>
<desc>Created using Figma</desc>
<g id="Canvas" transform="translate(-15020 -7800)">
<g id="np_find_1446375_000000">
<g id="Vector">
<use xlink:href="#path0_fill" transform="translate(15020 7800)" fill="#D3D3D3"/>
</g>
</g>
</g>
<defs>
<path id="path0_fill" d="M 42 40.9798L 31.2947 30.1911C 37.6355 23.0979 37.4196 12.1275 30.6443 5.29968C 27.2538 1.88276 22.7476 4.72872e-07 17.9515 4.72872e-07C 13.155 4.72872e-07 8.64907 1.88276 5.25871 5.29968C 1.86821 8.71659 -6.12793e-07 13.2579 -6.12793e-07 18.0913C -6.12793e-07 22.9224 1.86821 27.4662 5.25871 30.883C 8.64921 34.2999 13.1554 36.1827 17.9487 36.1827C 22.1058 36.1827 26.0501 34.7657 29.2357 32.1577L 39.9941 43L 42 40.9798ZM 7.26244 28.8601C 4.40894 25.9815 2.83407 22.1574 2.83407 18.0878C 2.83407 14.0182 4.40617 10.1938 7.25967 7.31546C 10.1132 4.43973 13.9105 2.8526 17.9487 2.8526C 21.9868 2.8526 25.7816 4.43695 28.6377 7.31546C 34.5302 13.2539 34.5302 22.9191 28.6377 28.8601C 25.7815 31.7358 21.9869 33.3229 17.9487 33.3229C 13.9134 33.3229 10.1186 31.7386 7.26251 28.8601L 7.26244 28.8601Z"/>
</defs>
</svg>
