<svg width="25" height="25" viewBox="0 0 25 25" version="1.1" xmlns="http://www.w3.org/2000/svg" xmlns:xlink="http://www.w3.org/1999/xlink">
<title>np_link_49479_000000</title>
<desc>Created using Figma</desc>
<g id="Canvas" transform="translate(-14742 -7948)">
<g id="np_link_49479_000000">
<g id="Group">
<g id="Vector">
<use xlink:href="#path0_fill" transform="translate(14742 7955.71)" fill="#DBDBDB"/>
</g>
<g id="Vector">
<use xlink:href="#path1_fill" transform="translate(14749.1 7948)" fill="#DBDBDB"/>
</g>
</g>
</g>
</g>
<defs>
<path id="path0_fill" d="M 17.2901 3.24816C 16.9786 2.5496 16.544 1.89153 15.9703 1.31969C 15.3966 0.747839 14.7402 0.311442 14.0417 6.21349e-07L 13.1759 0.865721L 12.5741 1.46572L 11.9494 2.09036C 11.8332 2.20649 11.7347 2.33143 11.6484 2.46339C 12.4773 2.51794 13.2516 2.85226 13.8446 3.44348C 14.4535 4.05231 14.7702 4.83709 14.823 5.63416C 14.8529 6.07757 14.7984 6.521 14.6558 6.94682C 14.4974 7.42015 14.2441 7.86709 13.8745 8.24713C 13.8622 8.25769 13.8569 8.27177 13.8463 8.28408L 13.1372 8.99143L 8.847 13.2813C 8.19943 13.9288 7.34066 14.2842 6.42563 14.2842C 5.51235 14.2842 4.65183 13.927 4.00425 13.2813C 3.35843 12.6355 3.00295 11.775 3.00295 10.8618C 3.00295 9.94688 3.35842 9.08643 4.00601 8.44066L 6.39923 6.04588C 6.26197 5.62182 6.16519 5.18723 6.1036 4.74908C 6.0596 4.4218 6.02793 4.09277 6.02793 3.76372C 6.02265 3.1584 6.09832 2.55313 6.23909 1.96016L 1.88202 6.31687C -0.627339 8.82602 -0.627339 12.8957 1.88202 15.4052C 3.13672 16.6598 4.78203 17.2879 6.42564 17.2879C 8.07096 17.2879 9.71632 16.6598 10.9711 15.4052L 15.9706 10.4061C 16.3419 10.0348 16.6516 9.62656 16.912 9.19724C 17.322 8.52332 17.6018 7.79485 17.7408 7.04174C 17.813 6.65463 17.8517 6.26223 17.8517 5.86985C 17.8534 5.39124 17.7936 4.91264 17.688 4.44106C 17.5948 4.0346 17.4628 3.63516 17.2903 3.24809L 17.2901 3.24816Z"/>
<path id="path1_fill" d="M 15.9697 1.88275C 14.715 0.628154 13.0697 -2.46065e-07 11.426 -2.46065e-07C 9.78073 -2.46065e-07 8.13536 0.628154 6.88062 1.88275L 1.8829 6.88005C 1.5116 7.25132 1.2019 7.65956 0.941472 8.08888C 0.531455 8.7628 0.251684 9.49127 0.110861 10.2444C 0.0387112 10.6315 7.82525e-07 11.0239 7.82525e-07 11.4163C 7.82525e-07 11.8949 0.0580721 12.3735 0.163653 12.8451C 0.255156 13.2533 0.387137 13.6527 0.56135 14.0398C 0.872822 14.7383 1.30745 15.3947 1.88114 15.9683C 2.4548 16.5419 3.1112 16.9765 3.80978 17.2879L 4.67381 16.424L 5.27562 15.824L 5.89855 15.2011C 6.0147 15.085 6.11324 14.96 6.19947 14.8281C 5.37066 14.7735 4.59636 14.441 4.00334 13.848C 3.3927 13.2391 3.07596 12.4526 3.02316 11.652C 2.99501 11.2104 3.04956 10.7687 3.1921 10.3429C 3.34871 9.86959 3.60387 9.42266 3.97342 9.04261C 3.98398 9.03205 3.99102 9.01798 4.00334 9.00566L 9.00286 4.00656C 9.65044 3.35903 10.5092 3.00358 11.4242 3.00358C 12.3393 3.00358 13.198 3.36078 13.8439 4.00656C 15.1795 5.34205 15.1795 7.51341 13.8456 8.8471L 11.4506 11.2419C 11.5879 11.6677 11.6847 12.1005 11.7463 12.5404C 11.792 12.8677 11.8219 13.1967 11.8219 13.5258C 11.8272 14.1311 11.7515 14.7364 11.6108 15.3294L 15.9696 10.9726C 18.479 8.46174 18.479 4.39201 15.9696 1.88255L 15.9697 1.88275Z"/>
</defs>
</svg>
