<svg width="330" height="140" viewBox="0 0 330 140" version="1.1" xmlns="http://www.w3.org/2000/svg" xmlns:xlink="http://www.w3.org/1999/xlink">
<title>np_responsive-design_67746_000000</title>
<desc>Created using Figma</desc>
<g id="Canvas" transform="translate(3564 7506)">
<g id="np_responsive-design_67746_000000">
<g id="Group">
<g id="Vector">
<use xlink:href="#path0_fill" transform="translate(-3377.53 -7441.52)" fill="#BDBDBD"/>
</g>
<g id="Vector">
<use xlink:href="#path1_fill" transform="translate(-3364.45 -7441.52)" fill="#BDBDBD"/>
</g>
<g id="Vector">
<use xlink:href="#path2_fill" transform="translate(-3488.1 -7506)" fill="#BDBDBD"/>
</g>
<g id="Vector">
<use xlink:href="#path3_fill" transform="translate(-3467.91 -7418.15)" fill="#BDBDBD"/>
</g>
<g id="Vector">
<use xlink:href="#path4_fill" transform="translate(-3526.79 -7442.49)" fill="#BDBDBD"/>
</g>
<g id="Vector">
<use xlink:href="#path5_fill" transform="translate(-3564 -7404.33)" fill="#BDBDBD"/>
</g>
</g>
</g>
</g>
<defs>
<path id="path0_fill" d="M 130.469 67.0124L 130.469 2.75525C 130.469 1.23985 129.231 1.69334e-06 127.717 1.69334e-06L 47.186 1.69334e-06L 47.186 5.31166L 125.76 5.31166L 125.76 63.6909L 17.7669 63.6909L 17.7669 43.9756L 13.073 43.9756L 13.073 67.0127C 13.073 67.4413 13.18 67.8393 13.3482 68.2066L 5.28455e-07 68.2066L 5.28455e-07 72.6456C 5.28455e-07 74.1763 1.22319 75.4009 2.75216 75.4009L 140.775 75.4009C 142.304 75.4009 143.527 74.1763 143.527 72.6456L 143.527 68.2066L 130.179 68.2066C 130.347 67.8546 130.469 67.4566 130.469 67.0127L 130.469 67.0124ZM 71.7716 3.71922C 71.1754 3.71922 70.6861 3.22939 70.6861 2.63243C 70.6861 2.03548 71.1754 1.54565 71.7716 1.54565C 72.3679 1.54565 72.8572 2.03548 72.8572 2.63243C 72.8572 3.24471 72.3679 3.71922 71.7716 3.71922ZM 78.6215 72.8903L 64.8913 72.8903C 64.295 72.8903 63.8057 72.4004 63.8057 71.8035C 63.8057 71.2065 64.295 70.7167 64.8913 70.7167L 78.6215 70.7167C 79.2178 70.7167 79.7071 71.2065 79.7071 71.8035C 79.7071 72.4157 79.2331 72.8903 78.6215 72.8903Z"/>
<path id="path1_fill" d="M 27.4605 5.31165L 27.4605 -4.06593e-06L 2.75215 -4.06593e-06C 1.23845 -4.06593e-06 6.82787e-06 1.23988 6.82787e-06 2.75524L 6.82787e-06 23.3737L 4.69392 23.3737L 4.69392 5.31134L 27.4605 5.31165Z"/>
<path id="path2_fill" d="M 6.66745 6.34029L 151.109 6.34029L 151.109 69.7863L 157.76 69.7863L 157.76 4.57692C 157.76 1.97473 155.65 4.78344e-07 153.066 4.78344e-07L 4.83169 4.78344e-07C 2.23243 4.78344e-07 3.66718e-06 1.97462 3.66718e-06 4.57692L 3.66718e-06 63.5087L 6.65101 63.5087L 6.66745 6.34029Z"/>
<path id="path3_fill" d="M 108.145 -4.54427e-06L -2.26959e-06 -4.54427e-06L -2.26959e-06 20.6185L 43.0092 20.6185C 42.9481 22.1033 42.4741 28.5168 39.4314 31.6242C 37.0309 34.0734 33.6979 36.3693 34.9974 37.548C 35.3185 38.2674 36.8169 38.696 40.2111 38.696L 58.8189 38.696L 59.9962 38.696L 78.6039 38.696C 82.4722 38.696 83.8329 38.0684 83.8482 37.1194L 83.7105 37.1194L 83.7105 36.8133L 83.5729 36.8133C 83.3895 35.5428 80.8208 33.6447 78.8638 31.6548C 75.8211 28.5475 75.3624 22.1338 75.2859 20.6491L 108.144 20.6491L 108.145 -4.54427e-06ZM 58.6817 16.0419C 56.9846 16.0419 55.6084 14.6643 55.6084 12.9805C 55.6084 11.2815 56.9845 9.91913 58.6817 9.91913C 60.3789 9.91913 61.7397 11.2968 61.7397 12.9805C 61.755 14.6796 60.3789 16.0419 58.6817 16.0419Z"/>
<path id="path4_fill" d="M 58.8818 2.60219C 58.8818 1.16332 57.7198 -2.8605e-06 56.2825 -2.8605e-06L 2.59926 -2.8605e-06C 1.16201 -2.8605e-06 -4.06137e-08 1.16332 -4.06137e-08 2.60219L -4.06137e-08 38.1756L 5.96289 38.1756L 5.96289 6.81154L 53.0116 6.81154L 53.0116 44.9414L 52.9963 69.6317L 20.0466 69.6317L 20.0466 73.6883C 20.0466 75.2189 18.8081 76.4741 17.2638 76.4741L 56.268 76.4741C 57.7053 76.4741 58.8673 75.3108 58.8673 73.8719L 58.8673 24.3213L 58.8818 2.60219ZM 29.9382 3.62776C 29.7548 3.88798 29.3878 3.9339 29.1432 3.75022C 28.8833 3.56653 28.8374 3.19918 29.0209 2.95427C 29.2043 2.69405 29.556 2.64813 29.8159 2.83181C 30.0606 3.01549 30.1217 3.38285 29.9382 3.62776ZM 30.5498 74.6523C 30.2288 74.9125 29.8465 75.035 29.4337 75.035C 28.8679 75.035 28.3634 74.7901 28.0117 74.3462C 27.4001 73.5655 27.5377 72.4175 28.3175 71.8052C 28.6386 71.5603 29.0208 71.4225 29.4337 71.4225C 29.9994 71.4225 30.504 71.6674 30.8556 72.1113C 31.4672 72.892 31.3449 74.04 30.5498 74.6523Z"/>
<path id="path5_fill" d="M 57.2588 35.543L 57.2588 2.78589C 57.2588 1.25521 56.0203 -9.42338e-07 54.4761 -9.42338e-07L 43.1617 0.0153061L 2.78276 0.0153061C 1.2538 0.0153061 3.16548e-08 1.25519 3.16548e-08 2.8012L 3.16548e-08 35.543C 3.16548e-08 37.0737 1.23849 38.3289 2.78276 38.3289L 54.4933 38.3289C 56.0222 38.3136 57.2607 37.0737 57.2607 35.543L 57.2588 35.543ZM 3.42289 20.2052C 2.85717 20.6491 2.01621 20.5573 1.57281 19.9756C 1.1141 19.3939 1.22114 18.5673 1.80215 18.1234C 2.36787 17.6795 3.20884 17.7714 3.65224 18.353C 4.09564 18.9194 3.98861 19.7613 3.42289 20.2052ZM 51.8298 31.4712L 51.8298 36.5685L 5.5483 36.5685L 5.5483 1.86737L 51.8455 1.86737L 51.8298 31.4712ZM 54.689 19.4246C 54.5667 19.5777 54.3374 19.6236 54.1692 19.5012C 54.001 19.3787 53.9704 19.1491 54.0927 18.9807C 54.2151 18.8124 54.4444 18.7817 54.5973 18.9042C 54.7655 19.0267 54.8114 19.2563 54.6891 19.4246L 54.689 19.4246Z"/>
</defs>
</svg>
