<svg width="22" height="20" viewBox="0 0 22 20" version="1.1" xmlns="http://www.w3.org/2000/svg" xmlns:xlink="http://www.w3.org/1999/xlink">
<g id="Canvas" fill="none">
<g id="np_photo_757280_000000">
<g id="Vector">
<path d="M 1.69231 0C 0.764613 0 0 0.753028 0 1.66667L 0 18.3333C 0 19.247 0.764613 20 1.69231 20L 20.3077 20C 21.2354 20 22 19.247 22 18.3333L 22 1.66667C 22 0.753028 21.2354 0 20.3077 0L 1.69231 0ZM 1.69231 1.11111L 20.3077 1.11111C 20.6294 1.11111 20.8718 1.34983 20.8718 1.66667L 20.8718 13.6544L 17.3196 10.1561C 17.2106 10.0498 17.0629 9.99227 16.9109 9.99552C 16.7577 9.99878 16.6123 10.0628 16.5087 10.1735L 12.9566 13.9149L 7.44785 8.48958C 7.32665 8.37239 7.15809 8.31489 6.98951 8.33333C 6.87162 8.34527 6.76035 8.3941 6.6722 8.47222L 1.12821 13.455L 1.12821 1.66667C 1.12821 1.34983 1.37059 1.11111 1.69231 1.11111ZM 12.6923 2.77778C 11.141 2.77778 9.87179 4.02778 9.87179 5.55556C 9.87179 7.08333 11.141 8.33333 12.6923 8.33333C 14.2436 8.33333 15.5128 7.08333 15.5128 5.55556C 15.5128 4.02778 14.2436 2.77778 12.6923 2.77778ZM 12.6923 3.88889C 13.6332 3.88889 14.3846 4.62892 14.3846 5.55556C 14.3846 6.48219 13.6332 7.22222 12.6923 7.22222C 11.7514 7.22222 11 6.48219 11 5.55556C 11 4.62892 11.7514 3.88889 12.6923 3.88889ZM 7.03379 9.65278L 12.5778 15.1128C 12.6869 15.218 12.8345 15.2766 12.9865 15.2734C 13.1397 15.2701 13.2851 15.2061 13.3887 15.0954L 16.9408 11.354L 20.8721 15.2257L 20.8721 18.3335C 20.8721 18.6514 20.6297 18.889 20.308 18.889L 1.69259 18.889C 1.37088 18.889 1.12849 18.6514 1.12849 18.3335L 1.12849 14.9654L 7.03379 9.65278Z" fill="#14CC48"/>
</g>
</g>
</g>
</svg>

