<svg width="18" height="16" viewBox="0 0 18 16" version="1.1" xmlns="http://www.w3.org/2000/svg" xmlns:xlink="http://www.w3.org/1999/xlink">
<title>Union</title>
<desc>Created using Figma</desc>
<g id="Canvas" transform="translate(2028 -1393)">
<g id="Union">
<use xlink:href="#path0_fill" transform="translate(-2028 1393)" fill="#F2C94C"/>
</g>
</g>
<defs>
<path id="path0_fill" fill-rule="evenodd" d="M 4.15295 11.847L 1 15L 1.70715 15.7072L 5.13159 12.2827C 6.30981 12.7369 7.61975 13 9 13C 13.3058 13 16.927 10.4406 18 7.5C 17.3982 5.85059 15.9946 4.32117 14.1183 3.29602L 16.7072 0.707153L 16 0L 13.1637 2.8363C 11.9106 2.30933 10.4967 2 9 2C 4.69458 2 1.073 4.55945 0 7.5C 0.630493 9.22803 2.14075 10.8243 4.15295 11.847ZM 7.07385 10.3405C 7.62024 10.7288 8.28406 10.9563 9 10.9563C 10.8668 10.9563 12.3802 9.4093 12.3802 7.5C 12.3802 6.79578 12.1742 6.1405 11.8202 5.59412L 7.07385 10.3405ZM 11.1592 4.84082C 10.5736 4.34314 9.82092 4.0437 9 4.0437C 7.13428 4.0437 5.62085 5.59058 5.62085 7.5C 5.62085 8.31189 5.89429 9.05823 6.35205 9.64795L 8.32947 7.67053C 8.19226 7.7207 8.04456 7.74792 7.8905 7.74792C 7.1709 7.74792 6.58704 7.15088 6.58704 6.41479C 6.58704 5.67773 7.1709 5.08167 7.8905 5.08167C 8.61011 5.08167 9.19287 5.67773 9.19397 6.41479C 9.19397 6.58301 9.16357 6.74377 9.10815 6.89185L 11.1592 4.84082Z"/>
</defs>
</svg>
