<svg width="16" height="16" viewBox="0 0 16 16" version="1.1" xmlns="http://www.w3.org/2000/svg" xmlns:xlink="http://www.w3.org/1999/xlink">
<title>Line</title>
<desc>Created using Figma</desc>
<g id="Canvas" transform="translate(2015 355)">
<rect x="-2015" y="-355" width="16" height="16" fill="#333333"/>
<clipPath id="clip-0" clip-rule="evenodd">
<path d="M -2059 -1093L -619 -1093L -619 -69L -2059 -69L -2059 -1093Z" fill="#FFFFFF"/>
</clipPath>
<g id="1-2 My Beacons - Filters - Template" clip-path="url(#clip-0)">
<path d="M -2059 -1093L -619 -1093L -619 -69L -2059 -69L -2059 -1093Z" fill="#FFFFFF"/>
<g id="Main Area Background">
<g id="Contents / Main Background" filter="url(#filter0_d)">
<use xlink:href="#path0_fill" transform="translate(-2059 -1093)" fill="#FFFFFF"/>
</g>
</g>
<g id="Beacon Card Temp">
<g id="Rectangle 3">
<use xlink:href="#path1_fill" transform="translate(-2038 -514)" fill="#FFFFFF"/>
<mask id="mask0_outline_ins">
<use xlink:href="#path1_fill" fill="white" transform="translate(-2038 -514)"/>
</mask>
<g mask="url(#mask0_outline_ins)">
<use xlink:href="#path2_stroke_2x" transform="translate(-2038 -514)" fill="#E0E0E0"/>
</g>
</g>
<g id="Unpublished">
<g id="np_view_974928_000000">
<g id="Vector">
<use xlink:href="#path3_fill" transform="translate(-2016 -353)" fill="#F2C94C"/>
</g>
</g>
<g id="Line">
<use xlink:href="#path4_stroke" transform="matrix(-0.707107 0.707107 -0.707107 -0.707107 -2000 -355)" fill="#F2C94C"/>
</g>
</g>
</g>
</g>
</g>
<defs>
<filter id="filter0_d" filterUnits="userSpaceOnUse" x="-2061" y="-1097" width="680" height="1032" color-interpolation-filters="sRGB">
<feFlood flood-opacity="0" result="BackgroundImageFix"/>
<feColorMatrix in="SourceAlpha" type="matrix" values="0 0 0 0 0 0 0 0 0 0 0 0 0 0 0 0 0 0 255 0"/>
<feOffset dx="2" dy="0"/>
<feGaussianBlur stdDeviation="2"/>
<feColorMatrix type="matrix" values="0 0 0 0 0 0 0 0 0 0 0 0 0 0 0 0 0 0 0.09 0"/>
<feBlend mode="normal" in2="BackgroundImageFix" result="effect1_dropShadow"/>
<feBlend mode="normal" in="SourceGraphic" in2="effect1_dropShadow" result="shape"/>
</filter>
<path id="path0_fill" d="M 0 0L 672 0L 672 1024L 0 1024L 0 0Z"/>
<path id="path1_fill" d="M 0 8C 0 3.58172 3.58172 0 8 0L 624 0C 628.418 0 632 3.58172 632 8L 632 184C 632 188.418 628.418 192 624 192L 8 192C 3.58172 192 0 188.418 0 184L 0 8Z"/>
<path id="path2_stroke_2x" d="M 8 1L 624 1L 624 -1L 8 -1L 8 1ZM 631 8L 631 184L 633 184L 633 8L 631 8ZM 624 191L 8 191L 8 193L 624 193L 624 191ZM 1 184L 1 8L -1 8L -1 184L 1 184ZM 8 -1C 3.02944 -1 -1 3.02944 -1 8L 1 8C 1 4.13401 4.13401 1 8 1L 8 -1ZM 624 1C 627.866 1 631 4.13401 631 8L 633 8C 633 3.02944 628.971 -1 624 -1L 624 1ZM 631 184C 631 187.866 627.866 191 624 191L 624 193C 628.971 193 633 188.971 633 184L 631 184ZM 8 191C 4.13401 191 1 187.866 1 184L -1 184C -1 188.971 3.02944 193 8 193L 8 191Z"/>
<path id="path3_fill" d="M 9 0C 4.69455 0 1.07298 2.55939 2.39843e-07 5.5C 1.07287 8.44067 4.69427 11 9 11C 13.3057 11 16.927 8.44061 18 5.5C 16.9271 2.55933 13.3057 0 9 0ZM 9 8.95626C 7.13324 8.95626 5.62083 7.40937 5.62083 5.5C 5.62083 3.59063 7.13429 2.04374 9 2.04374C 10.8668 2.04374 12.3803 3.59173 12.3803 5.5C 12.3803 7.40935 10.8668 8.95626 9 8.95626ZM 7.8905 3.08169C 7.17093 3.08169 6.58709 3.67775 6.58709 4.41484C 6.58709 5.15082 7.17093 5.74798 7.8905 5.74798C 8.61007 5.74798 9.19392 5.15192 9.19392 4.41484C 9.19284 3.67775 8.61007 3.08169 7.8905 3.08169Z"/>
<path id="path4_stroke" d="M 0 0L 21.2132 0L 21.2132 -1L 0 -1L 0 0Z"/>
</defs>
</svg>
