<svg width="64" height="64" viewBox="0 0 64 64" version="1.1" xmlns="http://www.w3.org/2000/svg" xmlns:xlink="http://www.w3.org/1999/xlink">
<title>worldwide_location</title>
<desc>Created using Figma</desc>
<g id="Canvas" transform="translate(-248 -9884)">
<clipPath id="clip-0" clip-rule="evenodd">
<path d="M 248 9884L 312 9884L 312 9948L 248 9948L 248 9884Z" fill="#FFFFFF"/>
</clipPath>
<g id="worldwide_location" clip-path="url(#clip-0)">
<g id="Vector">
<use xlink:href="#path0_fill" transform="translate(252 9894)" fill="#E0E0E0"/>
</g>
<g id="Group">
<g id="Vector">
<use xlink:href="#path1_fill" transform="translate(282 9888)" fill="#E0E0E0"/>
</g>
</g>
</g>
</g>
<defs>
<path id="path0_fill" d="M 43.632 27.748C 43.486 28.514 43.308 29.268 43.078 30L 35.638 30C 35.866 28.09 36 26.092 36 24C 36 23.44 35.968 22.902 35.948 22.354C 35.554 21.884 34.664 21.114 33.978 20.524C 33.258 19.904 32.452 19.198 31.638 18.41C 31.864 20.174 32 22.038 32 24C 32 26.11 31.854 28.122 31.596 30L 16.402 30C 16.146 28.122 16 26.11 16 24C 16 21.89 16.146 19.878 16.404 18L 31.226 18C 30.12 16.88 29.042 15.556 28.14 14L 17.172 14C 18.69 7.922 21.444 4 24 4C 24.682 4 25.376 4.298 26.06 4.822C 26.178 3.21 26.534 1.666 27.096 0.222C 26.08 0.0920001 25.052 0 24 0C 10.766 0 0 10.766 0 24C 0 37.234 10.766 48 24 48C 37.234 48 48 37.234 48 24C 48 23.568 47.958 23.148 47.936 22.722C 47.642 25.138 45.918 27.096 43.632 27.748ZM 16.124 5.622C 14.796 7.878 13.736 10.724 13.024 14L 6.706 14C 8.86 10.292 12.156 7.33 16.124 5.622ZM 4 24C 4 21.91 4.326 19.896 4.922 18L 12.362 18C 12.134 19.91 12 21.908 12 24C 12 26.092 12.134 28.09 12.362 30L 4.922 30C 4.326 28.104 4 26.09 4 24ZM 6.706 34L 13.024 34C 13.736 37.276 14.794 40.122 16.122 42.378C 12.156 40.67 8.86 37.708 6.706 34ZM 24 44C 21.444 44 18.69 40.078 17.172 34L 30.828 34C 29.31 40.078 26.556 44 24 44ZM 31.876 42.378C 33.204 40.122 34.262 37.276 34.974 34L 41.292 34C 39.14 37.708 35.846 40.67 31.876 42.378Z"/>
<path id="path1_fill" d="M 12 0C 5.372 0 0 5.372 0 12C 0 21.584 10 24 10 28C 10 29.098 10.896 30 12 30C 13.104 30 14 29.098 14 28C 14 24 24 21.584 24 12C 24 5.372 18.628 0 12 0ZM 12 16C 9.79 16 8 14.21 8 12C 8 9.79 9.79 8 12 8C 14.21 8 16 9.79 16 12C 16 14.21 14.21 16 12 16Z"/>
</defs>
</svg>
