<svg width="129" height="42" viewBox="0 0 129 42" fill="none" xmlns="http://www.w3.org/2000/svg">
<rect x="0.5" y="0.5" width="128" height="41" rx="3.5" fill="white" stroke="#E7E7E7"/>
<path d="M27.597 20.0989C27.6094 19.0927 27.8639 18.1062 28.3369 17.2311C28.81 16.356 29.4861 15.6208 30.3025 15.0938C29.7839 14.3161 29.0997 13.6761 28.3043 13.2246C27.5089 12.773 26.6242 12.5225 25.7204 12.4928C23.7926 12.2803 21.9236 13.7041 20.9412 13.7041C19.9398 13.7041 18.4272 12.5139 16.7985 12.5491C15.7449 12.5848 14.7182 12.9065 13.8183 13.4828C12.9183 14.0591 12.1759 14.8703 11.6633 15.8374C9.44307 19.8737 11.0992 25.8058 13.2261 29.0685C14.2902 30.6662 15.5338 32.4508 17.1612 32.3875C18.7536 32.3182 19.3483 31.3213 21.2705 31.3213C23.1748 31.3213 23.7328 32.3875 25.3931 32.3473C27.1019 32.3182 28.1784 30.7425 29.2052 29.1298C29.9698 27.9914 30.5582 26.7332 30.9485 25.4019C29.9557 24.961 29.1086 24.2231 28.5126 23.28C27.9166 22.337 27.5982 21.2307 27.597 20.0989Z" fill="#333333"/>
<path d="M24.461 10.3469C25.3926 9.17258 25.8516 7.66314 25.7405 6.13916C24.3171 6.29613 23.0023 7.01043 22.058 8.13974C21.5964 8.69143 21.2428 9.33326 21.0175 10.0285C20.7922 10.7238 20.6996 11.4589 20.745 12.1917C21.4569 12.1994 22.1613 12.0374 22.8049 11.7179C23.4486 11.3983 24.0148 10.9296 24.461 10.3469Z" fill="#333333"/>
<path d="M47.3016 28.4966H42.5682L41.4315 32.0208H39.4266L43.91 18.9819H45.993L50.4764 32.0208H48.4374L47.3016 28.4966ZM43.0585 26.8703H46.8105L44.9609 21.1507H44.9091L43.0585 26.8703Z" fill="#333333"/>
<path d="M60.1591 27.268C60.1591 30.2222 58.6532 32.1202 56.3808 32.1202C55.8051 32.1518 55.2326 32.0126 54.7288 31.7184C54.225 31.4243 53.8103 30.9871 53.5321 30.457H53.4891V35.1656H51.6307V22.5143H53.4296V24.0955H53.4637C53.7547 23.5679 54.1764 23.133 54.6841 22.837C55.1917 22.5411 55.7662 22.3952 56.3466 22.4148C58.6444 22.4148 60.1591 24.3221 60.1591 27.268ZM58.2489 27.268C58.2489 25.3434 57.3017 24.078 55.8563 24.078C54.4364 24.078 53.4813 25.37 53.4813 27.268C53.4813 29.1835 54.4364 30.4662 55.8563 30.4662C57.3017 30.4662 58.2489 29.2101 58.2489 27.268H58.2489Z" fill="#333333"/>
<path d="M70.1244 27.268C70.1244 30.2222 68.6181 32.1202 66.3456 32.1202C65.77 32.1518 65.1975 32.0126 64.6937 31.7184C64.1899 31.4243 63.7751 30.9871 63.497 30.457H63.454V35.1656H61.5956V22.5143H63.3944V24.0955H63.4286C63.7195 23.5679 64.1413 23.133 64.6489 22.837C65.1565 22.5411 65.7311 22.3952 66.3114 22.4148C68.6093 22.4148 70.1244 24.3221 70.1244 27.268ZM68.2138 27.268C68.2138 25.3434 67.2665 24.078 65.8212 24.078C64.4013 24.078 63.4462 25.37 63.4462 27.268C63.4462 29.1835 64.4013 30.4662 65.8212 30.4662C67.2665 30.4662 68.2138 29.2101 68.2138 27.268Z" fill="#333333"/>
<path d="M76.7094 28.3877C76.8471 29.6808 78.0434 30.5297 79.6781 30.5297C81.2446 30.5297 82.3715 29.6807 82.3715 28.5149C82.3715 27.5028 81.6918 26.8968 80.0825 26.4815L78.4731 26.0744C76.1928 25.4961 75.1342 24.3764 75.1342 22.5594C75.1342 20.3097 77.0014 18.7644 79.6518 18.7644C82.2768 18.7644 84.0756 20.3097 84.1362 22.5594H82.2602C82.1479 21.2582 81.1235 20.4727 79.6264 20.4727C78.1293 20.4727 77.1049 21.2674 77.1049 22.424C77.1049 23.3459 77.7592 23.8883 79.3598 24.3035L80.7279 24.6563C83.2758 25.2889 84.3334 26.3636 84.3334 28.2708C84.3334 30.7102 82.4838 32.238 79.5404 32.238C76.7865 32.238 74.9271 30.7461 74.807 28.3877L76.7094 28.3877Z" fill="#333333"/>
<path d="M88.3462 20.2646V22.5144H90.0679V24.0596H88.3462V29.3004C88.3462 30.1145 88.6909 30.4939 89.4477 30.4939C89.6521 30.4902 89.8562 30.4751 90.0591 30.4488V31.9848C89.7188 32.0516 89.3729 32.0818 89.0268 32.0751C87.1938 32.0751 86.479 31.3522 86.479 29.5085V24.0596H85.1626V22.5144H86.479V20.2646H88.3462Z" fill="#333333"/>
<path d="M91.064 27.2681C91.064 24.277 92.7417 22.3975 95.3579 22.3975C97.9829 22.3975 99.6528 24.277 99.6528 27.2681C99.6528 30.2673 97.9917 32.1387 95.3579 32.1387C92.7251 32.1387 91.064 30.2673 91.064 27.2681ZM97.7593 27.2681C97.7593 25.2163 96.8638 24.0053 95.3579 24.0053C93.852 24.0053 92.9565 25.2255 92.9565 27.2681C92.9565 29.3281 93.852 30.5298 95.3579 30.5298C96.8638 30.5298 97.7593 29.3281 97.7593 27.2681H97.7593Z" fill="#333333"/>
<path d="M101.185 22.5142H102.957V24.1323H103C103.12 23.6269 103.402 23.1803 103.799 22.8675C104.195 22.5548 104.682 22.3949 105.178 22.4147C105.392 22.414 105.606 22.4384 105.815 22.4875V24.3127C105.544 24.226 105.262 24.1862 104.98 24.1948C104.71 24.1833 104.441 24.2333 104.191 24.3413C103.941 24.4494 103.716 24.6129 103.532 24.8207C103.348 25.0285 103.21 25.2756 103.125 25.5451C103.041 25.8146 103.013 26.1001 103.043 26.382V32.0206H101.185L101.185 22.5142Z" fill="#333333"/>
<path d="M114.383 29.2286C114.133 30.9543 112.533 32.1387 110.485 32.1387C107.851 32.1387 106.216 30.2858 106.216 27.3132C106.216 24.3313 107.86 22.3975 110.407 22.3975C112.912 22.3975 114.487 24.2042 114.487 27.0866V27.7551H108.092V27.873C108.063 28.2229 108.104 28.5753 108.215 28.907C108.325 29.2386 108.501 29.5418 108.731 29.7965C108.962 30.0512 109.241 30.2515 109.551 30.3841C109.86 30.5167 110.194 30.5786 110.528 30.5657C110.967 30.6089 111.408 30.5021 111.784 30.2612C112.161 30.0203 112.454 29.6581 112.619 29.2286L114.383 29.2286ZM108.101 26.3914H112.627C112.644 26.0768 112.599 25.762 112.494 25.4667C112.389 25.1714 112.228 24.9021 112.019 24.6755C111.811 24.449 111.56 24.2701 111.282 24.1502C111.005 24.0303 110.707 23.9718 110.407 23.9786C110.104 23.9767 109.804 24.0378 109.524 24.1582C109.244 24.2787 108.989 24.4562 108.775 24.6806C108.561 24.9049 108.391 25.1715 108.275 25.4652C108.159 25.7588 108.1 26.0736 108.101 26.3914V26.3914Z" fill="#333333"/>
<path d="M42.8262 9.16751C43.2158 9.13815 43.6067 9.19996 43.9709 9.34846C44.335 9.49696 44.6632 9.72847 44.9317 10.0263C45.2003 10.3241 45.4026 10.6808 45.524 11.0706C45.6454 11.4604 45.6829 11.8737 45.6338 12.2806C45.6338 14.2822 44.6035 15.4327 42.8262 15.4327H40.6709V9.16751H42.8262ZM41.5976 14.5467H42.7226C43.0011 14.5641 43.2797 14.5162 43.5382 14.4064C43.7967 14.2965 44.0287 14.1275 44.2172 13.9117C44.4057 13.6958 44.546 13.4386 44.6278 13.1586C44.7097 12.8787 44.7311 12.5831 44.6904 12.2934C44.7281 12.0048 44.7046 11.711 44.6215 11.4331C44.5383 11.1552 44.3977 10.9001 44.2096 10.686C44.0216 10.4718 43.7907 10.304 43.5337 10.1946C43.2766 10.0851 42.9996 10.0367 42.7226 10.0529H41.5976V14.5467Z" fill="#333333"/>
<path d="M46.6807 13.0665C46.6524 12.7558 46.6862 12.4423 46.7801 12.1461C46.8739 11.8499 47.0257 11.5776 47.2256 11.3466C47.4256 11.1157 47.6693 10.9311 47.9411 10.8048C48.213 10.6785 48.507 10.6133 48.8042 10.6133C49.1015 10.6133 49.3955 10.6785 49.6673 10.8048C49.9392 10.9311 50.1829 11.1157 50.3829 11.3466C50.5828 11.5776 50.7346 11.8499 50.8284 12.1461C50.9222 12.4423 50.9561 12.7558 50.9278 13.0665C50.9566 13.3775 50.9232 13.6914 50.8296 13.9881C50.736 14.2847 50.5843 14.5576 50.3843 14.789C50.1843 15.0204 49.9404 15.2054 49.6683 15.3319C49.3962 15.4585 49.1019 15.5239 48.8042 15.5239C48.5066 15.5239 48.2123 15.4585 47.9402 15.3319C47.668 15.2054 47.4241 15.0204 47.2241 14.789C47.0242 14.5576 46.8725 14.2847 46.7789 13.9881C46.6853 13.6914 46.6519 13.3775 46.6807 13.0665ZM50.0137 13.0665C50.0137 12.0416 49.5752 11.4423 48.8057 11.4423C48.0332 11.4423 47.5987 12.0416 47.5987 13.0665C47.5987 14.0996 48.0333 14.6943 48.8057 14.6943C49.5752 14.6943 50.0137 14.0955 50.0137 13.0665H50.0137Z" fill="#333333"/>
<path d="M56.5732 15.4327H55.6514L54.7207 11.9504H54.6504L53.7236 15.4327H52.8105L51.5693 10.7046H52.4707L53.2773 14.3124H53.3438L54.2695 10.7046H55.1221L56.0479 14.3124H56.1182L56.9209 10.7046H57.8096L56.5732 15.4327Z" fill="#333333"/>
<path d="M58.8535 10.7046H59.709V11.4557H59.7754C59.8881 11.1859 60.0781 10.9598 60.3189 10.8088C60.5598 10.6578 60.8395 10.5894 61.1191 10.6133C61.3382 10.596 61.5582 10.6307 61.7628 10.7148C61.9674 10.7989 62.1514 10.9302 62.3011 11.0991C62.4508 11.268 62.5623 11.4701 62.6275 11.6904C62.6927 11.9107 62.7099 12.1436 62.6777 12.3718V15.4326H61.7891V12.6062C61.7891 11.8463 61.4746 11.4685 60.8174 11.4685C60.6686 11.4612 60.5201 11.4878 60.3821 11.5464C60.244 11.605 60.1197 11.6943 60.0175 11.8081C59.9154 11.9219 59.8379 12.0576 59.7904 12.2057C59.7429 12.3539 59.7264 12.5112 59.7422 12.6666V15.4326H58.8535L58.8535 10.7046Z" fill="#333333"/>
<path d="M64.0938 8.85889H64.9824V15.4327H64.0938V8.85889Z" fill="#333333"/>
<path d="M66.2178 13.0666C66.1895 12.7558 66.2234 12.4423 66.3172 12.1461C66.4111 11.8499 66.5629 11.5776 66.7628 11.3466C66.9628 11.1157 67.2065 10.9311 67.4784 10.8048C67.7503 10.6785 68.0443 10.6133 68.3416 10.6133C68.6389 10.6133 68.9329 10.6785 69.2047 10.8048C69.4766 10.9311 69.7203 11.1157 69.9203 11.3466C70.1203 11.5776 70.272 11.8499 70.3659 12.1461C70.4598 12.4423 70.4936 12.7558 70.4653 13.0666C70.4942 13.3776 70.4607 13.6915 70.3671 13.9882C70.2734 14.2848 70.1217 14.5576 69.9217 14.7891C69.7217 15.0205 69.4778 15.2054 69.2057 15.332C68.9335 15.4585 68.6392 15.5239 68.3416 15.5239C68.0439 15.5239 67.7496 15.4585 67.4775 15.332C67.2053 15.2054 66.9614 15.0205 66.7614 14.7891C66.5614 14.5576 66.4097 14.2848 66.3161 13.9882C66.2225 13.6915 66.189 13.3776 66.2178 13.0666ZM69.5508 13.0666C69.5508 12.0417 69.1123 11.4424 68.3428 11.4424C67.5703 11.4424 67.1358 12.0417 67.1358 13.0666C67.1358 14.0997 67.5704 14.6944 68.3428 14.6944C69.1123 14.6944 69.5508 14.0955 69.5508 13.0666H69.5508Z" fill="#333333"/>
<path d="M71.4009 14.0955C71.4009 13.2444 72.0044 12.7538 73.0757 12.684L74.2954 12.6102V12.2021C74.2954 11.7028 73.981 11.4208 73.3735 11.4208C72.8774 11.4208 72.5337 11.612 72.4351 11.9463H71.5747C71.6655 11.1342 72.3931 10.6133 73.4146 10.6133C74.5435 10.6133 75.1802 11.2034 75.1802 12.2021V15.4326H74.3247V14.7682H74.2544C74.1117 15.0065 73.9113 15.2008 73.6737 15.3312C73.436 15.4616 73.1697 15.5235 72.9019 15.5105C72.7128 15.5312 72.5218 15.51 72.341 15.4483C72.1602 15.3867 71.9938 15.286 71.8524 15.1527C71.711 15.0194 71.5977 14.8564 71.52 14.6743C71.4422 14.4922 71.4016 14.2951 71.4009 14.0955ZM74.2954 13.6915V13.2962L73.1958 13.37C72.5757 13.4136 72.2944 13.6351 72.2944 14.0519C72.2944 14.4774 72.646 14.7251 73.1294 14.7251C73.2711 14.7401 73.4142 14.7251 73.5502 14.6809C73.6862 14.6367 73.8123 14.5643 73.9211 14.4678C74.0299 14.3714 74.1191 14.253 74.1834 14.1196C74.2477 13.9862 74.2858 13.8406 74.2954 13.6915Z" fill="#333333"/>
<path d="M76.3481 13.0666C76.3481 11.5726 77.0796 10.6262 78.2173 10.6262C78.4987 10.6125 78.778 10.6833 79.0225 10.8302C79.267 10.9771 79.4667 11.194 79.5981 11.4557H79.6646V8.85889H80.5532V15.4327H79.7017V14.6857H79.6314C79.4897 14.9455 79.2831 15.1598 79.0339 15.3052C78.7846 15.4506 78.5022 15.5216 78.2173 15.5106C77.0718 15.5106 76.3481 14.5642 76.3481 13.0666ZM77.2661 13.0666C77.2661 14.0694 77.7163 14.6729 78.4693 14.6729C79.2183 14.6729 79.6812 14.0607 79.6812 13.0707C79.6812 12.0853 79.2134 11.4644 78.4693 11.4644C77.7212 11.4644 77.2661 12.072 77.2661 13.0666H77.2661Z" fill="#333333"/>
<path d="M84.23 13.0665C84.2017 12.7558 84.2356 12.4423 84.3294 12.1461C84.4232 11.8499 84.575 11.5776 84.7749 11.3466C84.9749 11.1157 85.2186 10.9311 85.4904 10.8048C85.7623 10.6785 86.0563 10.6133 86.3536 10.6133C86.6508 10.6133 86.9448 10.6785 87.2167 10.8048C87.4885 10.9311 87.7322 11.1157 87.9322 11.3466C88.1321 11.5776 88.2839 11.8499 88.3777 12.1461C88.4715 12.4423 88.5054 12.7558 88.4771 13.0665C88.5059 13.3775 88.4725 13.6914 88.3789 13.9881C88.2853 14.2847 88.1336 14.5576 87.9336 14.789C87.7336 15.0204 87.4897 15.2054 87.2176 15.3319C86.9455 15.4585 86.6512 15.5239 86.3536 15.5239C86.0559 15.5239 85.7616 15.4585 85.4895 15.3319C85.2173 15.2054 84.9735 15.0204 84.7735 14.789C84.5735 14.5576 84.4218 14.2847 84.3282 13.9881C84.2346 13.6914 84.2012 13.3775 84.23 13.0665ZM87.563 13.0665C87.563 12.0416 87.1245 11.4423 86.355 11.4423C85.5826 11.4423 85.148 12.0416 85.148 13.0665C85.148 14.0996 85.5826 14.6943 86.355 14.6943C87.1245 14.6943 87.563 14.0955 87.563 13.0665Z" fill="#333333"/>
<path d="M89.6694 10.7046H90.5249V11.4557H90.5913C90.704 11.1859 90.894 10.9598 91.1348 10.8088C91.3757 10.6578 91.6555 10.5894 91.9351 10.6133C92.1542 10.596 92.3742 10.6307 92.5788 10.7148C92.7834 10.7989 92.9673 10.9302 93.117 11.0991C93.2667 11.268 93.3783 11.4701 93.4435 11.6904C93.5087 11.9107 93.5258 12.1436 93.4936 12.3718V15.4326H92.605V12.6062C92.605 11.8463 92.2905 11.4685 91.6333 11.4685C91.4845 11.4612 91.336 11.4878 91.198 11.5464C91.0599 11.605 90.9356 11.6943 90.8335 11.8081C90.7313 11.9219 90.6538 12.0576 90.6063 12.2057C90.5588 12.3539 90.5423 12.5112 90.5581 12.6666V15.4326H89.6694V10.7046Z" fill="#333333"/>
<path d="M98.5151 9.52734V10.726H99.4907V11.512H98.5151V13.9432C98.5151 14.4385 98.7095 14.6553 99.1519 14.6553C99.2651 14.6549 99.3783 14.6478 99.4907 14.6338V15.411C99.3311 15.441 99.1694 15.457 99.0073 15.4587C98.019 15.4587 97.6255 15.0937 97.6255 14.1821V11.5119H96.9106V10.726H97.6255V9.52734H98.5151Z" fill="#333333"/>
<path d="M100.705 8.85889H101.585V11.4644H101.656C101.774 11.1921 101.969 10.9647 102.215 10.8131C102.461 10.6616 102.745 10.5932 103.029 10.6174C103.247 10.605 103.465 10.6432 103.667 10.7293C103.869 10.8155 104.051 10.9474 104.199 11.1158C104.347 11.2841 104.458 11.4848 104.524 11.7033C104.59 11.9218 104.609 12.1529 104.58 12.3801V15.4327H103.69V12.6103C103.69 11.8551 103.355 11.4726 102.727 11.4726C102.574 11.4594 102.421 11.4815 102.277 11.5372C102.133 11.5929 102.003 11.6809 101.895 11.7951C101.787 11.9093 101.704 12.0468 101.652 12.1982C101.6 12.3495 101.58 12.511 101.593 12.6713V15.4327H100.705L100.705 8.85889Z" fill="#333333"/>
<path d="M109.761 14.1561C109.641 14.5882 109.379 14.962 109.022 15.212C108.666 15.4621 108.236 15.5725 107.81 15.5239C107.513 15.5322 107.219 15.4725 106.946 15.3491C106.674 15.2257 106.43 15.0415 106.232 14.8093C106.034 14.5771 105.887 14.3025 105.8 14.0045C105.713 13.7065 105.689 13.3922 105.73 13.0835C105.691 12.7739 105.715 12.459 105.801 12.1601C105.888 11.8612 106.034 11.5853 106.231 11.351C106.428 11.1168 106.671 10.9297 106.942 10.8024C107.214 10.6752 107.509 10.6107 107.806 10.6134C109.059 10.6134 109.815 11.5122 109.815 12.9969V13.3225H106.635V13.3747C106.621 13.5483 106.642 13.7229 106.696 13.8875C106.75 14.0521 106.837 14.203 106.95 14.3305C107.062 14.458 107.2 14.5594 107.352 14.628C107.504 14.6967 107.669 14.7312 107.835 14.7292C108.047 14.756 108.262 14.7158 108.453 14.6138C108.644 14.5117 108.802 14.3524 108.906 14.156L109.761 14.1561ZM106.635 12.6324H108.91C108.921 12.4737 108.9 12.3143 108.849 12.1644C108.798 12.0146 108.718 11.8776 108.614 11.7622C108.509 11.6469 108.383 11.5557 108.243 11.4946C108.103 11.4336 107.953 11.4039 107.801 11.4075C107.648 11.4055 107.495 11.4358 107.353 11.4966C107.21 11.5575 107.081 11.6476 106.972 11.7618C106.864 11.8759 106.778 12.0118 106.72 12.1613C106.662 12.3108 106.633 12.471 106.635 12.6324H106.635Z" fill="#333333"/>
</svg>
