<svg width="36" height="36" viewBox="0 0 36 36" version="1.1" xmlns="http://www.w3.org/2000/svg" xmlns:xlink="http://www.w3.org/1999/xlink">
    <title> Information</title>
    <desc>Created using Figma</desc>
    <g id="Canvas" transform="translate(388 2988)">
        <g id="Icon / Information">
            <g id="Background">
                <use xlink:href="#path0_fill" transform="translate(-388 -2988)" fill="#F2F2F2"/>
            </g>
            <g id="Glyphs">
                <g id="Safari">
                    <g id="Vector">
                        <use xlink:href="#path1_fill" transform="translate(-380 -2980)" fill="#14CC48"/>
                    </g>
                    <g id="Vector">
                        <use xlink:href="#path2_fill" transform="translate(-375.715 -2975.71)" fill="#14CC48"/>
                    </g>
                </g>
            </g>
        </g>
    </g>
    <defs>
        <path id="path0_fill" fill-rule="evenodd" d="M 18 36C 27.9411 36 36 27.9411 36 18C 36 8.05887 27.9411 0 18 0C 8.05887 0 0 8.05887 0 18C 0 27.9411 8.05887 36 18 36Z"/>
        <path id="path1_fill" d="M 10 20C 4.48571 20 0 15.5143 0 10C 0 4.48571 4.48571 0 10 0C 15.5143 0 20 4.48571 20 10C 20 15.5143 15.5143 20 10 20ZM 10 0.952381C 5.01119 0.952381 0.952381 5.01119 0.952381 10C 0.952381 14.9888 5.01119 19.0476 10 19.0476C 14.9888 19.0476 19.0476 14.9888 19.0476 10C 19.0476 5.01119 14.9888 0.952381 10 0.952381Z"/>
        <path id="path2_fill" d="M 11.2897 0.139586C 11.1325 -0.0175946 10.8879 -0.0454946 10.6991 0.073553L 4.27051 4.12117C 4.21006 4.1593 4.15891 4.21046 4.12077 4.27091L 0.0731559 10.6995C -0.0449608 10.8874 -0.0179894 11.1329 0.139189 11.2901C 0.232194 11.3812 0.354032 11.4287 0.476808 11.4287C 0.564234 11.4287 0.652589 11.4045 0.730713 11.3552L 7.15928 7.30756C 7.21974 7.26943 7.27089 7.21828 7.30903 7.15782L 11.3566 0.729253C 11.4748 0.541381 11.4469 0.296777 11.2897 0.139586L 11.2897 0.139586ZM 1.99659 9.43268L 4.86944 4.86887L 6.5603 6.55973L 1.99659 9.43268Z"/>
    </defs>
</svg>
