<svg width="24" height="24" viewBox="0 0 24 24" fill="none" xmlns="http://www.w3.org/2000/svg">
<mask id="path-1-outside-1" maskUnits="userSpaceOnUse" x="0" y="0" width="24" height="24" fill="black">
<rect fill="white" width="24" height="24"/>
<path fill-rule="evenodd" clip-rule="evenodd" d="M3 10.1823C3 6.21561 6.21561 3 10.1823 3C14.1489 3 17.3645 6.21561 17.3645 10.1823C17.3645 14.1489 14.1489 17.3645 10.1823 17.3645C6.21561 17.3645 3 14.1489 3 10.1823ZM10.1823 1C5.11104 1 1 5.11104 1 10.1823C1 15.2535 5.11104 19.3645 10.1823 19.3645C12.3577 19.3645 14.3564 18.6081 15.9297 17.3438L21.2934 22.7075C21.684 23.098 22.3171 23.098 22.7076 22.7075C23.0982 22.317 23.0982 21.6838 22.7076 21.2933L17.3439 15.9296C18.6081 14.3563 19.3645 12.3576 19.3645 10.1823C19.3645 5.11104 15.2535 1 10.1823 1Z"/>
</mask>
<path fill-rule="evenodd" clip-rule="evenodd" d="M3 10.1823C3 6.21561 6.21561 3 10.1823 3C14.1489 3 17.3645 6.21561 17.3645 10.1823C17.3645 14.1489 14.1489 17.3645 10.1823 17.3645C6.21561 17.3645 3 14.1489 3 10.1823ZM10.1823 1C5.11104 1 1 5.11104 1 10.1823C1 15.2535 5.11104 19.3645 10.1823 19.3645C12.3577 19.3645 14.3564 18.6081 15.9297 17.3438L21.2934 22.7075C21.684 23.098 22.3171 23.098 22.7076 22.7075C23.0982 22.317 23.0982 21.6838 22.7076 21.2933L17.3439 15.9296C18.6081 14.3563 19.3645 12.3576 19.3645 10.1823C19.3645 5.11104 15.2535 1 10.1823 1Z" fill="#21AE49"/>
<path d="M15.9297 17.3438L16.2833 16.9902L15.9661 16.6731L15.6165 16.954L15.9297 17.3438ZM17.3439 15.9296L16.9541 15.6164L16.6732 15.966L16.9903 16.2831L17.3439 15.9296ZM10.1823 2.5C5.93947 2.5 2.5 5.93947 2.5 10.1823H3.5C3.5 6.49176 6.49176 3.5 10.1823 3.5V2.5ZM17.8645 10.1823C17.8645 5.93947 14.4251 2.5 10.1823 2.5V3.5C13.8728 3.5 16.8645 6.49176 16.8645 10.1823H17.8645ZM10.1823 17.8645C14.4251 17.8645 17.8645 14.4251 17.8645 10.1823H16.8645C16.8645 13.8728 13.8728 16.8645 10.1823 16.8645V17.8645ZM2.5 10.1823C2.5 14.4251 5.93947 17.8645 10.1823 17.8645V16.8645C6.49176 16.8645 3.5 13.8728 3.5 10.1823H2.5ZM1.5 10.1823C1.5 5.38719 5.38719 1.5 10.1823 1.5V0.5C4.8349 0.5 0.5 4.8349 0.5 10.1823H1.5ZM10.1823 18.8645C5.38719 18.8645 1.5 14.9774 1.5 10.1823H0.5C0.5 15.5296 4.8349 19.8645 10.1823 19.8645V18.8645ZM15.6165 16.954C14.1288 18.1495 12.2397 18.8645 10.1823 18.8645V19.8645C12.4757 19.8645 14.584 19.0666 16.2429 17.7335L15.6165 16.954ZM21.647 22.354L16.2833 16.9902L15.5761 17.6973L20.9399 23.0611L21.647 22.354ZM22.3541 22.354C22.1588 22.5492 21.8422 22.5492 21.647 22.354L20.9399 23.0611C21.5257 23.6469 22.4754 23.6469 23.0612 23.0611L22.3541 22.354ZM22.3541 21.6469C22.5493 21.8421 22.5493 22.1587 22.3541 22.354L23.0612 23.0611C23.647 22.4753 23.647 21.5255 23.0612 20.9398L22.3541 21.6469ZM16.9903 16.2831L22.3541 21.6469L23.0612 20.9398L17.6975 15.576L16.9903 16.2831ZM18.8645 10.1823C18.8645 12.2396 18.1496 14.1287 16.9541 15.6164L17.7337 16.2428C19.0666 14.5839 19.8645 12.4756 19.8645 10.1823H18.8645ZM10.1823 1.5C14.9774 1.5 18.8645 5.38719 18.8645 10.1823H19.8645C19.8645 4.8349 15.5296 0.5 10.1823 0.5V1.5Z" fill="#21AE49" mask="url(#path-1-outside-1)"/>
</svg>
