<svg width="25" height="25" viewBox="0 0 25 25" version="1.1" xmlns="http://www.w3.org/2000/svg" xmlns:xlink="http://www.w3.org/1999/xlink">
    <title> My Beacons</title>
    <desc>Created using Figma</desc>
    <g id="Canvas" transform="translate(14613 1203)">
        <g id="Icons / Navigation / My Beacons">
            <g id="Categories">
                <use xlink:href="#path0_fill" transform="translate(-14611 -1202)" fill="#8E8E93"/>
            </g>
            <g id="Shape">
                <use xlink:href="#path1_fill" transform="translate(-14613 -1198)" fill="#FFFFFF"/>
                <mask id="mask0_outline_ins">
                    <use xlink:href="#path1_fill" fill="white" transform="translate(-14613 -1198)"/>
                </mask>
                <g mask="url(#mask0_outline_ins)">
                    <use xlink:href="#path2_stroke_2x" transform="translate(-14613 -1198)" fill="#8E8E93"/>
                </g>
            </g>
        </g>
    </g>
    <defs>
        <path id="path0_fill" fill-rule="evenodd" d="M 2 0L 3 0L 4 0L 18 0L 19 0L 19 1L 19 2L 20 2L 21 2L 21 3L 21 4L 20 4L 20 3L 1 3L 1 4L 0 4L 0 3L 0 2L 1 2L 2 2L 2 1L 2 0ZM 3 2L 18 2L 18 1L 3 1L 3 2Z"/>
        <path id="path1_fill" fill-rule="evenodd" d="M 1 0L 0 0L 0 1L 0 19L 0 20L 1 20L 24 20L 25 20L 25 19L 25 1L 25 0L 24 0L 1 0Z"/>
        <path id="path2_stroke_2x" d="M 0 0L 0 -1L -1 -1L -1 0L 0 0ZM 0 20L -1 20L -1 21L 0 21L 0 20ZM 25 20L 25 21L 26 21L 26 20L 25 20ZM 25 0L 26 0L 26 -1L 25 -1L 25 0ZM 1 -1L 0 -1L 0 1L 1 1L 1 -1ZM -1 0L -1 1L 1 1L 1 0L -1 0ZM -1 1L -1 19L 1 19L 1 1L -1 1ZM -1 19L -1 20L 1 20L 1 19L -1 19ZM 0 21L 1 21L 1 19L 0 19L 0 21ZM 1 21L 24 21L 24 19L 1 19L 1 21ZM 24 21L 25 21L 25 19L 24 19L 24 21ZM 26 20L 26 19L 24 19L 24 20L 26 20ZM 26 19L 26 1L 24 1L 24 19L 26 19ZM 26 1L 26 0L 24 0L 24 1L 26 1ZM 25 -1L 24 -1L 24 1L 25 1L 25 -1ZM 24 -1L 1 -1L 1 1L 24 1L 24 -1Z"/>
    </defs>
</svg>
