<svg width="25" height="25" viewBox="0 0 25 25" version="1.1" xmlns="http://www.w3.org/2000/svg" xmlns:xlink="http://www.w3.org/1999/xlink">
    <title> My Beacons</title>
    <desc>Created using Figma</desc>
    <g id="Canvas" transform="translate(3199 1080)">
        <rect x="-3199" y="-1080" width="25" height="25" fill="#333333"/>
        <clipPath id="clip-0" clip-rule="evenodd">
            <path d="M -3699 -1093L -2259 -1093L -2259 -69L -3699 -69L -3699 -1093Z" fill="#FFFFFF"/>
        </clipPath>
        <g id="1.0 My Beacons - First Visit" clip-path="url(#clip-0)">
            <path d="M -3699 -1093L -2259 -1093L -2259 -69L -3699 -69L -3699 -1093Z" fill="#FFFFFF"/>
            <g id="Navigation / Main">
                <g id="Background" filter="url(#filter0_d)">
                    <use xlink:href="#path0_fill" transform="translate(-3699 -1093)" fill="#FFFFFF"/>
                </g>
                <g id="Menu Item - 1 ON">
                    <g id="Icons / Navigation / My Beacons">
                        <g id="Categories">
                            <use xlink:href="#path1_fill" transform="translate(-3199 -1079)" fill="#14CC48"/>
                        </g>
                    </g>
                </g>
            </g>
        </g>
    </g>
    <defs>
        <filter id="filter0_d" filterUnits="userSpaceOnUse" x="-3699" y="-1093" width="1440" height="54" color-interpolation-filters="sRGB">
            <feFlood flood-opacity="0" result="BackgroundImageFix"/>
            <feColorMatrix in="SourceAlpha" type="matrix" values="0 0 0 0 0 0 0 0 0 0 0 0 0 0 0 0 0 0 255 0"/>
            <feOffset dx="0" dy="1"/>
            <feGaussianBlur stdDeviation="0.5"/>
            <feColorMatrix type="matrix" values="0 0 0 0 0 0 0 0 0 0 0 0 0 0 0 0 0 0 0.12 0"/>
            <feBlend mode="normal" in2="BackgroundImageFix" result="effect1_dropShadow"/>
            <feBlend mode="normal" in="SourceGraphic" in2="effect1_dropShadow" result="shape"/>
        </filter>
        <path id="path0_fill" d="M 0 0L 1440 0L 1440 52L 0 52L 0 0Z"/>
        <path id="path1_fill" fill-rule="evenodd" d="M 5 0L 4 0L 4 1L 4 2L 3 2L 2 2L 2 3L 2 4L 1 4L 0 4L 0 5L 0 23L 0 24L 1 24L 24 24L 25 24L 25 23L 25 5L 25 4L 24 4L 23 4L 23 3L 23 2L 22 2L 21 2L 21 1L 21 0L 20 0L 6 0L 5 0ZM 22 4L 22 3L 3 3L 3 4L 22 4ZM 20 2L 5 2L 5 1L 20 1L 20 2Z"/>
    </defs>
</svg>
