<svg width="36" height="36" viewBox="0 0 36 36" version="1.1" xmlns="http://www.w3.org/2000/svg" xmlns:xlink="http://www.w3.org/1999/xlink">
    <title> Information</title>
    <desc>Created using Figma</desc>
    <g id="Canvas" transform="translate(388 3048)">
        <g id="Icon / Information">
            <g id="Background">
                <use xlink:href="#path0_fill" transform="translate(-388 -3048)" fill="#F2F2F2"/>
            </g>
            <g id="Glyphs">
                <g id="Phone Icon">
                    <use xlink:href="#path1_fill" transform="translate(-378 -3038)" fill="#14CC48"/>
                </g>
            </g>
        </g>
    </g>
    <defs>
        <path id="path0_fill" fill-rule="evenodd" d="M 18 36C 27.9411 36 36 27.9411 36 18C 36 8.05887 27.9411 0 18 0C 8.05887 0 0 8.05887 0 18C 0 27.9411 8.05887 36 18 36Z"/>
        <path id="path1_fill" fill-rule="evenodd" d="M 1.28317 6.46204C 0.354153 4.77775 0 3.41991 0 2.50279C 0 1.58567 0.225329 1.32263 0.453976 1.11013C 0.682624 0.897622 1.71366 0.261954 1.88934 0.143404C 2.06501 0.0248542 2.73549 -0.205535 3.15596 0.399318C 3.57643 1.00417 4.36823 2.21859 4.91413 3.02535C 5.77074 4.16805 5.0883 4.66968 4.86786 4.97035C 4.46223 5.5236 4.22867 5.66006 4.22867 6.33941C 4.22867 7.01876 6.12727 8.94882 6.58124 9.42436C 7.03177 9.89629 8.92355 11.5547 9.50975 11.6434C 10.1001 11.7327 10.8904 11.1077 11.0584 10.9492C 11.9131 10.293 12.3956 10.7905 12.7893 11.0068C 13.1831 11.223 14.9619 12.3315 15.5132 12.7052C 16.032 13.0788 15.9996 13.6562 15.9996 13.6562C 15.9996 13.6562 14.9295 15.3546 14.7998 15.5584C 14.6377 15.7962 14.2485 16 13.373 16C 12.4975 16 11.562 15.8401 9.33887 14.6174C 7.5198 13.617 5.78571 12.0504 4.87776 11.1333C 3.93738 10.2162 2.34438 8.38598 1.28317 6.46204Z"/>
    </defs>
</svg>
