<svg width="25" height="25" viewBox="0 0 25 25" version="1.1" xmlns="http://www.w3.org/2000/svg" xmlns:xlink="http://www.w3.org/1999/xlink">
    <title> Messages</title>
    <desc>Created using Figma</desc>
    <g id="Canvas" transform="translate(14359 1203)">
        <g id="Icons / Naviation / Messages">
            <g id="Fill 1">
                <mask id="mask0_outline_out">
                    <rect id="mask0_outline_inv" fill="white" x="-1" y="-1" width="25" height="22" transform="translate(-14358 -1200)"/>
                    <use xlink:href="#path0_fill" fill="black" transform="translate(-14358 -1200)"/>
                </mask>
                <g mask="url(#mask0_outline_out)">
                    <use xlink:href="#path1_stroke_2x" transform="translate(-14358 -1200)" fill="#8E8E93"/>
                </g>
            </g>
        </g>
    </g>
    <defs>
        <path id="path0_fill" d="M 2.28294 19.4718L 2.90532 15.6366L 2.94623 15.3845L 2.75978 15.21C 0.972514 13.5371 0 11.4205 0 9.21825C 0 4.16067 5.13976 0 11.5 0C 17.8602 0 23 4.16067 23 9.21825C 23 14.2758 17.8602 18.4365 11.5 18.4365C 9.73958 18.4365 7.98622 18.1095 6.41474 17.4894L 6.20088 17.405L 6.00124 17.519L 2.41833 19.5652C 2.35494 19.5774 2.33582 19.5714 2.31844 19.5595C 2.29184 19.5412 2.27725 19.5068 2.28294 19.4718Z"/>
        <path id="path1_stroke_2x" d="M 2.28294 19.4718L 3.26996 19.6324L 3.27003 19.632L 2.28294 19.4718ZM 2.90532 15.6366L 1.91823 15.4764L 2.90532 15.6366ZM 2.94623 15.3845L 3.93332 15.5447L 4.01869 15.0186L 3.62957 14.6544L 2.94623 15.3845ZM 2.75978 15.21L 2.07643 15.9401L 2.07643 15.9401L 2.75978 15.21ZM 6.41474 17.4894L 6.7818 16.5592L 6.7818 16.5592L 6.41474 17.4894ZM 6.20088 17.405L 6.56794 16.4748L 6.12162 16.2987L 5.70497 16.5366L 6.20088 17.405ZM 6.00124 17.519L 5.50533 16.6506L 5.50532 16.6506L 6.00124 17.519ZM 2.41833 19.5652L 2.60769 20.5471L 2.77037 20.5157L 2.91424 20.4335L 2.41833 19.5652ZM 2.31844 19.5595L 1.74991 20.3822L 1.75376 20.3849L 2.31844 19.5595ZM 3.27003 19.632L 3.89241 15.7967L 1.91823 15.4764L 1.29585 19.3116L 3.27003 19.632ZM 3.89241 15.7967L 3.93332 15.5447L 1.95914 15.2243L 1.91823 15.4764L 3.89241 15.7967ZM 3.62957 14.6544L 3.44312 14.4799L 2.07643 15.9401L 2.26289 16.1146L 3.62957 14.6544ZM 3.44312 14.4799C 1.83376 12.9736 1 11.1124 1 9.21825L -1 9.21825C -1 11.7286 0.111264 14.1007 2.07643 15.9401L 3.44312 14.4799ZM 1 9.21825C 1 4.90556 5.47739 1 11.5 1L 11.5 -1C 4.80214 -1 -1 3.41578 -1 9.21825L 1 9.21825ZM 11.5 1C 17.5226 1 22 4.90556 22 9.21825L 24 9.21825C 24 3.41578 18.1979 -1 11.5 -1L 11.5 1ZM 22 9.21825C 22 13.5309 17.5226 17.4365 11.5 17.4365L 11.5 19.4365C 18.1979 19.4365 24 15.0207 24 9.21825L 22 9.21825ZM 11.5 17.4365C 9.83165 17.4408 8.26269 17.1485 6.7818 16.5592L 6.04769 18.4196C 7.70975 19.0705 9.64751 19.4323 11.5 19.4365L 11.5 17.4365ZM 6.7818 16.5592L 6.56794 16.4748L 5.83383 18.3352L 6.04769 18.4196L 6.7818 16.5592ZM 5.70497 16.5366L 5.50533 16.6506L 6.49715 18.3874L 6.69679 18.2734L 5.70497 16.5366ZM 5.50532 16.6506L 1.92241 18.6968L 2.91424 20.4335L 6.49715 18.3874L 5.50532 16.6506ZM 2.22896 18.5832C 2.23524 18.582 2.25727 18.5779 2.28982 18.575C 2.32218 18.5722 2.37766 18.5693 2.44771 18.5761C 2.52242 18.5833 2.60719 18.6009 2.69578 18.6355C 2.78328 18.6696 2.84738 18.7098 2.88313 18.7342L 1.75376 20.3849C 1.82395 20.4297 2.06411 20.5322 2.25456 20.5667C 2.41285 20.5821 2.54513 20.5591 2.60769 20.5471L 2.22896 18.5832ZM 2.88697 18.7369C 3.1948 18.9496 3.32292 19.3069 3.26996 19.6324L 1.29592 19.3112C 1.23157 19.7066 1.38888 20.1327 1.74992 20.3822L 2.88697 18.7369Z"/>
    </defs>
</svg>
