<svg width="24" height="24" viewBox="0 0 24 24" version="1.1" xmlns="http://www.w3.org/2000/svg" xmlns:xlink="http://www.w3.org/1999/xlink">
    <title>Group</title>
    <desc>Created using Figma</desc>
    <g id="Canvas" transform="translate(14223 1203)">
        <g id="Group">
            <g id="Icon">
                <use xlink:href="#path0_fill" transform="translate(-14223 -1203)" fill="#8C8C8C"/>
            </g>
        </g>
    </g>
    <defs>
        <path id="path0_fill" fill-rule="evenodd" d="M 9.59497 23.038L 14.407 23.038L 14.407 13.9119L 9.59497 13.9119L 9.59497 23.038ZM 16.8169 2.37579L 16.8169 3.83481L 17.7819 4.82482L 17.7819 3.3378L 18.7419 3.3378L 18.7419 5.83383L 19.7059 6.83784L 19.7059 2.37579L 16.8169 2.37579ZM 12.0008 1.17578L 20.6698 10.1849L 20.6698 23.038L 15.3708 23.038L 15.3708 12.9499L 8.63081 12.9499L 8.63081 23.038L 3.33081 23.038L 3.33081 10.1849L 12.0008 1.17578ZM 11.9099 0.00674093C 11.8119 0.0307412 11.7229 0.0807417 11.6549 0.155743L 0.141929 12.1089C -0.0510713 12.2999 -0.0470713 12.6169 0.152929 12.8049C 0.352929 12.9889 0.669929 12.9729 0.850929 12.7699L 2.36693 11.1899L 2.36693 24L 21.6339 24L 21.6339 11.1899L 23.1499 12.7699C 23.5939 13.2429 24.3029 12.5779 23.8599 12.1089L 12.3459 0.155743C 12.2349 0.0347412 12.0709 -0.0202594 11.9099 0.00674093Z"/>
    </defs>
</svg>
