<svg width="25" height="25" viewBox="0 0 25 25" version="1.1" xmlns="http://www.w3.org/2000/svg" xmlns:xlink="http://www.w3.org/1999/xlink">
    <title> Messages</title>
    <desc>Created using Figma</desc>
    <g id="Canvas" transform="translate(3051 -1013)">
        <rect x="-3051" y="1013" width="25" height="25" fill="#333333"/>
        <clipPath id="clip-0" clip-rule="evenodd">
            <path d="M -3699 1000L -2259 1000L -2259 2024L -3699 2024L -3699 1000Z" fill="#FFFFFF"/>
        </clipPath>
        <g id="2.0 Filters - First Visit" clip-path="url(#clip-0)">
            <path d="M -3699 1000L -2259 1000L -2259 2024L -3699 2024L -3699 1000Z" fill="#FFFFFF"/>
            <g id="Navigation / Main">
                <g id="Background" filter="url(#filter0_d)">
                    <use xlink:href="#path0_fill" transform="translate(-3699 1000)" fill="#FFFFFF"/>
                </g>
                <g id="Menu Item - 2 ON">
                    <g id="Icons / Naviation / Messages">
                        <g id="Icon">
                            <use xlink:href="#path1_fill" transform="translate(-3050 1014)" fill="#14CC48"/>
                        </g>
                    </g>
                </g>
            </g>
        </g>
    </g>
    <defs>
        <filter id="filter0_d" filterUnits="userSpaceOnUse" x="-3699" y="1000" width="1440" height="54" color-interpolation-filters="sRGB">
            <feFlood flood-opacity="0" result="BackgroundImageFix"/>
            <feColorMatrix in="SourceAlpha" type="matrix" values="0 0 0 0 0 0 0 0 0 0 0 0 0 0 0 0 0 0 255 0"/>
            <feOffset dx="0" dy="1"/>
            <feGaussianBlur stdDeviation="0.5"/>
            <feColorMatrix type="matrix" values="0 0 0 0 0 0 0 0 0 0 0 0 0 0 0 0 0 0 0.12 0"/>
            <feBlend mode="normal" in2="BackgroundImageFix" result="effect1_dropShadow"/>
            <feBlend mode="normal" in="SourceGraphic" in2="effect1_dropShadow" result="shape"/>
        </filter>
        <path id="path0_fill" d="M 0 0L 1440 0L 1440 52L 0 52L 0 0Z"/>
        <path id="path1_fill" fill-rule="evenodd" d="M 0 0L 0 10.3856L 11.5907 22L 22 11.5722L 10.4064 0L 0 0ZM 4.17897 4.24144C 3.41267 5.00925 3.41267 6.25387 4.17897 7.02167C 4.94527 7.78948 6.18745 7.78948 6.95375 7.02167C 7.72005 6.25387 7.72005 5.00925 6.95375 4.24144C 6.18745 3.47364 4.94527 3.47364 4.17897 4.24144Z"/>
    </defs>
</svg>
