<svg width="20" height="20" viewBox="0 0 20 20" version="1.1" xmlns="http://www.w3.org/2000/svg" xmlns:xlink="http://www.w3.org/1999/xlink">
    <title> Search</title>
    <desc>Created using Figma</desc>
    <g id="Canvas" transform="translate(3665 3060)">
        <g id="Icon / Search">
            <use xlink:href="#path0_fill" transform="translate(-3665 -3060)" fill="#BDBDBD"/>
        </g>
    </g>
    <defs>
        <path id="path0_fill" d="M 19.8693 19.2396L 14.2862 13.6564C 17.1691 10.4446 17.0673 5.48585 13.98 2.39852C 12.4332 0.851774 10.3766 2.71855e-08 8.18968 2.71855e-08C 6.0018 2.71855e-08 3.94518 0.851662 2.39851 2.39852C 0.851772 3.94526 2.71854e-08 6.00186 2.71854e-08 8.18969C 2.71854e-08 10.3767 0.851661 12.4342 2.39851 13.9809C 3.94525 15.5276 6.00184 16.3794 8.18968 16.3794C 10.2279 16.3794 12.1522 15.6391 13.6573 14.2863L 19.2404 19.8695C 19.3274 19.9565 19.4414 20 19.5553 20C 19.6693 20 19.7833 19.9565 19.8703 19.8695C 20.0434 19.6955 20.0434 19.4137 19.8694 19.2397L 19.8693 19.2396ZM 8.18968 15.4884C 6.24016 15.4884 4.40729 14.7289 3.02831 13.3509C 1.64947 11.9721 0.89001 10.1391 0.89001 8.18954C 0.89001 6.23999 1.64947 4.40714 3.02831 3.02816C 4.40716 1.64932 6.24014 0.889856 8.18968 0.889856C 10.1392 0.889856 11.9721 1.64932 13.351 3.02816C 16.1965 5.87365 16.1965 10.5043 13.351 13.35C 11.9722 14.7289 10.1392 15.4883 8.18968 15.4883L 8.18968 15.4884Z"/>
    </defs>
</svg>
