<svg width="220" height="60" viewBox="0 0 220 60" fill="none" xmlns="http://www.w3.org/2000/svg">
<path fill-rule="evenodd" clip-rule="evenodd" d="M212.321 6.85498C215.23 6.85947 217.579 9.18849 217.581 12.0524V41.7001C217.57 44.5572 215.223 46.8747 212.321 46.8769H191.675V51.2814H202.819C203.473 51.2814 203.994 51.8051 203.994 52.4378C203.994 53.0705 203.473 53.5941 202.819 53.5941H178.181C177.527 53.5941 177.005 53.0705 177.005 52.4378C177.005 51.8051 177.527 51.2814 178.181 51.2814H189.324V46.8769H168.678C165.777 46.8747 163.43 44.5571 163.419 41.7V12.0522C163.421 9.18838 165.77 6.85948 168.678 6.85498H212.321ZM212.323 44.567C213.913 44.5641 215.219 43.296 215.233 41.706V12.0515C215.23 10.4542 213.923 9.16808 212.322 9.16808H168.678C167.077 9.16808 165.769 10.4551 165.767 12.0524L165.767 41.7014L165.767 41.706C165.781 43.296 167.088 44.5641 168.678 44.567H212.323Z" fill="#333333"/>
<g clip-path="url(#clip0)">
<path fill-rule="evenodd" clip-rule="evenodd" d="M89.5975 13.2285C89.5975 13.1539 89.6721 13.0315 89.8382 13.0315H136.381C136.396 13.0315 136.46 13.0419 136.539 13.1238C136.576 13.1614 136.601 13.2003 136.614 13.2301C136.618 13.2377 136.62 13.2436 136.621 13.2476V42.5198C136.621 42.5943 136.547 42.7168 136.381 42.7168H89.8382C89.8229 42.7168 89.7588 42.7064 89.6795 42.6244C89.6431 42.5869 89.6182 42.548 89.6045 42.5182C89.6011 42.5105 89.5988 42.5047 89.5975 42.5007V13.2285ZM89.8382 11.063C88.6529 11.063 87.629 11.9999 87.629 13.2285V42.5198C87.629 43.0998 87.912 43.6288 88.2651 43.9936C88.6294 44.3698 89.1777 44.6853 89.8382 44.6853H136.381C137.566 44.6853 138.59 43.7483 138.59 42.5198V13.2285C138.59 12.6484 138.307 12.1194 137.954 11.7547C137.589 11.3784 137.041 11.063 136.381 11.063H89.8382ZM81.9466 48.5855C81.9466 47.9913 82.4283 47.5096 83.0225 47.5096H143.049C143.643 47.5096 144.125 47.9913 144.125 48.5855C144.125 49.1797 143.643 49.6614 143.049 49.6614H83.0225C82.4283 49.6614 81.9466 49.1797 81.9466 48.5855Z" fill="#333333"/>
</g>
<path fill-rule="evenodd" clip-rule="evenodd" d="M44.9162 15H64.3003C65.3324 15 66.2162 15.8502 66.1788 16.9244L66.1802 44.2028C66.1802 45.572 65.0747 46.72 63.6741 46.72H45.5064C44.1432 46.72 43.0002 45.6096 43.0002 44.2028V16.9244C43.0002 15.8516 43.8481 15 44.9162 15ZM54.0235 45.3608C54.1915 45.4715 54.3924 45.5359 54.6083 45.5359C54.8968 45.5359 55.1586 45.4208 55.3507 45.234C55.6307 45.0105 55.8101 44.6662 55.8101 44.2801C55.8101 43.6063 55.2639 43.0601 54.5901 43.0601C53.9163 43.0601 53.3701 43.6063 53.3701 44.2801C53.3701 44.7494 53.6351 45.1568 54.0235 45.3608ZM64.0051 42.0557C64.447 42.0557 64.8155 41.6855 64.8155 41.2417V17.4795C64.8155 16.9243 64.3736 16.4805 63.8208 16.4805H45.3955C44.8428 16.4805 44.4009 16.9243 44.4009 17.4795V41.0566C44.4009 41.6118 44.8428 42.0557 45.3955 42.0557H64.0051Z" fill="#333333"/>
<g clip-path="url(#clip1)">
<path d="M18.2787 18.6711H8.56284C7.54271 18.6711 6.71131 19.5036 6.71131 20.5227V42.2904C6.71131 43.3106 7.54378 44.142 8.56284 44.142H18.2787C19.2988 44.142 20.1302 43.3095 20.1302 42.2904V20.5227C20.1302 19.5036 19.2977 18.6711 18.2787 18.6711V18.6711ZM11.8634 20.0404H14.95C15.1911 20.0404 15.3798 20.2281 15.3798 20.4703C15.3798 20.7114 15.1922 20.9002 14.95 20.9002H11.8634C11.6222 20.9002 11.4335 20.7125 11.4335 20.4703C11.4073 20.2281 11.6222 20.0404 11.8634 20.0404V20.0404ZM13.393 42.7999C12.722 42.7999 12.158 42.2359 12.158 41.5649C12.158 40.8939 12.722 40.3298 13.393 40.3298C14.064 40.3298 14.6281 40.8939 14.6281 41.5649C14.6281 42.2631 14.064 42.7999 13.393 42.7999ZM18.8952 38.9889H7.9182V22.2673H18.8952V38.9889Z" fill="#333333"/>
</g>
<defs>
<clipPath id="clip0">
<rect width="62.22" height="60" fill="white" transform="translate(82)"/>
</clipPath>
<clipPath id="clip1">
<rect width="26.84" height="26.84" fill="white" transform="translate(0 18)"/>
</clipPath>
</defs>
</svg>
