<svg width="161" height="50" viewBox="0 0 161 50" fill="none" xmlns="http://www.w3.org/2000/svg">
<path d="M155.764 50H5.23577C2.26406 50 0 47.75 0 44.7368V5.26316C0 2.25 2.26406 0 5.23577 0H155.764C158.736 0 161 2.25 161 5.26316V44.7368C161 47.75 158.736 50 155.764 50Z" fill="black"/>
<path fill-rule="evenodd" clip-rule="evenodd" d="M12.855 25.1573V12.0154C12.855 11.2645 13.479 10.6387 14.103 10.6387C14.7271 10.6387 14.9767 10.7638 15.3511 11.0142L39.4387 24.2812C39.9379 24.5315 40.1875 24.907 40.1875 25.2824C40.1875 25.6579 39.9379 26.0334 39.4387 26.2837L15.3511 39.5507C15.1015 39.6759 14.7271 39.9262 14.103 39.9262C13.479 39.9262 12.855 39.3004 12.855 38.5495V25.1573Z" fill="url(#paint0_linear)"/>
<path fill-rule="evenodd" clip-rule="evenodd" d="M28.4558 25.2824L13.8535 10.6387C13.9783 10.6387 13.9783 10.6387 14.1031 10.6387C14.7272 10.6387 14.9768 10.7638 15.3512 11.0142L33.0737 20.7767L28.4558 25.2824Z" fill="url(#paint1_linear)"/>
<path fill-rule="evenodd" clip-rule="evenodd" d="M32.9488 29.6631L28.4558 25.1573L33.0736 20.5264L39.4388 24.0309C39.938 24.2812 40.1876 24.6567 40.1876 25.0321C40.1876 25.4076 39.938 25.7831 39.4388 26.0334L32.9488 29.6631Z" fill="url(#paint2_linear)"/>
<path fill-rule="evenodd" clip-rule="evenodd" d="M13.9783 39.6758L28.4558 25.1572L32.9488 29.663L15.3511 39.3004C14.9767 39.5507 14.7271 39.6758 13.9783 39.6758C14.1031 39.6758 14.1031 39.6758 13.9783 39.6758Z" fill="url(#paint3_linear)"/>
<path fill-rule="evenodd" clip-rule="evenodd" d="M89.3613 43.0553C88.7373 42.5546 88.238 41.6785 87.9884 41.1779L89.9853 40.3018C90.1101 40.5521 90.3597 40.9276 90.6094 41.303C91.1086 41.8037 91.8574 42.3043 92.6063 42.3043C93.3551 42.3043 94.2287 41.9288 94.728 41.303C95.1024 40.6772 95.352 40.0514 95.352 39.1753V38.4243C93.8543 40.3018 90.7342 40.0514 88.9869 38.0489C87.1148 36.0463 87.1148 32.667 88.9869 30.6644C90.859 28.787 93.6047 28.5367 95.2272 30.2889V29.4128H97.3489V38.7998C97.3489 41.1779 96.4752 42.5546 95.352 43.4308C94.6031 44.0566 93.4799 44.3069 92.4814 44.3069C91.3582 44.1817 90.2349 43.8062 89.3613 43.0553ZM141.655 43.5559L143.777 38.5495L140.033 29.9135H142.154L144.775 36.0463L147.396 29.9135H149.518L143.777 43.5559H141.655ZM131.546 38.7998C130.922 38.174 130.672 37.2979 130.672 36.4218C130.672 35.6708 130.922 34.9199 131.421 34.4192C132.295 33.5431 133.543 33.1676 134.916 33.1676C135.789 33.1676 136.538 33.2928 137.162 33.6682C137.162 32.1663 135.914 31.5405 134.916 31.5405C134.042 31.5405 133.168 32.0412 132.794 32.9173L130.922 32.1663C131.296 31.2902 132.295 29.6631 134.791 29.6631C136.039 29.6631 137.287 30.0386 138.036 30.9147C138.785 31.7908 139.034 32.7921 139.034 34.1689V39.4256H136.912V38.5495C136.663 38.925 136.164 39.1753 135.789 39.4256C135.29 39.676 134.666 39.8011 134.042 39.8011C133.293 39.676 132.17 39.4256 131.546 38.7998ZM65.0241 34.2941C65.0241 31.7908 66.8962 29.0373 70.2659 29.0373C73.5109 29.0373 75.5078 31.7908 75.5078 34.2941C75.5078 36.7973 73.6357 39.5508 70.2659 39.5508C66.8962 39.5508 65.0241 36.7973 65.0241 34.2941ZM76.2566 34.2941C76.2566 31.7908 78.1287 29.0373 81.4985 29.0373C84.7435 29.0373 86.7404 31.7908 86.7404 34.2941C86.7404 36.7973 84.8683 39.5508 81.4985 39.5508C78.2535 39.5508 76.2566 36.7973 76.2566 34.2941ZM50.921 37.0476C47.8008 33.9186 47.9256 28.787 51.0458 25.5328C52.6683 23.9057 54.6652 23.1548 56.7869 23.1548C58.7838 23.1548 60.7807 23.9057 62.2784 25.4077L60.7807 27.0348C58.5342 24.7819 54.9148 24.907 52.7931 27.1599C50.5466 29.538 50.5466 33.1676 52.7931 35.5457C55.0396 37.9237 58.7838 38.0489 61.0303 35.6708C61.7791 34.9199 62.0287 33.9186 62.1535 32.9173H56.9117V30.6644H64.2753C64.4001 31.1651 64.4001 31.7909 64.4001 32.4167C64.4001 34.2941 63.6512 36.1715 62.4032 37.4231C61.0303 38.7998 59.0334 39.5508 57.0365 39.5508C54.79 39.4256 52.5435 38.6747 50.921 37.0476ZM103.714 37.9237C101.842 35.9212 101.842 32.5418 103.714 30.4141C105.586 28.4115 108.706 28.4115 110.454 30.4141C111.078 31.0399 111.452 31.916 111.826 32.7921L104.962 35.6708C105.336 36.547 106.21 37.2979 107.458 37.2979C108.581 37.2979 109.33 36.9224 110.079 35.796L111.951 37.0476C111.702 37.2979 111.452 37.5482 111.327 37.7986C109.205 39.9263 105.586 39.9263 103.714 37.9237ZM116.694 39.4257V25.5329H121.187C123.808 25.5329 125.93 27.4103 125.93 29.6631C125.93 31.916 124.057 33.7934 121.686 33.7934H118.94V39.3005H116.694V39.4257ZM127.178 39.4257V25.5329H129.299V39.4257H127.178ZM98.9714 39.1753V23.6554H101.218V39.1753H98.9714ZM137.037 35.2953C136.538 34.9199 135.789 34.7947 135.04 34.7947C133.543 34.7947 132.669 35.5457 132.669 36.4218C132.669 37.2979 133.543 37.7985 134.416 37.7985C135.664 37.7985 137.037 36.7973 137.037 35.2953ZM73.1365 34.2941C73.1365 32.7921 72.138 31.165 70.2659 31.165C68.3938 31.165 67.3954 32.7921 67.3954 34.2941C67.3954 35.796 68.3938 37.4231 70.2659 37.4231C72.0132 37.4231 73.1365 35.796 73.1365 34.2941ZM84.369 34.2941C84.369 32.7921 83.3706 31.165 81.4985 31.165C79.6264 31.165 78.628 32.7921 78.628 34.2941C78.628 35.796 79.6264 37.4231 81.4985 37.4231C83.3706 37.4231 84.369 35.796 84.369 34.2941ZM95.4768 35.1702C95.4768 35.045 95.4768 34.9199 95.6016 34.7947C95.6016 34.6695 95.6016 34.4192 95.6016 34.2941C95.6016 34.1689 95.6016 33.9186 95.6016 33.7934V33.6683C95.6016 33.5431 95.4768 33.2928 95.4768 33.1676C95.1024 31.916 93.9791 31.0399 92.8559 31.0399C91.3582 31.0399 90.1101 32.5418 90.1101 34.1689C90.1101 35.9212 91.3582 37.2979 92.9807 37.2979C93.9791 37.4231 94.9776 36.547 95.4768 35.1702ZM104.588 34.0438L109.205 32.0412C108.706 31.1651 107.957 30.9147 107.333 30.9147C105.461 31.0399 104.338 33.0425 104.588 34.0438ZM123.683 29.7883C123.683 28.5367 122.685 27.6606 121.312 27.6606H118.816V32.0412H121.436C122.685 32.0412 123.683 31.0399 123.683 29.7883Z" fill="white"/>
<path fill-rule="evenodd" clip-rule="evenodd" d="M143.278 41.0527H143.153V40.9275H143.278H143.153V41.0527H143.278Z" fill="white"/>
<path fill-rule="evenodd" clip-rule="evenodd" d="M143.527 41.0527C143.527 40.9275 143.527 40.9275 143.527 41.0527C143.402 40.9275 143.402 40.9275 143.527 41.0527C143.402 41.0527 143.402 41.0527 143.527 41.0527ZM143.527 40.9275C143.527 41.0527 143.527 41.0527 143.527 40.9275C143.527 41.0527 143.402 41.0527 143.527 40.9275C143.527 40.9275 143.402 40.9275 143.527 40.9275Z" fill="white"/>
<path fill-rule="evenodd" clip-rule="evenodd" d="M143.652 40.9275H143.527H143.652V41.0527V40.9275Z" fill="white"/>
<path d="M49.1736 13.2671C49.1736 11.0142 50.7961 9.63745 52.793 9.63745C54.1658 9.63745 55.0395 10.2633 55.6635 11.1394L54.6651 11.7652C54.2906 11.2645 53.6666 10.8891 52.793 10.8891C51.4201 10.8891 50.4216 11.8903 50.4216 13.3923C50.4216 14.8942 51.4201 15.8955 52.793 15.8955C53.5418 15.8955 54.1658 15.52 54.4154 15.2697V14.1432H52.4185V13.0168H55.7883V15.6452C55.1643 16.3961 54.1658 16.8968 52.9178 16.8968C50.7961 16.8968 49.1736 15.3948 49.1736 13.2671Z" fill="white"/>
<path d="M57.2861 16.7714V9.76245H62.0288V10.8889H58.4094V12.6411H61.904V13.7676H58.4094V15.7702H62.0288V16.8966L57.2861 16.7714Z" fill="white"/>
<path d="M65.5233 16.7714V10.8889H63.4016V9.76245H68.8931V10.8889H66.7714V16.7714H65.5233Z" fill="white"/>
<path d="M73.1365 16.7714V9.76245H74.3845V16.7714H73.1365Z" fill="white"/>
<path d="M77.7543 16.7714V10.8889H75.6326V9.76245H81.124V10.8889H79.0023V16.7714H77.7543Z" fill="white"/>
<path fill-rule="evenodd" clip-rule="evenodd" d="M88.7373 9.63745C86.6156 9.63745 85.1179 11.1394 85.1179 13.2671C85.1179 15.2697 86.6156 16.8968 88.7373 16.8968C90.859 16.8968 92.3567 15.3948 92.3567 13.2671C92.3567 11.1394 90.859 9.63745 88.7373 9.63745ZM88.6125 10.7639C90.1102 10.7639 90.9838 11.7652 90.9838 13.2671C90.9838 14.6439 90.1102 15.7703 88.6125 15.7703C87.1148 15.7703 86.2412 14.769 86.2412 13.2671C86.2412 11.8903 87.2396 10.7639 88.6125 10.7639Z" fill="white"/>
<path d="M98.5969 16.7714L94.9776 11.765V16.7714H93.7295V9.76245H94.9776L98.5969 14.6437V9.76245H99.845V16.7714H98.5969Z" fill="white"/>
<defs>
<linearGradient id="paint0_linear" x1="7.49934" y1="12.5967" x2="15.4468" y2="41.1044" gradientUnits="userSpaceOnUse">
<stop stop-color="#006884"/>
<stop offset="1" stop-color="#8AD1D0"/>
</linearGradient>
<linearGradient id="paint1_linear" x1="5.63236" y1="20.1998" x2="20.9514" y2="34.507" gradientUnits="userSpaceOnUse">
<stop stop-color="#24BBB6"/>
<stop offset="1" stop-color="#DBE692"/>
</linearGradient>
<linearGradient id="paint2_linear" x1="40.7016" y1="30.1889" x2="40.7016" y2="20.2406" gradientUnits="userSpaceOnUse">
<stop stop-color="#FCC072"/>
<stop offset="1" stop-color="#F58A5B"/>
</linearGradient>
<linearGradient id="paint3_linear" x1="26.1226" y1="48.0213" x2="36.4764" y2="29.98" gradientUnits="userSpaceOnUse">
<stop stop-color="#712B8F"/>
<stop offset="1" stop-color="#EA1D27"/>
</linearGradient>
</defs>
</svg>
