<svg width="60" height="60" viewBox="0 0 60 60" fill="none" xmlns="http://www.w3.org/2000/svg">
<path fill-rule="evenodd" clip-rule="evenodd" d="M20.9185 0H39.0815C45.105 0 48.116 0 51.3585 1.025C54.8985 2.3135 57.6865 5.1015 58.975 8.6415C60 11.8835 60 14.8955 60 20.9185V39.0815C60 45.105 60 48.116 58.975 51.3585C57.6865 54.8985 54.8985 57.6865 51.3585 58.9745C48.116 60 45.105 60 39.0815 60H20.9185C14.895 60 11.8835 60 8.6415 58.9745C5.1015 57.6865 2.3135 54.8985 1.025 51.3585C0 48.116 0 45.105 0 39.0815V20.9185C0 14.8955 0 11.8835 1.025 8.6415C2.3135 5.1015 5.1015 2.3135 8.6415 1.025C11.8835 0 14.895 0 20.9185 0Z" fill="url(#paint0_linear)"/>
<path fill-rule="evenodd" clip-rule="evenodd" d="M30.5 56C44.5833 56 56 44.5833 56 30.5C56 16.4167 44.5833 5 30.5 5C16.4167 5 5 16.4167 5 30.5C5 44.5833 16.4167 56 30.5 56Z" stroke="white"/>
<path fill-rule="evenodd" clip-rule="evenodd" d="M30.5 54C43.4787 54 54 43.4787 54 30.5C54 17.5213 43.4787 7 30.5 7C17.5213 7 7 17.5213 7 30.5C7 43.4787 17.5213 54 30.5 54Z" stroke="white"/>
<path d="M21 22.5C22.3807 22.5 23.5 21.3807 23.5 20C23.5 18.6193 22.3807 17.5 21 17.5C19.6193 17.5 18.5 18.6193 18.5 20C18.5 21.3807 19.6193 22.5 21 22.5Z" fill="white"/>
<path d="M28.5 17C29.8807 17 31 15.8807 31 14.5C31 13.1193 29.8807 12 28.5 12C27.1193 12 26 13.1193 26 14.5C26 15.8807 27.1193 17 28.5 17Z" fill="white"/>
<path d="M44 23.5C45.3807 23.5 46.5 22.3807 46.5 21C46.5 19.6193 45.3807 18.5 44 18.5C42.6193 18.5 41.5 19.6193 41.5 21C41.5 22.3807 42.6193 23.5 44 23.5Z" fill="white"/>
<path d="M17 37.5C18.3807 37.5 19.5 36.3807 19.5 35C19.5 33.6193 18.3807 32.5 17 32.5C15.6193 32.5 14.5 33.6193 14.5 35C14.5 36.3807 15.6193 37.5 17 37.5Z" fill="white"/>
<path d="M35 29.5C36.3807 29.5 37.5 28.3807 37.5 27C37.5 25.6193 36.3807 24.5 35 24.5C33.6193 24.5 32.5 25.6193 32.5 27C32.5 28.3807 33.6193 29.5 35 29.5Z" fill="white"/>
<path d="M33.5 34C34.8807 34 36 32.8807 36 31.5C36 30.1193 34.8807 29 33.5 29C32.1193 29 31 30.1193 31 31.5C31 32.8807 32.1193 34 33.5 34Z" fill="white"/>
<path fill-rule="evenodd" clip-rule="evenodd" d="M34.5 37C35.8807 37 37 35.8807 37 34.5C37 33.1193 35.8807 32 34.5 32C33.1193 32 32 33.1193 32 34.5C32 35.8807 33.1193 37 34.5 37Z" fill="white"/>
<path fill-rule="evenodd" clip-rule="evenodd" d="M36 41C37.3807 41 38.5 39.8807 38.5 38.5C38.5 37.1193 37.3807 36 36 36C34.6193 36 33.5 37.1193 33.5 38.5C33.5 39.8807 34.6193 41 36 41Z" fill="white"/>
<path fill-rule="evenodd" clip-rule="evenodd" d="M40.5 43C41.8807 43 43 41.8807 43 40.5C43 39.1193 41.8807 38 40.5 38C39.1193 38 38 39.1193 38 40.5C38 41.8807 39.1193 43 40.5 43Z" fill="white"/>
<path fill-rule="evenodd" clip-rule="evenodd" d="M44.5 43C45.8807 43 47 41.8807 47 40.5C47 39.1193 45.8807 38 44.5 38C43.1193 38 42 39.1193 42 40.5C42 41.8807 43.1193 43 44.5 43Z" fill="white"/>
<path fill-rule="evenodd" clip-rule="evenodd" d="M28.25 51.5C29.4926 51.5 30.5 50.4926 30.5 49.25C30.5 48.0074 29.4926 47 28.25 47C27.0074 47 26 48.0074 26 49.25C26 50.4926 27.0074 51.5 28.25 51.5Z" fill="white"/>
<path fill-rule="evenodd" clip-rule="evenodd" d="M16.75 46.5C17.9926 46.5 19 45.4926 19 44.25C19 43.0074 17.9926 42 16.75 42C15.5074 42 14.5 43.0074 14.5 44.25C14.5 45.4926 15.5074 46.5 16.75 46.5Z" fill="white"/>
<path fill-rule="evenodd" clip-rule="evenodd" d="M21.75 16.5C22.9926 16.5 24 15.4926 24 14.25C24 13.0074 22.9926 12 21.75 12C20.5074 12 19.5 13.0074 19.5 14.25C19.5 15.4926 20.5074 16.5 21.75 16.5Z" fill="white"/>
<path fill-rule="evenodd" clip-rule="evenodd" d="M49.25 36.5C50.4926 36.5 51.5 35.4926 51.5 34.25C51.5 33.0074 50.4926 32 49.25 32C48.0074 32 47 33.0074 47 34.25C47 35.4926 48.0074 36.5 49.25 36.5Z" fill="white"/>
<path fill-rule="evenodd" clip-rule="evenodd" d="M37.75 49.5C38.9926 49.5 40 48.4926 40 47.25C40 46.0074 38.9926 45 37.75 45C36.5074 45 35.5 46.0074 35.5 47.25C35.5 48.4926 36.5074 49.5 37.75 49.5Z" fill="white"/>
<path d="M18 25C19.3807 25 20.5 23.8807 20.5 22.5C20.5 21.1193 19.3807 20 18 20C16.6193 20 15.5 21.1193 15.5 22.5C15.5 23.8807 16.6193 25 18 25Z" fill="white"/>
<path d="M15.5 29.5C16.8807 29.5 18 28.3807 18 27C18 25.6193 16.8807 24.5 15.5 24.5C14.1193 24.5 13 25.6193 13 27C13 28.3807 14.1193 29.5 15.5 29.5Z" fill="white"/>
<path d="M30.5 14C31.8807 14 33 12.8807 33 11.5C33 10.1193 31.8807 9 30.5 9C29.1193 9 28 10.1193 28 11.5C28 12.8807 29.1193 14 30.5 14Z" fill="white"/>
<path fill-rule="evenodd" clip-rule="evenodd" d="M23.5 43C24.8807 43 26 41.8807 26 40.5C26 39.1193 24.8807 38 23.5 38C22.1193 38 21 39.1193 21 40.5C21 41.8807 22.1193 43 23.5 43Z" fill="white"/>
<path fill-rule="evenodd" clip-rule="evenodd" d="M45.25 27.5C46.4926 27.5 47.5 26.4926 47.5 25.25C47.5 24.0074 46.4926 23 45.25 23C44.7555 23 44.2983 23.1595 43.9269 23.4299C43.3651 23.839 43 24.5019 43 25.25C43 26.4926 44.0074 27.5 45.25 27.5Z" fill="white"/>
<path fill-rule="evenodd" clip-rule="evenodd" d="M44.25 30.5C45.4926 30.5 46.5 29.4926 46.5 28.25C46.5 27.0074 45.4926 26 44.25 26C43.7555 26 43.2983 26.1595 42.9269 26.4299C42.3651 26.839 42 27.5019 42 28.25C42 29.4926 43.0074 30.5 44.25 30.5Z" fill="white"/>
<path fill-rule="evenodd" clip-rule="evenodd" d="M40.5 20.5C41.8807 20.5 43 19.3807 43 18C43 16.6193 41.8807 15.5 40.5 15.5C39.1193 15.5 38 16.6193 38 18C38 19.3807 39.1193 20.5 40.5 20.5Z" fill="white"/>
<path fill-rule="evenodd" clip-rule="evenodd" d="M18 34C19.3807 34 20.5 32.8807 20.5 31.5C20.5 30.1193 19.3807 29 18 29C16.6193 29 15.5 30.1193 15.5 31.5C15.5 32.8807 16.6193 34 18 34Z" fill="white"/>
<path fill-rule="evenodd" clip-rule="evenodd" d="M26 28.5C27.3807 28.5 28.5 27.3807 28.5 26C28.5 24.6193 27.3807 23.5 26 23.5C24.6193 23.5 23.5 24.6193 23.5 26C23.5 27.3807 24.6193 28.5 26 28.5Z" fill="white"/>
<defs>
<linearGradient id="paint0_linear" x1="30" y1="0" x2="30" y2="60" gradientUnits="userSpaceOnUse">
<stop stop-color="#FFAA00"/>
<stop offset="1" stop-color="#FFC200"/>
</linearGradient>
</defs>
</svg>
