<svg width="63" height="60" viewBox="0 0 63 60" fill="none" xmlns="http://www.w3.org/2000/svg">
<g clip-path="url(#clip0)">
<path d="M7.83798 12.0471H54.3804C55.0561 12.0471 55.6054 12.6987 55.6054 13.2284V42.5196C55.6054 43.1712 55.0561 43.7009 54.3804 43.7009H7.83798C7.16231 43.7009 6.61304 43.0493 6.61304 42.5196V13.2284C6.61304 12.5768 7.16231 12.0471 7.83798 12.0471V12.0471Z" stroke="#333333" stroke-width="5"/>
<path d="M0.733887 48.5853C0.733887 48.426 0.863035 48.2969 1.02235 48.2969H61.0486C61.2079 48.2969 61.337 48.426 61.337 48.5853C61.337 48.7446 61.2079 48.8738 61.0486 48.8738H1.02235C0.863037 48.8738 0.733887 48.7446 0.733887 48.5853Z" fill="#333333" stroke="#333333" stroke-width="4"/>
</g>
<defs>
<clipPath id="clip0">
<rect width="62.22" height="60" fill="white"/>
</clipPath>
</defs>
</svg>
