<svg width="38" height="38" viewBox="0 0 38 38" fill="none" xmlns="http://www.w3.org/2000/svg">
<path fill-rule="evenodd" clip-rule="evenodd" d="M28.9453 0C34.4375 0 38 3.5625 38 9.0547V28.9453C38 34.4375 34.4375 38 28.9453 38H9.0547C3.5625 38 0 34.4375 0 28.9453V9.0547C0 3.5625 3.5625 0 9.0547 0H28.9453Z" fill="#21AE49"/>
<path fill-rule="evenodd" clip-rule="evenodd" d="M13.3679 12.4661C13.766 12.4661 14.0887 12.7889 14.0887 13.1872C14.0887 14.032 14.3381 15.3249 15.0673 16.4018C15.7715 17.442 16.9396 18.3121 18.8934 18.3793H18.9174V19.8215H18.8453V19.8207C16.4024 19.7372 14.8207 18.6091 13.874 17.2108C12.9492 15.845 12.6472 14.2534 12.6472 13.1872C12.6472 12.7889 12.9699 12.4661 13.3679 12.4661Z" fill="white"/>
<path fill-rule="evenodd" clip-rule="evenodd" d="M12.467 13.187C12.467 12.6892 12.8704 12.2856 13.3679 12.2856C13.8655 12.2856 14.2688 12.6892 14.2688 13.187C14.2688 14.0042 14.5117 15.2597 15.2165 16.3006C15.8901 17.2954 17.0056 18.133 18.8965 18.1988H19.0976V20.0016H18.6651V19.993C16.2592 19.8607 14.679 18.721 13.7248 17.3118C12.7755 15.9098 12.467 14.2808 12.467 13.187ZM18.7372 19.6357V18.5525C16.8115 18.4447 15.6343 17.5605 14.9181 16.5028C14.1645 15.3898 13.9085 14.0595 13.9085 13.187C13.9085 12.8884 13.6665 12.6462 13.3679 12.6462C13.0694 12.6462 12.8274 12.8884 12.8274 13.187C12.8274 14.2256 13.1228 15.7798 14.0231 17.1095C14.9249 18.4414 16.4206 19.5236 18.7372 19.6357Z" fill="white"/>
<path fill-rule="evenodd" clip-rule="evenodd" d="M13.5066 6.44283C13.2835 6.68211 13.2097 6.98234 13.226 7.29115C13.2455 7.66257 13.3889 9.42102 13.5285 11.0976C13.598 11.9335 13.6663 12.7457 13.7173 13.349C13.7428 13.6506 13.7639 13.9 13.7786 14.074L13.8018 14.3464C13.8018 14.3465 13.8018 14.3465 13.4427 14.3771C13.0836 14.4077 13.0836 14.4076 13.0836 14.4076L13.0605 14.1349C13.0457 13.9609 13.0246 13.7114 12.9991 13.4097C12.9482 12.8062 12.8798 11.9937 12.8102 11.1575C12.6714 9.48983 12.5266 7.71479 12.5063 7.32902C12.4827 6.88065 12.5892 6.36962 12.9796 5.95089C13.3673 5.53501 13.9882 5.26084 14.8896 5.18408L14.9507 5.9026C14.1584 5.97008 13.7324 6.20065 13.5066 6.44283Z" fill="white"/>
<path d="M16.7833 5.54167C16.7833 5.97889 16.4289 6.33333 15.9916 6.33333C15.5544 6.33333 15.2 5.97889 15.2 5.54167C15.2 5.10445 15.5544 4.75 15.9916 4.75C16.4289 4.75 16.7833 5.10445 16.7833 5.54167Z" fill="white"/>
<path fill-rule="evenodd" clip-rule="evenodd" d="M24.7297 12.4661C24.3316 12.4661 24.0089 12.7889 24.0089 13.1872C24.0089 14.032 23.7595 15.3249 23.0303 16.4018C22.326 17.442 21.158 18.3121 19.2042 18.3793H19.1802V19.8215H19.2522V19.8207C21.6951 19.7372 23.2769 18.6091 24.2236 17.2108C25.1484 15.845 25.4504 14.2534 25.4504 13.1872C25.4504 12.7889 25.1277 12.4661 24.7297 12.4661Z" fill="white"/>
<path fill-rule="evenodd" clip-rule="evenodd" d="M25.6305 13.1871C25.6305 12.6892 25.2272 12.2856 24.7296 12.2856C24.2321 12.2856 23.8288 12.6892 23.8288 13.1871C23.8288 14.0042 23.5859 15.2597 22.8811 16.3006C22.2075 17.2954 21.092 18.133 19.201 18.1988H19V20.0017H19.4324V19.993C21.8383 19.8607 23.4186 18.721 24.3728 17.3118C25.322 15.9098 25.6305 14.2809 25.6305 13.1871ZM19.3603 19.6357V18.5525C21.286 18.4447 22.4633 17.5605 23.1794 16.5028C23.9331 15.3898 24.1891 14.0596 24.1891 13.1871C24.1891 12.8884 24.4311 12.6462 24.7296 12.6462C25.0282 12.6462 25.2702 12.8884 25.2702 13.1871C25.2702 14.2256 24.9748 15.7798 24.0745 17.1095C23.1727 18.4413 21.6769 19.5236 19.3603 19.6357Z" fill="white"/>
<path fill-rule="evenodd" clip-rule="evenodd" d="M24.5911 6.44256C24.8142 6.68186 24.8879 6.98209 24.8717 7.29088C24.8522 7.6623 24.7088 9.42078 24.5692 11.0974C24.4996 11.9332 24.4313 12.7455 24.3804 13.3487C24.3549 13.6504 24.3338 13.8998 24.3191 14.0738L24.2959 14.3462C24.2959 14.3462 24.2959 14.3462 24.655 14.3768C25.014 14.4074 25.014 14.4074 25.014 14.4073L25.0372 14.1347C25.0519 13.9607 25.0731 13.7112 25.0986 13.4095C25.1495 12.806 25.2178 11.9934 25.2875 11.1572C25.4262 9.48959 25.5711 7.71455 25.5914 7.32878C25.615 6.88041 25.5085 6.36938 25.1181 5.95065C24.7303 5.53477 24.1095 5.2606 23.2081 5.18384L23.147 5.90236C23.9392 5.96981 24.3653 6.2004 24.5911 6.44256Z" fill="white"/>
<path d="M21.3142 5.54167C21.3142 5.97889 21.6686 6.33333 22.1059 6.33333C22.5431 6.33333 22.8975 5.97889 22.8975 5.54167C22.8975 5.10445 22.5431 4.75 22.1059 4.75C21.6686 4.75 21.3142 5.10445 21.3142 5.54167Z" fill="white"/>
<path d="M18.3667 28.6584C18.3667 28.6584 18.6707 29.0484 19.1058 29.5265C20.6399 31.2123 22.3589 32.2978 24.2362 32.3931C25.3429 32.4495 26.1251 32.4583 26.7584 31.825L26.1251 30.7167C25.6501 31.1411 25.1319 31.1837 24.2952 31.1411C22.0084 30.875 21.2167 30.0834 19.7917 28.6584C19.3756 28.2423 18.8417 27.55 18.8417 27.55L18.3667 28.6584Z" fill="white"/>
<path fill-rule="evenodd" clip-rule="evenodd" d="M18.002 28.7056L18.7631 26.9297L19.0924 27.3567L19.0937 27.3584L19.098 27.3639L19.1151 27.3858C19.1301 27.405 19.1521 27.4331 19.1799 27.4681C19.2354 27.5383 19.3139 27.6362 19.405 27.7468C19.5891 27.9701 19.8187 28.2376 20.0156 28.4345C20.7345 29.1534 21.2622 29.6788 21.8868 30.0651C22.4987 30.4435 23.2188 30.6961 24.3216 30.8254C25.1442 30.8667 25.5428 30.8123 25.9141 30.4806L26.2059 30.2199L27.1533 31.878L26.9823 32.049C26.2355 32.796 25.3041 32.7646 24.2201 32.7095C22.2259 32.6079 20.4343 31.457 18.8716 29.7397C18.65 29.4963 18.462 29.2754 18.3293 29.1153C18.2629 29.0352 18.2102 28.9702 18.1739 28.9249C18.1558 28.9023 18.1417 28.8846 18.1321 28.8724L18.1211 28.8584L18.1181 28.8546L18.1171 28.8532C18.117 28.8532 18.1169 28.8531 18.3667 28.6584C18.3667 28.6584 18.6707 29.0485 19.1058 29.5266C20.6399 31.2124 22.3589 32.2979 24.2362 32.3932C25.3429 32.4496 26.125 32.4584 26.7584 31.8251L26.125 30.7168C26.0415 30.7914 25.9567 30.8542 25.869 30.9069C25.458 31.1535 24.9848 31.1762 24.2952 31.1412C22.0084 30.8751 21.2167 30.0834 19.7917 28.6584C19.546 28.4127 19.2592 28.0707 19.0655 27.8318C18.9312 27.6662 18.8417 27.5501 18.8417 27.5501L18.3667 28.6584L18.1171 28.8532L18.002 28.7056Z" fill="white"/>
<path d="M18.5993 19.158C18.5188 19.5013 18.4262 19.8839 18.3232 20.2961C18.029 21.4731 17.7098 22.6498 17.3775 23.7461C17.2529 24.1573 17.1291 24.5479 17.0067 24.9156C16.6617 25.9522 16.3274 26.8072 16.0133 27.4318C15.9389 27.5799 15.8663 27.7134 15.796 27.8317C14.7995 29.5073 13.5098 30.6047 12.292 31.1441C11.2026 31.6266 9.23201 31.4716 7.95157 30.4396C7.18419 29.8212 6.6394 28.8922 6.45877 28.0232C6.45209 27.991 6.44566 27.9582 6.43948 27.9248C6.39236 27.67 6.362 27.392 6.34575 27.1104C6.33524 26.9276 6.33217 26.7749 6.33305 26.6701C6.33343 26.6605 6.33603 26.6192 6.34154 26.5578C6.35113 26.4507 6.36567 26.3302 6.38603 26.2C6.44398 25.8294 6.53629 25.4598 6.66818 25.1214C6.70498 25.027 6.74447 24.9363 6.78658 24.8497C7.36811 23.6539 8.17181 22.8624 9.48376 22.4767C10.9716 22.0394 12.4106 22.4205 13.7432 23.3454C14.068 23.5708 14.3423 23.8596 14.5666 24.106C14.9908 24.5719 15.5166 25.3333 15.5166 25.3333L15.9916 23.9083C15.9916 23.9083 15.7589 23.5574 15.5742 23.3454C15.1607 22.8707 14.7332 22.5018 14.4707 22.3196C12.8496 21.1946 11.0343 20.7137 9.12295 21.2756C7.42929 21.7735 6.36931 22.8174 5.64513 24.3064C5.58794 24.424 5.53508 24.5456 5.48632 24.6706C5.31858 25.1011 5.20512 25.5553 5.13425 26.0084C5.09162 26.281 5.07231 26.4965 5.06705 26.6288C5.06534 26.79 5.06892 26.9695 5.08114 27.1817C5.10014 27.5114 5.13596 27.8391 5.1935 28.1503C5.20132 28.1925 5.20949 28.2343 5.21807 28.2755C5.45579 29.4194 6.15087 30.6047 7.15151 31.4111C8.82436 32.7592 11.3044 32.9545 12.8096 32.2876C14.2601 31.6453 15.7532 30.3748 16.8877 28.4671C16.9739 28.3222 17.0604 28.163 17.1475 27.9899C17.6121 27.0656 18.0957 25.7391 18.5908 24.106C18.9297 22.988 19.254 21.7923 19.5528 20.5969C19.6574 20.1787 19.7513 19.7903 19.8331 19.4415C19.8619 19.3192 19.887 19.2106 19.9085 19.1168C19.9214 19.0601 19.9303 19.0208 19.935 19H18.5908C18.5866 19.0188 18.6275 19.0381 18.5993 19.158Z" fill="white"/>
<path fill-rule="evenodd" clip-rule="evenodd" d="M15.3306 24.8563C15.0884 24.5925 14.7302 24.2022 14.5678 24.0239C14.3291 23.7617 14.068 23.5708 13.7432 23.3454C12.4106 22.4205 10.9716 22.0394 9.48379 22.4767C8.17184 22.8624 7.36814 23.6539 6.78661 24.8497C6.74449 24.9363 6.70501 25.027 6.66821 25.1214C6.53632 25.4599 6.44401 25.8294 6.38606 26.2C6.3657 26.3303 6.35116 26.4507 6.34157 26.5578C6.33606 26.6192 6.33346 26.6605 6.33308 26.6702C6.33219 26.7749 6.33527 26.9276 6.34578 27.1104C6.36202 27.392 6.39239 27.67 6.43951 27.9249C6.44569 27.9582 6.45212 27.991 6.4588 28.0232C6.63942 28.8922 7.18422 29.8212 7.9516 30.4397C9.23204 31.4716 11.2026 31.6267 12.292 31.1441C13.5098 30.6047 14.7995 29.5073 15.796 27.8317C15.8664 27.7134 15.9389 27.5799 16.0134 27.4318C16.3274 26.8072 16.6617 25.9522 17.0067 24.9156C17.1291 24.5479 17.2529 24.1573 17.3775 23.7461C17.7099 22.6499 18.029 21.4731 18.3233 20.2961C18.4227 19.8984 18.5123 19.5282 18.5908 19.1944C18.5937 19.1822 18.5965 19.1701 18.5994 19.1581C18.6196 19.0719 18.6042 19.0377 18.5955 19.0183C18.5933 19.0134 18.5915 19.0095 18.5908 19.0059C18.5904 19.0038 18.5904 19.0019 18.5908 19H19.935C19.9304 19.0208 19.9215 19.0601 19.9085 19.1168C19.8947 19.1773 19.8793 19.2441 19.8624 19.3167C19.8531 19.3566 19.8433 19.3982 19.8332 19.4415C19.7513 19.7903 19.6574 20.1787 19.5529 20.5969C19.2541 21.7923 18.9298 22.988 18.5908 24.106C18.0958 25.7392 17.6122 27.0656 17.1475 27.9899C17.0604 28.1631 16.9739 28.3222 16.8878 28.4671C15.7532 30.3748 14.2601 31.6453 12.8096 32.2877C11.3044 32.9546 8.82439 32.7592 7.15154 31.4111C6.1509 30.6047 5.45582 29.4194 5.2181 28.2756C5.20952 28.2343 5.20135 28.1925 5.19352 28.1503C5.13599 27.8392 5.10017 27.5114 5.08117 27.1817C5.06895 26.9695 5.06537 26.79 5.06708 26.6288C5.07234 26.4965 5.09165 26.281 5.13428 26.0084C5.20515 25.5553 5.31861 25.1011 5.48635 24.6707C5.53511 24.5456 5.58796 24.424 5.64515 24.3064C6.36934 22.8174 7.42932 21.7735 9.12298 21.2756C11.0343 20.7137 12.8497 21.1946 14.4707 22.3197C14.7332 22.5018 15.1607 22.8707 15.5742 23.3454C15.7589 23.5574 15.9917 23.9084 15.9917 23.9084L15.5742 25.1214C15.5742 25.1214 15.4723 25.0105 15.3306 24.8563ZM15.5742 25.1214L15.3411 25.3357L15.7008 25.727L16.342 23.8636L16.2556 23.7333L15.9917 23.9084C16.2556 23.7333 16.2556 23.7333 16.2556 23.7333L16.2547 23.7319L16.2524 23.7286L16.2442 23.7163C16.2371 23.7057 16.2268 23.6905 16.214 23.6717C16.1884 23.6342 16.1523 23.582 16.1103 23.5228C16.0276 23.4067 15.916 23.2556 15.813 23.1374C15.3847 22.6458 14.9381 22.2586 14.6513 22.0595C12.9715 20.8936 11.0579 20.3767 9.03368 20.9718C7.24179 21.4985 6.11737 22.6114 5.36041 24.1679C5.29923 24.2937 5.24296 24.4231 5.19131 24.5557C5.01388 25.0109 4.89519 25.4878 4.82141 25.9595C4.7773 26.2416 4.75649 26.4695 4.75063 26.6162L4.75048 26.6208L4.75041 26.6254C4.74864 26.7942 4.75241 26.9809 4.76504 27.1999C4.78461 27.54 4.82173 27.8812 4.88215 28.2079C4.89035 28.2523 4.89899 28.2964 4.90805 28.34C5.1605 29.5547 5.89437 30.8046 6.95283 31.6577C7.8419 32.3741 8.93735 32.7788 10.0021 32.9191C11.0644 33.0588 12.1214 32.9391 12.9379 32.5774C14.4543 31.9058 15.9952 30.5874 17.1599 28.6289C17.2505 28.4766 17.3405 28.3108 17.4304 28.1321C17.9074 27.1833 18.3972 25.8363 18.8939 24.1979C19.2346 23.0738 19.5603 21.8729 19.8601 20.6737C19.965 20.254 20.0592 19.8642 20.1415 19.5139C20.1703 19.3911 20.1956 19.2818 20.2172 19.1874C20.2302 19.1305 20.2392 19.0906 20.2441 19.069L20.3302 18.6833H18.3371L18.2818 18.931C18.2672 18.9961 18.2754 19.0513 18.2846 19.0865C18.2856 19.0908 18.2868 19.0949 18.288 19.0988C18.2085 19.4371 18.1174 19.8138 18.016 20.2193C17.7228 21.3925 17.405 22.564 17.0745 23.6543C16.9505 24.0631 16.8277 24.4509 16.7063 24.8156C16.3633 25.846 16.0346 26.6847 15.7304 27.2896C15.6587 27.4323 15.5897 27.5591 15.5238 27.6698C14.5567 29.2961 13.3144 30.3449 12.1637 30.8546C11.6866 31.0659 10.9842 31.1479 10.2362 31.0461C9.4918 30.9447 8.73661 30.6656 8.1503 30.1931C7.44056 29.6211 6.93468 28.7567 6.76885 27.9588C6.76267 27.929 6.75669 27.8984 6.75089 27.8673C6.70672 27.6282 6.67758 27.3638 6.66194 27.0922C6.65196 26.9193 6.64905 26.7761 6.64968 26.6793C6.64991 26.6756 6.65038 26.6681 6.65124 26.6562C6.6525 26.6388 6.65437 26.615 6.65697 26.5861C6.66593 26.4861 6.67961 26.3725 6.69893 26.249C6.75406 25.8964 6.8412 25.5496 6.96328 25.2365C6.99719 25.1494 7.03326 25.0665 7.07139 24.9882C7.62081 23.8584 8.36073 23.1369 9.57309 22.7805C10.9455 22.3771 12.2862 22.7196 13.5626 23.6056C13.8864 23.8302 14.3337 24.2371 14.3337 24.2371C14.3337 24.2371 14.6513 24.5845 14.9342 24.8927C15.044 25.0123 15.1457 25.1231 15.22 25.2039L15.3411 25.3357C15.3411 25.3357 15.3411 25.3357 15.5742 25.1214Z" fill="white"/>
<path fill-rule="evenodd" clip-rule="evenodd" d="M31.9833 29.7665C31.9833 31.6903 30.4237 33.2499 28.4999 33.2499C26.5761 33.2499 25.0166 31.6903 25.0166 29.7665C25.0166 27.8427 26.5761 26.2832 28.4999 26.2832C30.4237 26.2832 31.9833 27.8427 31.9833 29.7665ZM30.7166 29.7665C30.7166 30.9908 29.7242 31.9832 28.4999 31.9832C27.2757 31.9832 26.2833 30.9908 26.2833 29.7665C26.2833 28.5423 27.2757 27.5499 28.4999 27.5499C29.7242 27.5499 30.7166 28.5423 30.7166 29.7665ZM28.4999 31.0332C29.1995 31.0332 29.7666 30.4661 29.7666 29.7665C29.7666 29.067 29.1995 28.4999 28.4999 28.4999C27.8004 28.4999 27.2333 29.067 27.2333 29.7665C27.2333 30.4661 27.8004 31.0332 28.4999 31.0332Z" fill="white"/>
</svg>
