<svg width="60" height="60" viewBox="0 0 60 60" fill="none" xmlns="http://www.w3.org/2000/svg">
<path d="M20.5141 22.814H22.9474V25.2892C22.9474 26.2157 23.6928 26.974 24.6036 26.974H29.3478C30.2608 26.974 31.0062 26.2203 31.0062 25.2892V22.814H33.4395C34.3503 22.814 35.0957 22.0604 35.0957 21.1292V16.3032C35.0957 15.3767 34.3503 14.6185 33.4395 14.6185H31.0062V12.1432C31.0062 11.2168 30.2608 10.4585 29.3478 10.4585L24.6036 10.4608C23.6928 10.4608 22.9474 11.2144 22.9474 12.1455V14.6208L20.5141 14.6185C19.6033 14.6185 18.8579 15.3721 18.8579 16.3032V21.1292C18.8624 22.0557 19.6033 22.814 20.5141 22.814ZM20.795 16.5865H23.9148C24.4495 16.5865 24.8822 16.1463 24.8822 15.6024V12.4266H29.0646V15.6024C29.0646 16.1463 29.4996 16.5865 30.032 16.5865H33.1518V20.8456H30.032C29.4973 20.8456 29.0646 21.2858 29.0646 21.8297V25.0056H24.8845V21.8297C24.8845 21.2858 24.4495 20.8456 23.9171 20.8456H20.795V16.5865Z" fill="#333333"/>
<path d="M12.249 58.9483H17.6185C17.6389 58.9483 17.6525 58.9391 17.6684 58.9391L48.2906 58.8791C51.3447 58.8791 53.8324 56.3509 53.8324 53.2442V8.78649C53.8324 8.24258 53.3974 7.80237 52.8649 7.80237C52.3325 7.80237 51.8975 8.24256 51.8975 8.78649V53.2418C51.8975 55.2653 50.2798 56.9132 48.2883 56.9132L15.3438 56.9754C15.3347 56.9754 15.3234 56.98 15.3143 56.98H12.2489C9.96061 56.98 8.10055 55.0856 8.10055 52.7602C8.10055 50.4348 9.96061 48.5403 12.2489 48.5403H42.196C45.2501 48.5403 47.7355 46.0121 47.7355 42.9054V5.68697C47.7355 2.58027 45.2501 0.052002 42.196 0.052002H11.7077C8.65369 0.052002 6.16602 2.58027 6.16602 5.68697V52.7371C6.16602 52.7394 6.16828 52.7417 6.16828 52.744C6.16828 52.7486 6.16602 52.7533 6.16602 52.7579C6.16828 56.1711 8.89834 58.9481 12.2491 58.9481L12.249 58.9483ZM11.7075 2.018H42.1958C44.1828 2.018 45.7981 3.66357 45.7981 5.68939V42.9054C45.7981 44.9289 44.1805 46.5721 42.1958 46.5721H11.7075C11.5625 46.5721 11.4266 46.6113 11.302 46.6712C10.074 46.8671 8.97068 47.4341 8.10295 48.2615V5.68708C8.10068 3.66125 9.71604 2.01798 11.7075 2.01798L11.7075 2.018Z" fill="#333333"/>
<path d="M17.1969 34.6213H36.7563C37.291 34.6213 37.7237 34.1811 37.7237 33.6372C37.7237 33.0933 37.2887 32.6531 36.7563 32.6531L17.1969 32.6554C16.6622 32.6554 16.2295 33.0956 16.2295 33.6395C16.2295 34.1811 16.6622 34.6213 17.1969 34.6213V34.6213Z" fill="#333333"/>
<path d="M17.1969 40.3484H36.7563C37.291 40.3484 37.7237 39.9082 37.7237 39.3642C37.7237 38.8203 37.2887 38.3801 36.7563 38.3801L17.1969 38.3824C16.6622 38.3824 16.2295 38.8226 16.2295 39.3665C16.2295 39.9081 16.6622 40.3484 17.1969 40.3484V40.3484Z" fill="#333333"/>
</svg>
