<svg width="60" height="60" viewBox="0 0 60 60" fill="none" xmlns="http://www.w3.org/2000/svg">
<mask id="path-1-inside-1" fill="white">
<path d="M43.4298 10.4273C42.0587 10.4273 40.7696 10.9593 39.7993 11.9296C37.8024 13.9312 37.8024 17.1867 39.8017 19.1836C40.7696 20.1516 42.0587 20.686 43.4298 20.686C44.8009 20.686 46.09 20.1516 47.0579 19.1836C49.0571 17.1844 49.0571 13.929 47.0556 11.9272C46.09 10.9593 44.8009 10.4272 43.4298 10.4272V10.4273ZM45.3611 17.4869C44.8454 18.0025 44.1587 18.2861 43.4298 18.2861C42.6985 18.2861 42.0141 18.0025 41.4985 17.4869C40.4345 16.4229 40.4345 14.6908 41.4962 13.6267C42.0118 13.1111 42.6985 12.8275 43.4298 12.8275C44.1611 12.8275 44.8454 13.1111 45.3611 13.6244C46.4251 14.6908 46.4251 16.4229 45.3611 17.4869H45.3611ZM55.1207 6.21109L55.0832 5.6275C55.0457 5.02516 54.5652 4.54702 53.9652 4.50718L53.3839 4.46968C53.2785 4.46265 52.7136 4.42749 51.8066 4.42749C47.5011 4.42749 36.7244 5.18685 29.6936 12.2203C28.8311 13.0828 28.0084 13.9758 27.2421 14.8828C26.2858 14.4211 25.1796 14.1726 24.0288 14.1726C21.9546 14.1726 19.9975 14.9413 18.6592 16.282L11.3398 23.5948C10.5125 24.4198 10.7633 25.4159 10.8969 25.9526C10.9203 26.0487 10.9461 26.1471 10.9648 26.2479C11.0797 26.8549 11.3703 27.4081 11.8062 27.844C12.0687 28.1065 12.3804 28.3198 12.7414 28.4815L19.2568 31.3386L12.8302 37.7652C12.6169 37.9784 12.4927 38.262 12.4786 38.562C12.4739 38.6792 12.3872 41.4589 15.1669 44.2386C17.731 46.8026 20.2951 46.9269 20.7708 46.9269C20.8106 46.9269 20.8364 46.9245 20.8458 46.9245C21.1458 46.9105 21.4294 46.7862 21.6427 46.573L28.1815 40.0342L31.2119 46.9438C31.3619 47.293 31.5752 47.6094 31.8518 47.8883C32.2901 48.3266 32.8432 48.6196 33.4479 48.7297C33.633 48.7648 33.8229 48.7812 34.0127 48.7812C34.826 48.7812 35.5924 48.4648 36.1714 47.8882L43.5634 40.4938C45.7571 38.3001 46.1907 34.9532 44.754 32.3026C45.6563 31.5363 46.5305 30.73 47.365 29.8933C56.032 21.2401 55.1602 6.81668 55.1206 6.21188L55.1207 6.21109ZM20.3369 44.4893C19.6736 44.3838 18.3142 43.9901 16.8657 42.5416C15.4149 41.0908 15.0236 39.7291 14.9181 39.0729L20.4634 33.5276C20.8431 34.9291 21.5204 36.1432 22.479 37.1065C23.3767 38.0041 24.4947 38.6533 25.7814 39.0448L20.3369 44.4893ZM42.4151 31.1321C41.9041 31.5446 41.8198 32.2899 42.2252 32.8079C43.6385 34.6079 43.4862 37.1837 41.869 38.8009L34.4794 46.1929C34.3247 46.3452 34.1255 46.4179 33.8887 46.3733C33.7622 46.3499 33.645 46.289 33.5559 46.1976C33.4973 46.139 33.4528 46.0733 33.4176 45.9937L29.827 37.8049C29.6372 37.3736 29.213 37.0924 28.7418 37.0877C26.8035 37.0666 25.2684 36.5017 24.1809 35.4142C23.1356 34.3666 22.5777 32.9064 22.5145 31.0759C22.5286 30.9072 22.5098 30.7361 22.4512 30.572C22.4489 30.5673 22.4489 30.565 22.4489 30.5603C22.4254 30.4947 22.3926 30.4314 22.3575 30.3704C22.2333 30.1361 22.0411 29.9368 21.7879 29.8267L13.7185 26.2877C13.6365 26.2502 13.5639 26.2009 13.5076 26.147C13.4162 26.0533 13.3506 25.9314 13.3248 25.8002C13.2967 25.6525 13.2615 25.5072 13.2264 25.3642C13.21 25.2986 13.1889 25.2213 13.1748 25.1533L20.3538 17.9743C21.2327 17.0954 22.6061 16.568 24.0265 16.568C25.0882 16.568 26.0726 16.8633 26.7944 17.4C27.3124 17.7844 28.0413 17.6907 28.4468 17.1867C29.3421 16.0688 30.3335 14.9696 31.3882 13.9125C37.7842 7.51654 47.797 6.82534 51.8044 6.82534C52.1934 6.82534 52.5122 6.83237 52.7489 6.83941C52.8379 9.36127 52.8403 21.033 45.6707 28.2006C44.6394 29.2342 43.5449 30.2186 42.4152 31.1326L42.4151 31.1321ZM13.2917 47.1233C12.8229 46.6545 12.0635 46.6545 11.5948 47.1233L5.18921 53.5265C4.72046 53.9952 4.72046 54.7546 5.18921 55.2234C5.42358 55.4577 5.73061 55.5749 6.03767 55.5749C6.34473 55.5749 6.65171 55.4577 6.88613 55.2234L13.2917 48.8202C13.7605 48.3514 13.7605 47.592 13.2917 47.1233H13.2917ZM15.5955 50.4373L12.5065 53.524C12.0378 53.9928 12.0378 54.7522 12.5065 55.2209C12.7409 55.4553 13.0479 55.5725 13.355 55.5725C13.662 55.5725 13.969 55.4553 14.2034 55.2209L17.2925 52.1342C17.7612 51.6654 17.7612 50.9061 17.2925 50.4373C16.8237 49.9686 16.0643 49.9709 15.5956 50.4373H15.5955ZM38.7777 34.5727L33.2887 40.0618C32.82 40.5305 32.82 41.2899 33.2887 41.7586C33.5231 41.993 33.8301 42.1102 34.1372 42.1102C34.4442 42.1102 34.7512 41.993 34.9856 41.7586L40.4747 36.2696C40.9434 35.8008 40.9434 35.0415 40.4747 34.5727C40.0059 34.104 39.2465 34.104 38.7778 34.5727H38.7777ZM23.2293 19.0243L17.7426 24.5134C17.2739 24.9821 17.2739 25.7415 17.7426 26.2102C17.977 26.4446 18.2841 26.5618 18.5911 26.5618C18.8982 26.5618 19.2051 26.4446 19.4396 26.2102L24.9263 20.7212C25.395 20.2524 25.395 19.4931 24.9263 19.0243C24.4575 18.5556 23.6981 18.5556 23.2294 19.0243H23.2293ZM7.86815 46.4275C8.17518 46.4275 8.48219 46.3103 8.71661 46.076L11.4611 43.3314C11.9299 42.8627 11.9299 42.1033 11.4611 41.6346C10.9924 41.1659 10.233 41.1658 9.76427 41.6346L7.01975 44.3791C6.551 44.8479 6.551 45.6072 7.01975 46.076C7.25412 46.3103 7.56115 46.4275 7.86821 46.4275H7.86815Z"/>
</mask>
<path d="M43.4298 10.4273C42.0587 10.4273 40.7696 10.9593 39.7993 11.9296C37.8024 13.9312 37.8024 17.1867 39.8017 19.1836C40.7696 20.1516 42.0587 20.686 43.4298 20.686C44.8009 20.686 46.09 20.1516 47.0579 19.1836C49.0571 17.1844 49.0571 13.929 47.0556 11.9272C46.09 10.9593 44.8009 10.4272 43.4298 10.4272V10.4273ZM45.3611 17.4869C44.8454 18.0025 44.1587 18.2861 43.4298 18.2861C42.6985 18.2861 42.0141 18.0025 41.4985 17.4869C40.4345 16.4229 40.4345 14.6908 41.4962 13.6267C42.0118 13.1111 42.6985 12.8275 43.4298 12.8275C44.1611 12.8275 44.8454 13.1111 45.3611 13.6244C46.4251 14.6908 46.4251 16.4229 45.3611 17.4869H45.3611ZM55.1207 6.21109L55.0832 5.6275C55.0457 5.02516 54.5652 4.54702 53.9652 4.50718L53.3839 4.46968C53.2785 4.46265 52.7136 4.42749 51.8066 4.42749C47.5011 4.42749 36.7244 5.18685 29.6936 12.2203C28.8311 13.0828 28.0084 13.9758 27.2421 14.8828C26.2858 14.4211 25.1796 14.1726 24.0288 14.1726C21.9546 14.1726 19.9975 14.9413 18.6592 16.282L11.3398 23.5948C10.5125 24.4198 10.7633 25.4159 10.8969 25.9526C10.9203 26.0487 10.9461 26.1471 10.9648 26.2479C11.0797 26.8549 11.3703 27.4081 11.8062 27.844C12.0687 28.1065 12.3804 28.3198 12.7414 28.4815L19.2568 31.3386L12.8302 37.7652C12.6169 37.9784 12.4927 38.262 12.4786 38.562C12.4739 38.6792 12.3872 41.4589 15.1669 44.2386C17.731 46.8026 20.2951 46.9269 20.7708 46.9269C20.8106 46.9269 20.8364 46.9245 20.8458 46.9245C21.1458 46.9105 21.4294 46.7862 21.6427 46.573L28.1815 40.0342L31.2119 46.9438C31.3619 47.293 31.5752 47.6094 31.8518 47.8883C32.2901 48.3266 32.8432 48.6196 33.4479 48.7297C33.633 48.7648 33.8229 48.7812 34.0127 48.7812C34.826 48.7812 35.5924 48.4648 36.1714 47.8882L43.5634 40.4938C45.7571 38.3001 46.1907 34.9532 44.754 32.3026C45.6563 31.5363 46.5305 30.73 47.365 29.8933C56.032 21.2401 55.1602 6.81668 55.1206 6.21188L55.1207 6.21109ZM20.3369 44.4893C19.6736 44.3838 18.3142 43.9901 16.8657 42.5416C15.4149 41.0908 15.0236 39.7291 14.9181 39.0729L20.4634 33.5276C20.8431 34.9291 21.5204 36.1432 22.479 37.1065C23.3767 38.0041 24.4947 38.6533 25.7814 39.0448L20.3369 44.4893ZM42.4151 31.1321C41.9041 31.5446 41.8198 32.2899 42.2252 32.8079C43.6385 34.6079 43.4862 37.1837 41.869 38.8009L34.4794 46.1929C34.3247 46.3452 34.1255 46.4179 33.8887 46.3733C33.7622 46.3499 33.645 46.289 33.5559 46.1976C33.4973 46.139 33.4528 46.0733 33.4176 45.9937L29.827 37.8049C29.6372 37.3736 29.213 37.0924 28.7418 37.0877C26.8035 37.0666 25.2684 36.5017 24.1809 35.4142C23.1356 34.3666 22.5777 32.9064 22.5145 31.0759C22.5286 30.9072 22.5098 30.7361 22.4512 30.572C22.4489 30.5673 22.4489 30.565 22.4489 30.5603C22.4254 30.4947 22.3926 30.4314 22.3575 30.3704C22.2333 30.1361 22.0411 29.9368 21.7879 29.8267L13.7185 26.2877C13.6365 26.2502 13.5639 26.2009 13.5076 26.147C13.4162 26.0533 13.3506 25.9314 13.3248 25.8002C13.2967 25.6525 13.2615 25.5072 13.2264 25.3642C13.21 25.2986 13.1889 25.2213 13.1748 25.1533L20.3538 17.9743C21.2327 17.0954 22.6061 16.568 24.0265 16.568C25.0882 16.568 26.0726 16.8633 26.7944 17.4C27.3124 17.7844 28.0413 17.6907 28.4468 17.1867C29.3421 16.0688 30.3335 14.9696 31.3882 13.9125C37.7842 7.51654 47.797 6.82534 51.8044 6.82534C52.1934 6.82534 52.5122 6.83237 52.7489 6.83941C52.8379 9.36127 52.8403 21.033 45.6707 28.2006C44.6394 29.2342 43.5449 30.2186 42.4152 31.1326L42.4151 31.1321ZM13.2917 47.1233C12.8229 46.6545 12.0635 46.6545 11.5948 47.1233L5.18921 53.5265C4.72046 53.9952 4.72046 54.7546 5.18921 55.2234C5.42358 55.4577 5.73061 55.5749 6.03767 55.5749C6.34473 55.5749 6.65171 55.4577 6.88613 55.2234L13.2917 48.8202C13.7605 48.3514 13.7605 47.592 13.2917 47.1233H13.2917ZM15.5955 50.4373L12.5065 53.524C12.0378 53.9928 12.0378 54.7522 12.5065 55.2209C12.7409 55.4553 13.0479 55.5725 13.355 55.5725C13.662 55.5725 13.969 55.4553 14.2034 55.2209L17.2925 52.1342C17.7612 51.6654 17.7612 50.9061 17.2925 50.4373C16.8237 49.9686 16.0643 49.9709 15.5956 50.4373H15.5955ZM38.7777 34.5727L33.2887 40.0618C32.82 40.5305 32.82 41.2899 33.2887 41.7586C33.5231 41.993 33.8301 42.1102 34.1372 42.1102C34.4442 42.1102 34.7512 41.993 34.9856 41.7586L40.4747 36.2696C40.9434 35.8008 40.9434 35.0415 40.4747 34.5727C40.0059 34.104 39.2465 34.104 38.7778 34.5727H38.7777ZM23.2293 19.0243L17.7426 24.5134C17.2739 24.9821 17.2739 25.7415 17.7426 26.2102C17.977 26.4446 18.2841 26.5618 18.5911 26.5618C18.8982 26.5618 19.2051 26.4446 19.4396 26.2102L24.9263 20.7212C25.395 20.2524 25.395 19.4931 24.9263 19.0243C24.4575 18.5556 23.6981 18.5556 23.2294 19.0243H23.2293ZM7.86815 46.4275C8.17518 46.4275 8.48219 46.3103 8.71661 46.076L11.4611 43.3314C11.9299 42.8627 11.9299 42.1033 11.4611 41.6346C10.9924 41.1659 10.233 41.1658 9.76427 41.6346L7.01975 44.3791C6.551 44.8479 6.551 45.6072 7.01975 46.076C7.25412 46.3103 7.56115 46.4275 7.86821 46.4275H7.86815Z" fill="#333333" stroke="white" stroke-width="0.5" mask="url(#path-1-inside-1)"/>
</svg>
